<?xml version="1.0" encoding="UTF-8"?>
<svg id="Capa_2" data-name="Capa 2" xmlns="http://www.w3.org/2000/svg" viewBox="0 0 359.53 401">
  <g id="Capa_1-2" data-name="Capa 1">
    <g>
      <rect x="95.23" y="67.15" width="82.22" height="137.7" rx="18.02" ry="18.02" transform="translate(-56.23 136.24) rotate(-45)" fill="#fff"/>
      <rect x="-10.56" y="204.94" width="124.37" height="31.54" rx="8.45" ry="8.45" transform="translate(-140.95 101.15) rotate(-45)" fill="#fff"/>
    </g>
    <g>
      <path d="M341.33,236.9h-18.23v9.11c0,20.14-16.32,36.44-36.44,36.44s-36.44-16.32-36.44-36.44v-9.11h-18.23c-10.03,0-18.23,8.2-18.23,18.23v86.47c0,5.83,2.82,11.4,7.65,14.85l59.95,42.83c1.55,1.09,3.47,1.73,5.28,1.73s3.74-.55,5.28-1.73l59.95-42.83c4.73-3.47,7.65-8.94,7.65-14.85v-86.47c0-10.03-8.2-18.23-18.23-18.23h.03Z" fill="#fff"/>
      <path d="M231.99,36.44h4.19l32.26,48.3v161.28c0,10.03,8.2,18.23,18.23,18.23s18.23-8.2,18.23-18.23V84.74l32.26-48.3h4.19c5.01,0,9.11-4.1,9.11-9.11V9.11c0-5.01-4.1-9.11-9.11-9.11h-109.34c-5.01,0-9.11,4.1-9.11,9.11v18.23c0,5.01,4.1,9.11,9.11,9.11h0ZM290.85,72.88h-8.47l-24.33-36.44h57.05l-24.33,36.44h.09Z" fill="#fff"/>
    </g>
  </g>
</svg>