<?xml version="1.0" encoding="UTF-8"?>
<svg id="Capa_2" data-name="Capa 2" xmlns="http://www.w3.org/2000/svg" viewBox="0 0 108.64 110.43">
  <g id="Capa_1-2" data-name="Capa 1">
    <path d="M66.03,61.76c4.27-2.35,5.61-6.37,6.02-8.55.18-.94-.36-1.86-1.25-2.2-2.09-.82-6.16-1.81-10.4.52-2.14,1.18-3.54,2.77-4.46,4.35v-6.6c2.16.79,6.05,1.58,10.09-.64,4.27-2.35,5.61-6.37,6.02-8.55.18-.94-.36-1.86-1.25-2.2-2.09-.82-6.16-1.81-10.4.52-2.14,1.18-3.54,2.77-4.46,4.35v-3.52c1.72-1.57,4.08-4.52,4.08-8.95,0-4.88-2.88-7.98-4.6-9.4-.72-.6-1.77-.6-2.49,0-1.71,1.42-4.6,4.52-4.6,9.4,0,4.43,2.36,7.38,4.08,8.95v3.52c-.92-1.58-2.32-3.17-4.46-4.35-4.24-2.33-8.32-1.33-10.4-.52-.89.35-1.43,1.26-1.25,2.2.42,2.19,1.75,6.21,6.02,8.55,4.05,2.22,7.93,1.43,10.09.64v6.61c-.92-1.58-2.32-3.17-4.46-4.35-4.24-2.33-8.32-1.33-10.4-.52-.89.35-1.43,1.26-1.25,2.2.42,2.19,1.75,6.21,6.02,8.55,4.05,2.22,7.93,1.43,10.09.64v6.61c-.92-1.58-2.32-3.17-4.46-4.35-4.24-2.33-8.32-1.33-10.4-.52-.89.35-1.43,1.26-1.25,2.2.42,2.19,1.75,6.21,6.02,8.55,4.05,2.22,7.93,1.43,10.09.64v6.61c-.92-1.58-2.32-3.17-4.46-4.35-4.24-2.33-8.32-1.33-10.4-.52-.89.35-1.43,1.26-1.25,2.2.42,2.19,1.75,6.21,6.02,8.55,4.05,2.22,7.93,1.43,10.09.64v19.96c0,.98.79,1.77,1.77,1.77s1.77-.79,1.77-1.77v-19.98c2.16.79,6.05,1.58,10.09-.64,4.27-2.35,5.61-6.37,6.02-8.55.18-.94-.36-1.86-1.25-2.2-2.09-.82-6.16-1.81-10.4.52-2.14,1.18-3.54,2.77-4.46,4.35v-6.6c2.16.79,6.05,1.58,10.09-.64,4.27-2.35,5.61-6.37,6.02-8.55.18-.94-.36-1.86-1.25-2.2-2.09-.82-6.16-1.81-10.4.52-2.14,1.18-3.54,2.77-4.46,4.35v-6.6c2.16.79,6.05,1.57,10.09-.64h0Z" fill="#fff"/>
    <path d="M16.15,104.7v3.96c0,.98.79,1.77,1.77,1.77s1.77-.79,1.77-1.77v-5.37s0-6.6,0-6.6c2.16.79,6.05,1.57,10.09-.64h0c4.27-2.35,5.61-6.37,6.02-8.56.18-.94-.36-1.86-1.25-2.2-2.09-.82-6.16-1.81-10.4.52-2.14,1.18-3.54,2.77-4.46,4.35v-6.6c2.16.79,6.05,1.58,10.09-.64,4.27-2.35,5.61-6.37,6.02-8.55.18-.94-.36-1.86-1.25-2.2-2.09-.82-6.16-1.81-10.4.52-2.14,1.18-3.54,2.77-4.46,4.35v-3.52c1.72-1.57,4.08-4.52,4.08-8.95,0-4.88-2.88-7.98-4.6-9.4-.72-.6-1.77-.6-2.49,0-1.71,1.42-4.6,4.52-4.6,9.4,0,4.43,2.36,7.38,4.08,8.95v3.52c-.92-1.58-2.32-3.17-4.46-4.35-4.24-2.33-8.32-1.33-10.4-.52-.89.35-1.43,1.26-1.25,2.2.42,2.19,1.75,6.21,6.02,8.55,4.05,2.22,7.93,1.43,10.09.64v6.61c-.92-1.58-2.32-3.17-4.46-4.35-4.24-2.33-8.32-1.33-10.4-.52-.89.35-1.43,1.26-1.25,2.2.42,2.19,1.75,6.21,6.02,8.55,4.05,2.22,7.93,1.43,10.09.64v8Z" fill="#fff"/>
    <path d="M88.97,104.7v3.96c0,.98.79,1.77,1.77,1.77s1.77-.79,1.77-1.77v-5.37s0-6.6,0-6.6c2.16.79,6.05,1.57,10.09-.64h0c4.27-2.35,5.61-6.37,6.02-8.56.18-.94-.36-1.86-1.25-2.2-2.09-.82-6.16-1.81-10.4.52-2.14,1.18-3.54,2.77-4.46,4.35v-6.6c2.16.79,6.05,1.58,10.09-.64,4.27-2.35,5.61-6.37,6.02-8.55.18-.94-.36-1.86-1.25-2.2-2.09-.82-6.16-1.81-10.4.52-2.14,1.18-3.54,2.77-4.46,4.35v-3.52c1.72-1.57,4.08-4.52,4.08-8.95,0-4.88-2.88-7.98-4.6-9.4-.72-.6-1.77-.6-2.49,0-1.71,1.42-4.6,4.52-4.6,9.4,0,4.43,2.36,7.38,4.08,8.95v3.52c-.92-1.58-2.32-3.17-4.46-4.35-4.24-2.33-8.32-1.33-10.4-.52-.89.35-1.43,1.26-1.25,2.2.42,2.19,1.75,6.21,6.02,8.55,4.05,2.22,7.93,1.43,10.09.64v6.61c-.92-1.58-2.32-3.17-4.46-4.35-4.24-2.33-8.32-1.33-10.4-.52-.89.35-1.43,1.26-1.25,2.2.42,2.19,1.75,6.21,6.02,8.55,4.05,2.22,7.93,1.43,10.09.64v8Z" fill="#fff"/>
    <path d="M55.05,7.43l3.6,1.97c.12.06.21.16.28.28l1.97,3.6c.19.34.61.46.95.27.12-.06.21-.16.27-.27l1.97-3.6c.06-.12.16-.21.28-.28l3.6-1.97c.34-.19.46-.61.27-.95-.06-.12-.16-.21-.27-.27l-3.6-1.97c-.12-.06-.21-.16-.28-.28l-1.97-3.6c-.19-.34-.61-.46-.95-.27-.12.06-.21.16-.27.27l-1.97,3.6c-.06.12-.16.21-.28.28l-3.6,1.97c-.34.19-.46.61-.27.95.06.12.16.21.27.27Z" fill="#fff"/>
    <path d="M36.67,21.45l2.1,1.15c.07.04.12.09.16.16l1.15,2.1c.11.2.35.27.55.16.07-.04.13-.09.16-.16l1.15-2.1c.04-.07.09-.12.16-.16l2.1-1.15c.2-.11.27-.35.16-.55-.04-.07-.09-.13-.16-.16l-2.1-1.15c-.07-.04-.12-.09-.16-.16l-1.15-2.1c-.11-.2-.36-.27-.55-.16-.07.04-.12.09-.16.16l-1.15,2.1c-.04.07-.09.12-.16.16l-2.1,1.15c-.2.11-.27.35-.16.55.04.07.09.13.16.16Z" fill="#fff"/>
  </g>
</svg>