<?xml version="1.0" encoding="UTF-8"?>
<svg id="Capa_2" data-name="Capa 2" xmlns="http://www.w3.org/2000/svg" viewBox="0 0 475.9 463.63">
  <g id="Capa_1-2" data-name="Capa 1">
    <path d="M399.43,15.59C356.11,4.24,302.18.26,241.36.26c-6.24,0-21-1-31.63.91-5.51,1.05-9.13,6.37-8.08,11.88.91,4.77,5.08,8.24,9.94,8.26,9.79,0,24.27.52,31.61.52,58.35,0,106.36,6.25,147.3,17,15,3.94,25.31,8.57,32.32,13,13.64,8.59,16.36,27.64,5.41,39.47-4.32,4.67-10.57,9.35-19.62,13.3-2.03.88-2.95,3.24-2.07,5.27.46,1.06,1.36,1.87,2.46,2.21,5.04,1.63,10.48,1.57,15.49-.16,33.59-11.58,51.37-21.43,51.37-40.6,0-23.71-25.72-42.45-76.43-55.73Z" fill="#fff"/>
    <path d="M380.43,117.05c0-6.88-5.59-12.46-12.47-12.45-6.88,0-12.46,5.59-12.45,12.47,0,6.86,5.56,12.43,12.42,12.45,6.88.02,12.48-5.54,12.5-12.42,0-.02,0-.03,0-.05Z" fill="#fff"/>
    <path d="M78.28,45.91c5.45-4.6,11.69-8.19,18.4-10.6,3.53-1,7-2,10.45-3,12-3.34,22.76-6.19,28.76-7.77,2.93-.77,5.23-3.07,6-6,1.44-5.48-2.54-10.8-7.86-10.66C73.2,9.4.03,24.6.03,67.33.03,92.33,25.75,112.2,76.46,126.26c43.32,12,95.45,12.93,156.21,10.15,34.54-1.58,68.93-4.34,98.45-9.64,3.6-.65,5.18-5.19,2.87-8.18-3.33-4.38-8.61-6.82-14.1-6.53-148.69,9.07-214.56-18.58-239.54-34.54-10.88-6.86-11.86-23.09-2.07-31.61Z" fill="#fff"/>
    <path d="M331.09,237.11c3.6-.65,5.18-5.19,2.87-8.18-3.33-4.38-8.61-6.83-14.1-6.54-148.69,9.08-213.82-19.8-239.54-34.53-9.63-5.51-7.25-16.34-3.21-24.91,2.59-5.54.2-12.14-5.35-14.73-.76-.36-1.57-.63-2.39-.8-9-1.92-17.14-3.76-24.19-5.42-12.06-2.89-24.75.64-33.58,9.34-7.33,7.3-11.6,16-11.6,26.32,0,25.05,25.72,44.88,76.43,58.94,43.32,12,95.45,12.93,156.21,10.15,34.54-1.59,68.93-4.34,98.45-9.64Z" fill="#fff"/>
    <path d="M443.93,142.04c-5.69-2.97-12.26-3.76-18.5-2.25h-.15c-4.16.98-7.41,4.22-8.42,8.37-.15.66-.28,1.34-.37,2.05-.57,4.39,1.45,8.7,5.18,11.08l1.16.73.21.14c10.57,6.79,12.42,21.56,4.19,31.06-6.46,7.45-18,17.08-38,25-5.61,2.22-3.94,10.55,2.09,10.36,22.11-.72,51.77-6,74.12-26,1.05-.87,2.05-1.79,3-2.77h0c4.86-4.84,7.55-11.44,7.46-18.29-.04-15.24-10.76-28.46-31.97-39.48Z" fill="#fff"/>
    <path d="M319.86,437.97c-148.69,9.08-213.82-19.8-239.54-34.53-9.63-5.51-7.25-16.34-3.21-24.92,2.59-5.55.19-12.14-5.36-14.72-.76-.35-1.56-.62-2.38-.8-9-1.92-17.14-3.76-24.19-5.42-12.06-2.89-24.75.64-33.58,9.34-7.33,7.3-11.6,16-11.6,26.32,0,25.05,25.72,44.88,76.43,58.94,43.32,12,95.45,12.93,156.21,10.15,34.54-1.59,68.93-4.34,98.45-9.65,3.6-.64,5.18-5.18,2.87-8.17-3.32-4.38-8.61-6.83-14.1-6.54Z" fill="#fff"/>
    <path d="M443.93,357.62c-5.69-2.97-12.26-3.76-18.5-2.25h-.15c-4.16.98-7.41,4.22-8.42,8.37-.15.66-.28,1.34-.37,2-.57,4.39,1.45,8.7,5.18,11.08l1.16.73.21.14c10.57,6.79,12.42,21.56,4.19,31.06-6.46,7.45-18,17.08-38,25-5.61,2.21-3.94,10.55,2.09,10.36,22.11-.72,51.77-6,74.12-26,1.05-.87,2.05-1.8,3-2.77h0c4.86-4.84,7.55-11.44,7.46-18.29-.04-15.19-10.76-28.41-31.97-39.43Z" fill="#fff"/>
    <path d="M457.49,247.71c-6.26-4.56-14.47-5.45-21.56-2.35-5.16,2.24-11.06,4.56-17.49,6.66-2.47.82-3.81,3.48-2.99,5.95.26.79.73,1.5,1.35,2.05l.07.06c9.79,8.52,8.8,24.75-2.05,31.68-19.51,12.47-75.77,30.95-170.34,34.12-6.3.21-12.25,2.98-16.46,7.68-3.27,3.68-2.94,9.31.74,12.58,1.52,1.35,3.45,2.14,5.47,2.24,3,.16,6,.3,9,.44,60.76,2.78,112.89,1.87,156.21-10.15,50.7-14.02,76.42-33.86,76.42-58.86,0-13.2-6.93-23.75-18.37-32.1Z" fill="#fff"/>
    <path d="M69.36,259.18c-9-1.92-17.14-3.77-24.19-5.43-12.07-2.9-24.78.65-33.6,9.38-7.31,7.29-11.38,19.76-11.38,30.06,0,19.39,13.64,34.57,46,41.47,23,4.9,46.53,7.74,65.42,7.1,9.33-.31,16.2-1.25,22-4.05,7.16-3.47,5.68-14.1-2.14-15.59-16.2-3.08-38.47-8.67-50.86-17.65-9-6.51-7.51-21.2-3.47-29.77,2.59-5.54.19-12.13-5.35-14.71-.78-.36-1.59-.63-2.43-.81Z" fill="#fff"/>
    <path d="M169.85,335.01c0,6.7,5.43,12.13,12.13,12.13s12.13-5.43,12.13-12.13c0-6.7-5.43-12.13-12.13-12.13s-12.13,5.43-12.13,12.13h0Z" fill="#fff"/>
  </g>
</svg>