<?xml version="1.0" encoding="UTF-8"?>
<svg id="Capa_2" data-name="Capa 2" xmlns="http://www.w3.org/2000/svg" viewBox="0 0 462.17 461.45">
  <g id="Capa_1-2" data-name="Capa 1">
    <path d="M36.08,458.66c33.59-17.05,77.52-41,124.19-70.78,5.29-3.38,6.84-10.41,3.46-15.7-.25-.39-.52-.77-.82-1.13-6.05-7.27-12.67-14.78-19.8-22.31-3.85-3.97-3.93-10.26-.18-14.33,3.91-4.04,10.34-4.14,14.38-.24.04.04.08.08.12.12l.19.19c8.75,9.22,16.71,18.36,23.87,27.1,3.75,4.58,10.38,5.51,15.25,2.14,11.27-7.76,22.55-15.83,33.84-24.2,5.05-3.75,6.1-10.87,2.35-15.92-.18-.24-.37-.47-.56-.7-13.75-15.69-29.7-32.66-47.91-50.27l-.12-.12c-3.94-4.01-3.88-10.44.12-14.38,3.91-3.84,10.16-3.9,14.14-.12,19.43,18.79,36.31,36.8,50.75,53.35,4.02,4.62,10.98,5.22,15.73,1.36,7.2-5.86,14.32-11.84,21.35-17.93,4.75-4.11,5.27-11.29,1.17-16.04-.04-.04-.07-.08-.11-.12-7.69-8.6-15.81-17.31-24.33-26-3.9-4-4.29-10.42-.46-14.46,3.87-4.08,10.31-4.25,14.39-.38.06.06.13.12.19.18l.05.06c8.78,8.9,17.12,17.83,25,26.62,4.2,4.66,11.38,5.04,16.04.84.1-.09.21-.19.31-.29,1.82-1.76,3.62-3.53,5.41-5.3,11.34-11.1,18.66-25.66,20.83-41.38,2.57-19.53-1.76-45.76-29-73-27.5-27.5-54-31.65-73.57-28.93-15.59,2.31-29.99,9.67-41,20.95C109.55,230.24,39.89,352.28,2.78,425.36c-10.82,21.36,11.96,44.14,33.3,33.3Z" fill="#fff"/>
    <path d="M414.23,92.64s47.1-35.31,46.21-77.7c-.22-7.22-6.03-13.02-13.25-13.22-42.38-.89-77.7,46.22-77.7,46.22-2.57-23.36-18.47-38.36-31.06-46.72-3.19-2.18-7.55-1.36-9.73,1.83-1.09,1.6-1.47,3.58-1.05,5.47,8.1,35.9-6.32,71.15-14.33,87-2.4,4.73-.89,10.5,3.52,13.45,10.25,6.82,29.53,26.09,36.34,36.35,2.95,4.41,8.73,5.92,13.46,3.52,15.86-8,51.11-22.43,87-14.34,3.77.85,7.52-1.53,8.36-5.3.42-1.89.04-3.88-1.05-5.48-8.37-12.61-23.37-28.51-46.72-31.08Z" fill="#fff"/>
  </g>
</svg>