<?xml version="1.0" encoding="UTF-8"?>
<svg id="Capa_2" data-name="Capa 2" xmlns="http://www.w3.org/2000/svg" viewBox="0 0 415.63 215.33">
  <g id="Capa_1-2" data-name="Capa 1">
    <g>
      <path d="M87.4,67.7c-2.87-2.86-4.37-6.81-4.15-10.86l.88-15.87c.22-3.94-1.25-7.79-4.05-10.59l-13.55-13.55c-2.78-2.78-6.6-4.25-10.52-4.05l-13.48.69c-1.82.09-3.21,1.64-3.12,3.46.04.81.38,1.58.96,2.16l9.76,9.75c5.88,5.89,5.88,15.43,0,21.32h0c-5.89,5.88-15.43,5.88-21.32,0l-9.76-9.75c-1.29-1.29-3.37-1.28-4.66,0-.58.58-.92,1.34-.96,2.16l-.69,13.48c-.2,3.92,1.27,7.75,4.05,10.52l13.55,13.55c2.79,2.79,6.64,4.26,10.59,4.05l15.87-.88c4.04-.22,7.99,1.28,10.86,4.15l30.09,30.09,30.07,30.09c2.87,2.86,4.37,6.81,4.15,10.86l-.88,15.87c-.22,3.94,1.25,7.79,4.05,10.59l13.55,13.55c2.78,2.78,6.6,4.25,10.52,4.05l13.48-.69c1.82-.09,3.21-1.64,3.12-3.46-.04-.81-.38-1.58-.96-2.16l-9.74-9.75c-5.88-5.89-5.88-15.43,0-21.32h0c5.89-5.88,15.43-5.88,21.32,0l9.76,9.76c1.29,1.29,3.37,1.28,4.66,0,.58-.58.92-1.34.96-2.16l.69-13.48c.2-3.92-1.27-7.75-4.05-10.52l-13.55-13.55c-2.79-2.79-6.64-4.26-10.59-4.05l-15.87.88c-4.04.22-7.99-1.28-10.86-4.15l-30.09-30.07-30.09-30.13Z" fill="#fff"/>
      <path d="M67.85,147.44c13.32,13.33,32.44,19.09,50.91,15.35,2.32-.47,4.02-2.44,4.15-4.8h0c.08-1.46-.47-2.89-1.5-3.92l-5.54-5.54c-1.74-1.71-4.12-2.62-6.56-2.49-21.18.94-39.11-15.48-40.05-36.66-.05-1.13-.05-2.26,0-3.39.13-2.44-.77-4.82-2.49-6.56l-5.54-5.54c-1.04-1.03-2.46-1.58-3.92-1.5h0c-2.36.12-4.34,1.83-4.81,4.14-3.74,18.47,2.03,37.58,15.35,50.91Z" fill="#fff"/>
      <path d="M61.42,153.87c-15.26-15.27-21.99-37.1-17.97-58.31.19-1.05-.5-2.06-1.55-2.25-.15-.03-.3-.04-.45-.03h0c-4.77.25-9.51-.99-13.54-3.56-2.03-1.28-4.46-1.77-6.83-1.37l-16.45,2.78c-2.67.45-4.62,2.76-4.62,5.47v22.16c0,2.71,1.96,5.02,4.62,5.47l24.2,4.1c1.88,7.19,4.73,14.09,8.49,20.5l-14.21,20c-1.57,2.21-1.32,5.22.6,7.14l7.84,7.84,7.84,7.84c1.92,1.91,4.93,2.17,7.14.6l20-14.21c6.41,3.75,13.31,6.61,20.5,8.49l4.1,24.2c.45,2.67,2.76,4.62,5.47,4.62h22.16c2.71,0,5.02-1.96,5.47-4.62l2.78-16.45c.4-2.37-.09-4.8-1.37-6.83-2.56-4.04-3.8-8.78-3.54-13.56h0c.06-1.07-.76-1.98-1.82-2.03-.15,0-.3,0-.45.03-21.24,4.03-43.09-2.71-58.37-17.99Z" fill="#fff"/>
      <path d="M147.39,67.9c-13.32-13.33-32.44-19.09-50.91-15.35-2.32.47-4.02,2.44-4.15,4.8h0c-.08,1.46.47,2.89,1.5,3.92l5.54,5.54c1.74,1.71,4.12,2.62,6.56,2.49,21.18-.94,39.11,15.48,40.05,36.66.05,1.13.05,2.26,0,3.39-.13,2.44.77,4.82,2.49,6.56l5.54,5.54c1.04,1.03,2.46,1.58,3.92,1.5h0c2.36-.12,4.34-1.83,4.81-4.14,3.74-18.47-2.03-37.58-15.35-50.91Z" fill="#fff"/>
      <path d="M168.78,23.1l-20,14.21c-6.41-3.75-13.31-6.61-20.5-8.49l-4.1-24.2c-.45-2.67-2.76-4.62-5.47-4.62h-22.17c-2.71,0-5.02,1.96-5.47,4.62l-2.78,16.45c-.4,2.37.09,4.8,1.37,6.83,2.56,4.04,3.8,8.78,3.54,13.56h0c-.06,1.07.76,1.98,1.82,2.03.15,0,.3,0,.45-.03,35.41-6.74,69.58,16.51,76.32,51.92,1.53,8.06,1.53,16.34,0,24.4-.19,1.05.5,2.06,1.55,2.25.15.03.3.04.45.03h0c4.77-.26,9.51.98,13.54,3.54,2.03,1.28,4.46,1.77,6.83,1.37l16.45-2.78c2.67-.45,4.62-2.76,4.62-5.47v-22.14c0-2.71-1.96-5.02-4.62-5.47l-24.2-4.1c-1.88-7.19-4.73-14.09-8.49-20.5l14.21-20c1.57-2.21,1.32-5.22-.6-7.14l-7.84-7.84-7.84-7.84c-1.91-1.9-4.9-2.15-7.1-.61Z" fill="#fff"/>
    </g>
    <g>
      <rect x="302.37" y="70.17" width="32.59" height="12.31" rx="6.16" ry="6.16" fill="#fff"/>
      <path d="M330.23,108.92v-16.79c0-1.67-1.36-3.03-3.03-3.03h-17.08c-1.67,0-3.03,1.36-3.03,3.03h0v16.81c-29.81,6.39-48.79,35.73-42.4,65.54,3.3,15.41,13.04,28.68,26.75,36.45,2.36,1.32,5.01,2.01,7.72,2h38.99c2.7.01,5.37-.68,7.72-2,26.52-15.04,35.82-48.72,20.78-75.24-7.77-13.7-21.03-23.43-36.43-26.74v-.02ZM331.75,126.74c2.43,0,4.4,1.97,4.41,4.4s-1.97,4.4-4.4,4.41-4.4-1.97-4.41-4.4h0c0-2.43,1.97-4.4,4.4-4.41ZM296.7,135.46c3.48,0,6.3,2.81,6.3,6.29s-2.81,6.3-6.29,6.3-6.3-2.81-6.3-6.29h0c0-3.48,2.81-6.3,6.28-6.31,0,0,.02,0,.03,0h-.02ZM357.14,162.79c0,21.25-17.23,38.47-38.48,38.48-23.83,0-35.46-19.12-37.63-31-.64-3.72,1.85-7.25,5.57-7.89.65-.11,1.31-.13,1.97-.05,2.49.28,5.21.5,7.99.56,6.31.09,12.52-1.65,17.87-5,7.73-4.75,23.07-10.98,39.93-.2,1.74,1.1,2.8,3,2.82,5.05l-.04.05Z" fill="#fff"/>
      <circle cx="312.49" cy="183.44" r="7.28" fill="#fff"/>
      <circle cx="333.87" cy="169.06" r="4.4" fill="#fff"/>
      <path d="M250.55,11.94c.03.18.07.37.12.56.65,2.49,2.28,4.61,4.53,5.87,2.01,1.18,4.3,1.78,6.62,1.74,3.1-.1,5.54-2.69,5.44-5.79,0-.26-.03-.51-.08-.76-.49-2.82-1.82-6.21-5.19-8.54-5.26-3.66-12.55.6-11.44,6.92Z" fill="#fff"/>
      <path d="M293.26,62.13c-3.74-4.05-8.5-6.21-12.05-7.3-2.49-.78-5.12-1.05-7.72-.78-1.6.17-3.21.26-4.82.26-14.37,0-20.61-7.44-22.91-11.41-1.26-2.09-.72-4.78,1.24-6.23,2.09-1.46,4.96-.95,6.42,1.13.08.12.16.25.24.37,1.39,2.47,4.48,5.79,11.16,6.71,1.92.27,3.71-1.01,4.07-2.91v-.1c1.08-5.55-1.21-11.21-5.85-14.44-3.02-2.04-6.46-3.36-10.07-3.88-19.65-3.31-28.88,12.09-28.88,12.09-5.23,7.99-5.59,15.53-3.99,21.83,4.09,16.11,21.32,25.02,37.12,19.83,5.47-1.84,10.68-4.4,15.47-7.62,6.41-4.27,13.9-4.46,18.74-3.97,1.19.13,2.26-.72,2.39-1.91.07-.61-.13-1.22-.54-1.68Z" fill="#fff"/>
      <path d="M342.62,55.89c3.43-4.32,8.01-6.82,11.46-8.2,2.43-.97,5.03-1.44,7.64-1.37,1.61.05,3.22.01,4.82-.11,14.33-1.1,19.96-9,21.97-13.13,1.1-2.18.35-4.84-1.71-6.14-2.19-1.3-5.02-.58-6.32,1.61-.08.13-.15.27-.22.41-1.19,2.57-4.02,6.12-10.61,7.54-1.9.43-3.79-.71-4.3-2.59l-.03-.09c-1.5-5.45.35-11.27,4.73-14.84,2.86-2.26,6.2-3.85,9.76-4.65,19.38-4.77,29.76,9.85,29.76,9.85,5.83,7.57,6.76,15.06,5.64,21.46-2.84,16.38-19.34,26.58-35.49,22.63-5.6-1.42-10.98-3.58-16.01-6.42-6.72-3.77-14.2-3.39-18.98-2.52-1.17.23-2.31-.53-2.53-1.71-.12-.62.03-1.25.42-1.75Z" fill="#fff"/>
      <path d="M344.77,2.8c-2.36-.39-4.75-.49-7.13-.28-5.9.23-11.68,1.77-16.91,4.52-.58.31-1.17.6-1.77.89-.83.34-1.23,1.29-.89,2.13.21.51.66.88,1.2.98,1.9.39,3.83.59,5.77.59,2.5,0,4.56,1.94,4.71,4.44.11,2.54-1.87,4.69-4.41,4.8-.06,0-.13,0-.19,0-13.04,0-21.37-6.16-25.84-10.89-3.54-3.8-9.11-4.92-13.85-2.79-.21.1-.44.2-.64.32-5.68,3.02-8.5,9.5-7.5,15.86.82,5.24,3.99,11.66,13.53,15.8,4.56,1.91,8.68,4.74,12.12,8.3,3.77,3.99,6.84,8.58,9.09,13.58.41.94,1.5,1.36,2.44.95.5-.22.88-.65,1.03-1.17.73-2.54,1.47-4.8,2.76-6.82.73-1.12,2.22-1.43,3.34-.7.37.24.67.58.86.98l.06.12c.53,1.11,1.85,1.57,2.96,1.05.47-.22.84-.6,1.06-1.07,1.99-4.36,6.46-10.5,16.37-14.2,10.36-3.86,13.58-13.03,14.52-19.39,1.25-8.48-4.26-16.5-12.68-17.99Z" fill="#fff"/>
    </g>
  </g>
</svg>