<?xml version="1.0" encoding="UTF-8"?>
<svg id="Capa_2" data-name="Capa 2" xmlns="http://www.w3.org/2000/svg" viewBox="0 0 413.2 461.89">
  <g id="Capa_1-2" data-name="Capa 1">
    <path d="M229.46,199.65C217.32,152.22,179.25,49.07,71.42,1.95c-16.25-7.1-34.26,6.13-32.27,23.75,2.21,19.6,1.1,47.24-9.32,84.28-3.18,11.14-7.02,22.09-11.51,32.77-13.3,32-53,151.21,53.57,232.15,10.58,8.04,17.7,19.79,19.94,32.89l6.54,38.1c1.58,9.24,9.58,15.99,18.95,16h0c10.62.03,19.25-8.56,19.28-19.18,0-.02,0-.05,0-.07v-6.69c0-8.92-.37-17.83-1.11-26.72-9.89-117.28-36.89-231.16-37.19-232.56-1.3-5.46,2.07-10.95,7.54-12.26s10.95,2.07,12.26,7.54c.3,1.26,22.14,93.49,33.91,198.09.58,5.25,5.3,9.04,10.56,8.47,1.81-.2,3.52-.91,4.94-2.05,24.24-19.54,55.38-53.76,64.83-105.26,4.22-23.78,3.25-48.19-2.87-71.55Z" fill="#fff"/>
    <path d="M187.31,461.87c-7.4.03-13.61-5.56-14.35-12.92-1.37-14.81,3.13-40.27,39.75-65.25,50.91-34.74,61.33-87.85,60-116.47-.4-7.13,2.31-14.09,7.43-19.07,9.25-8.88,27.46-19.93,60.29-18.92,11.53.42,22.94-2.46,32.9-8.29,3.04-1.79,5.89-3.89,8.5-6.26,5.02-4.52,12.75-4.12,17.27.9,1.01,1.12,1.81,2.43,2.35,3.84,3.96,10.38,7.02,21.09,9.14,32,15.46,80.21-39.42,158-120.32,169.32-10.95,1.68-22.11,1.5-33-.54-6.6-1.44-13.41-1.58-20.06-.41-12.35,2.35-29.08,9.72-36.11,31.82-1.87,6.07-7.46,10.22-13.81,10.27l.02-.02Z" fill="#fff"/>
  </g>
</svg>