<?xml version="1.0" encoding="UTF-8"?>
<svg id="Capa_2" data-name="Capa 2" xmlns="http://www.w3.org/2000/svg" viewBox="0 0 455.79 450.85">
  <g id="Capa_1-2" data-name="Capa 1">
    <path d="M217.19,283.42v-84.2c0-2.42-1.27-4.66-3.35-5.89l-33-19.67c-1.26-.76-2.89-.35-3.65.9-.41.67-.49,1.49-.24,2.24,9.95,29.08,25.43,74.54,36.57,107.25.32.99,1.37,1.53,2.36,1.22.8-.26,1.33-1.01,1.31-1.85Z" fill="#fff"/>
    <path d="M274.11,171.21l-33.93,21.86c-1.96,1.26-3.14,3.44-3.14,5.77v83.5c-.02,1.04.81,1.9,1.84,1.92.83.02,1.57-.51,1.83-1.31,11.44-33.57,27.46-80,37.37-108.63.48-1.4-.27-2.91-1.66-3.39-.77-.26-1.62-.16-2.31.28Z" fill="#fff"/>
    <path d="M231.3,175.18l48.11-31c2.85-1.84,4.03-5.42,2.81-8.59L231.38,2.93c-.91-2.36-3.55-3.53-5.91-2.62-1.21.46-2.16,1.42-2.62,2.62l-51.71,134.92c-1.25,3.25.01,6.93,3,8.73l48.26,28.75c2.75,1.65,6.2,1.59,8.9-.15Z" fill="#fff"/>
    <path d="M207.66,438.63c-15.35-2.14-30.57-4.31-45.65-7l-4.94-.91c-5.3-.99-9.27-5.42-9.67-10.79l-3.58-47.62c-.09-1.6-1.16-2.98-2.7-3.45-1.95-.55-3.98.57-4.56,2.52l-12.95,43.81c-1.29,4.4-5.85,6.98-10.29,5.81h-.08c-15.92-4.3-31.59-9.31-46.11-15.85-7.09-3.13-13.92-6.83-20.41-11.06-1.52-1.06-3-2.12-4.47-3.21s-2.84-2.22-4-3.42c-2.4-2.13-4.54-4.54-6.36-7.18-.36-.6-.84-1.2-1.14-1.8s-.58-1.18-.9-1.76-.4-1.16-.63-1.73c-.12-.27-.21-.56-.24-.85l-.19-.83c-.44-2.22-.36-4.51.23-6.7.8-2.66,2.06-5.16,3.72-7.38,2.02-2.71,4.32-5.21,6.85-7.46,5.76-5.01,12.06-9.37,18.77-13,7.07-3.91,14.36-7.42,21.82-10.52,15.41-6.32,31.18-11.76,47.21-16.28,8.1-2.32,16.27-4.54,24.52-6.65l5.8-1.44c1.46-.36,2.35-1.84,1.99-3.29-.3-1.21-1.39-2.06-2.64-2.07-10.63,0-21.29.6-31.93,1.65-2.81.28-5.63.61-8.45,1-4.65.6-9.36-.64-13.1-3.47-5.14-3.9-10.11-10.24-12.69-20.52-1-3.94-7.37-2.38-7.7,1.66-.53,7.49-2.02,14.89-4.44,22-1.99,5.34-6.29,9.49-11.7,11.3-5.84,2-13.76,4.81-18.58,7h-.12c-5.81,2.67-12.71.76-16.32-4.52-9.3-13.92-12.84-35.21-14.08-46-.36-3.6-3.22-6.43-6.82-6.75-4.02-.25-7.49,2.8-7.75,6.83,0,.15-.01.3-.01.45v99.26l-.15,2.36.12,2.36c.05,1.57.23,3.13.54,4.67l.46,2.29c.12.79.3,1.57.55,2.33.48,1.43,1,2.89,1.51,4.28s1.25,2.65,1.9,4,1.44,2.43,2.18,3.65c2.9,4.46,6.37,8.51,10.33,12.06,1.84,1.79,3.79,3.25,5.71,4.83s3.91,2.87,5.89,4.24c7.77,5.08,15.99,9.43,24.56,13,8.26,3.48,16.72,6.49,25.32,9,8.53,2.44,17.1,4.52,25.7,6.25,17.13,3.31,34.47,5.45,51.9,6.4,15.8.95,31.63.95,47.43,0,2.51-.17,4.47-2.22,4.54-4.73l.05-1.8c.07-2.5-1.77-4.65-4.25-4.97Z" fill="#fff"/>
    <path d="M455.79,269.21c0-4.03-3.27-7.3-7.31-7.29-.15,0-.3,0-.45.01-3.6.32-6.46,3.15-6.82,6.75-1.27,11-4.93,33-14.68,46.88-3.48,4.91-10.02,6.54-15.4,3.84h0c-8-3.58-16.53-5.32-24.22-9-13.69-6.47-9.95-22.13-11-32.22-.19-2.17-2.1-3.77-4.27-3.58-1.66.15-3.05,1.32-3.47,2.94-1.32,5.5-3.84,10.64-7.36,15.06-5.32,6.27-13.44,9.44-21.6,8.42l-1.73-.19c-8.29-.85-16.59-1.41-24.89-1.62-1.9-.02-3.46,1.5-3.48,3.4-.02,1.57,1.03,2.95,2.54,3.36,7.88,2.16,15.71,4.37,23.46,6.7,15.33,4.55,30.41,9.92,45.16,16.1,7.14,3.04,14.1,6.46,20.86,10.27,6.43,3.51,12.46,7.7,18,12.49,1.34,1.12,2.48,2.33,3.66,3.5,1.06,1.16,2.06,2.37,3,3.64,1.68,2.16,3.01,4.56,3.95,7.13.72,2.08.93,4.3.61,6.47-.36,2.33-1.16,4.57-2.37,6.6-2.71,4.63-7.6,9.35-13.26,13.5-6.01,4.27-12.39,7.99-19.06,11.14-6.96,3.33-14.09,6.31-21.35,8.92-7.34,2.67-14.84,5.11-22.44,7.34h-.1c-5.63,1.61-11.5-1.62-13.15-7.24l-12.11-41.01c-.38-1.39-1.5-2.45-2.91-2.75-2.01-.38-3.95.95-4.33,2.97-.02.13-.04.27-.05.4l-3.56,47.33c-.42,5.74-4.6,10.5-10.24,11.66h-.11c-14.33,2.95-28.82,5.4-43.44,7.9-2.12.32-3.8,1.95-4.18,4.06-.43,2.65,1.37,5.16,4.03,5.59.16.03.31.04.47.05,15.14.86,30.31.77,45.44-.27,4.16-.27,8.32-.6,12.47-1,4.16-.37,8.3-.92,12.45-1.45,8.3-1.13,16.58-2.55,24.84-4.26,16.48-3.61,32.91-8.23,48.89-15.41,8.24-3.59,16.09-8.01,23.43-13.2,1.88-1.38,3.76-2.75,5.58-4.33s3.63-3.19,5.4-4.9c.9-.81,1.71-1.84,2.56-2.76.87-.96,1.69-1.96,2.46-3l2.34-3.16,2.12-3.49c2.88-5.07,4.72-10.66,5.4-16.45.24-2.23.28-4.47.11-6.71l.11.11v-99.24Z" fill="#fff"/>
    <path d="M294.59,397.92c0-2.86-2.31-5.17-5.16-5.18-.3,0-.59.02-.89.08-8.48,1.48-17.08,2.52-25.71,3.2-11.07.95-22.21,1.25-33.34,1.1-20.08-.24-40.08-2.44-59.73-6.56-2.58-.55-5.11,1.09-5.66,3.66-.07.33-.11.67-.11,1.01v13.6c0,2.31,1.64,4.29,3.91,4.7,20.34,3.48,40.96,5.04,61.59,4.65,11.8-.22,23.59-.92,35.34-2.3,8.6-1.02,17.16-2.45,25.69-4.28,2.38-.52,4.08-2.63,4.07-5.07v-8.61Z" fill="#fff"/>
    <path d="M356.19,353.47c-1.9-3.05-4.24-5.81-6.95-8.17-4.9-4.09-10.36-7.44-16.23-9.94-11.2-4.93-22.7-7.81-34.21-10-5.75-1.11-11.53-1.93-17.3-2.67s-11.55-1.31-17.32-1.79c-11.55-1-23.12-1.46-34.69-1.64s-23.16,0-34.8.56c-5.81.28-11.65.58-17.49,1.17s-11.7,1.16-17.55,2.08c-11.73,1.84-23.49,4.44-35.15,9.33-6.21,2.54-12,6.02-17.17,10.31-3.01,2.59-5.61,5.62-7.69,9-2.49,4.06-3.86,8.7-4,13.46-.01,4.79,1.21,9.51,3.56,13.69,1.99,3.51,4.48,6.7,7.41,9.48,5.05,4.62,10.74,8.5,16.9,11.5,5.18,2.56,10.52,4.78,16,6.62v-24.93c-1.93-.8-3.83-1.63-5.67-2.51-4.22-1.92-8.16-4.4-11.72-7.37-1.29-1.11-2.43-2.39-3.39-3.8-.55-.8-.89-1.73-1-2.69-.08-1.01.15-2.03.65-2.91.83-1.57,1.88-3.02,3.12-4.29,3.42-3.34,7.27-6.22,11.45-8.54,4.61-2.67,9.39-5.03,14.32-7.06,5-2.11,10.22-4,15.52-5.71,21.6-6.76,44.07-10.31,66.7-10.53,22.69-.43,45.32,2.34,67.23,8.24,10.78,3.08,21.37,6.91,30.78,12.1,4.52,2.38,8.69,5.38,12.39,8.9,1.53,1.51,2.83,3.24,3.86,5.12.79,1.43,1.17,3.05,1.11,4.68-.12,1.59-.66,3.12-1.55,4.44-1.14,1.73-2.52,3.29-4.1,4.63-3.85,3.15-8.11,5.76-12.66,7.75-1.47.66-3,1.29-4.48,1.9v18.41c4.05-1.6,8.02-3.41,11.89-5.41,5.83-2.94,11.22-6.69,16-11.13,2.65-2.54,4.9-5.45,6.7-8.65,2.03-3.65,3.09-7.76,3.06-11.94-.14-4.14-1.35-8.17-3.53-11.69Z" fill="#fff"/>
    <ellipse cx="9.68" cy="213.85" rx="9.68" ry="13.66" fill="#fff"/>
    <ellipse cx="446.1" cy="170.78" rx="9.68" ry="13.66" fill="#fff"/>
    <path d="M139.89,196.5l11.3,19.35c1.75,3.02,2.31,6.59,1.57,10l-7.78,35.49c-.3,1.38-1.66,2.26-3.04,1.96-.78-.17-1.44-.69-1.78-1.41l-14.9-31.47c-1.74-3.74-1.74-8.06,0-11.8l10.1-21.87c.59-1.29,2.1-1.86,3.39-1.27.48.22.87.57,1.14,1.02Z" fill="#fff"/>
    <path d="M325,193.1l8.88,22.2c1.39,3.46,1.42,7.32.1,10.81l-13.78,36.24c-.54,1.41-2.12,2.12-3.54,1.58-.79-.3-1.4-.95-1.64-1.76l-10.74-35.59c-1.28-4.21-.62-8.78,1.79-12.46l14.1-21.5c.82-1.27,2.51-1.63,3.78-.81.48.31.85.76,1.05,1.29Z" fill="#fff"/>
    <path d="M98.83,67.17c3.23,10.86,10.2,26.87,24.52,36,1.07.78,1.32,2.28.54,3.35-.1.13-.21.26-.33.37-5.54,3.9-17,14.37-18.9,35.18-.19,2.09-2.45,2.37-3.14.4-3.83-10.82-11.63-27.05-25.17-33.05-1.14-.62-1.56-2.06-.94-3.2.15-.27.34-.5.58-.7,6.29-3.92,17-14,19.65-38.15.25-2.09,2.57-2.27,3.19-.2Z" fill="#fff"/>
    <path d="M364.48,106.35c-3.28,10.6-10.13,26-23.53,33.94-1.1.85-1.3,2.42-.45,3.52.05.06.1.12.15.18,5,4.4,15.17,15.89,16.32,36.9.11,2.11,2.18,2.59,2.87.68,3.83-10.53,11.44-26.15,24-30.89,1.35-.51,1.63-2.93.45-3.87-5.66-4.48-15.16-15.52-16.93-39.94-.12-2.16-2.25-2.54-2.88-.52Z" fill="#fff"/>
  </g>
</svg>