<?xml version="1.0" encoding="UTF-8"?>
<svg id="Capa_2" data-name="Capa 2" xmlns="http://www.w3.org/2000/svg" viewBox="0 0 464.18 456.55">
  <g id="Capa_1-2" data-name="Capa 1">
    <path d="M366.17,401.11c-43.87-44.62-56.1-111.35-33.1-169.52,23.87-60.27,67.53-116.1,95.74-148.36,4.82-5.52-1.6-13.62-8.08-10.17,0,0-114.57,67.78-161.33,75.52-33.33,5.53-64.81-17.37-71.33-50.56-1.01-5.14-1.74-10.34-2.2-15.56-.29-3.02-2.97-5.23-5.99-4.95-1.78.17-3.37,1.2-4.25,2.76-14.06,25.16-33.15,39.52-49.68,47.69-32.36,16-71.44,7.77-93.87-20.5-10.69-13.43-18.25-29.07-23.34-42.19-.89-2.33-3.51-3.5-5.84-2.6C1.14,63.34-.01,65.04,0,66.92v153.17c.03,7.42,6.06,13.41,13.48,13.38.01,0,.02,0,.03,0h.13c120.86,0,220.88,89.14,237.93,205.26,1.45,10.21,10.18,17.81,20.5,17.82h166.26c5.86,0,7.16-8.19,1.6-10-32.03-10.72-55.95-27.28-73.76-45.44Z" fill="#fff"/>
    <ellipse cx="77.22" cy="65.74" rx="17.9" ry="24.14" transform="translate(-4.97 6.33) rotate(-4.55)" fill="#fff"/>
    <circle cx="256.51" cy="24.44" r="24.44" fill="#fff"/>
    <path d="M374.78,298.36c15.72-12.47,38.9-29,60.4-37.43,2.55-1,5.26-1.51,8-1.48h.36c23.88.43,28.67,34.58,5.73,41.22-3.8,1.07-7.7,1.77-11.64,2.08-2.48.21-5,.51-7.43.86l-50,7.22c-3.81.65-7.43-1.91-8.08-5.72-.44-2.57.59-5.17,2.66-6.75Z" fill="#fff"/>
    <path d="M88.16,304.27c5.57,21.6,17.92,56.14,42.33,72.36,4.87,3.24,5,10.92.06,14.1-13.62,8.83-33.28,27.12-42.32,62.19-.48,2.43-2.84,4.02-5.27,3.54-1.79-.35-3.18-1.75-3.54-3.54-5.87-21.89-18.07-53.45-41.63-67.51-3.6-2.3-4.66-7.08-2.37-10.69.34-.53.74-1.02,1.2-1.45,12.62-11.44,35-35.56,44.13-69.05.43-2.04,2.43-3.35,4.47-2.93,1.49.31,2.65,1.48,2.94,2.98Z" fill="#fff"/>
  </g>
</svg>