<?xml version="1.0" encoding="UTF-8"?>
<svg id="Capa_2" data-name="Capa 2" xmlns="http://www.w3.org/2000/svg" viewBox="0 0 474.17 433.26">
  <g id="Capa_1-2" data-name="Capa 1">
    <path d="M142.37,356.13c-51.39-31.82-62.81-80.76-62.81-80.76-6.16-27.34-.69-48.85,6.8-64,2.45-4.89.47-10.84-4.42-13.28-1.37-.69-2.89-1.05-4.43-1.05H12c-6.62.03-11.97,5.38-12,12v210c0,6.65,5.4,12.04,12.05,12.05h119c6.58.01,12.99-2.11,18.27-6.05,7.19-5.39,12.53-11.77,14.35-19.24,8.07-33.36-21.3-49.67-21.3-49.67Z" fill="#fff"/>
    <path d="M462.12,197.09h-103.57c-5.35,0-10.28-2.92-12.85-7.61-1.21-2.24-2.26-4.56-3.15-6.94-2.76-7.53-4.15-15.48-4.1-23.5v-31.24c.08-5.82-4.23-10.77-10-11.48-6.04-.69-11.49,3.64-12.18,9.67,0,.02,0,.04,0,.07-.69,6.92-3.7,15-14,15-8.46,0-11.63-9.47-12.78-15.18-.39-2.17-2.11-3.85-4.29-4.19-2.73-.38-5.26,1.53-5.64,4.26-.03.24-.05.49-.05.74v4c-.07,11.75,6.36,22.59,16.7,28.17l1.25.68c9.44,5.33,14.19,16.28,11.65,26.82-1.66,6.43-7.49,10.89-14.13,10.8h-52.91c-12.76,0-28.45,2-38.87,9.83-11.11,8.4-14.73,19-15,30.66-.42,19.07,5,29.44,15,38.9,7,6.61,15.55,11.19,24.35,15.1,95,42.11,92.78,96.82,108.69,132.76,1.83,4.15,5.94,6.84,10.48,6.84h115.41c6.65,0,12.04-5.4,12.05-12.05v-210c.03-6.65-5.33-12.08-11.99-12.11-.02,0-.04,0-.06,0Z" fill="#fff"/>
    <path d="M308.19,0s-39.05,2.23-42.4,45.29c0,0-26,3.51-32.62,30.09-2.74,11.19,4.11,22.48,15.3,25.22,1.63.4,3.3.6,4.98.6h115.21c11.54-.02,20.87-9.39,20.85-20.93,0-3.03-.67-6.03-1.95-8.78-4.87-10.56-13.8-21.09-30.08-26.2,0,0,2.05-45.29-49.29-45.29Z" fill="#fff"/>
    <path d="M192.06,372.77c-5.46,1.76-8.47,7.61-6.72,13.07,3.74,11.97,5.6,24.46,5.52,37,0,5.74,4.65,10.39,10.39,10.39,5.74,0,10.39-4.65,10.39-10.39h0c.09-14.72-2.11-29.35-6.51-43.38-1.77-5.45-7.61-8.45-13.07-6.7Z" fill="#fff"/>
    <path d="M189.53,347.01c-.51-.78-1-1.56-1.55-2.33-3.24-4.74-9.71-5.95-14.45-2.71s-5.95,9.71-2.71,14.45h0c.45.65.89,1.31,1.33,2,3.26,4.73,9.73,5.92,14.45,2.66,4.57-3.15,5.86-9.33,2.93-14.04v-.02Z" fill="#fff"/>
    <path d="M118.06,207.38c-5.17-2.5-11.38-.34-13.89,4.82-.94,1.93-22.66,47.92,10.51,86.2,5.33,6.15,12.17,12.31,19.41,18.82,4.14,3.73,8.42,7.58,12.73,11.69,4.29,3.81,10.86,3.42,14.67-.87,3.61-4.07,3.48-10.23-.31-14.13-4.54-4.33-8.93-8.29-13.19-12.11-7-6.34-13.11-11.81-17.6-17-24.06-27.76-8.23-62-7.5-63.55,2.49-5.16.33-11.37-4.83-13.87Z" fill="#fff"/>
    <path d="M199.89,298.37c-43.86-28.92-39.29-52.13-39.24-52.36-.02.11-.04.21-.08.31l-20-5.8c-1.09,3.75-9,37.72,47.84,75.2,37.47,24.7,55.69,59.75,55.69,107.15,0,5.74,4.65,10.39,10.39,10.39,5.74,0,10.39-4.65,10.39-10.39h0c.04-54.17-21.82-96.06-64.99-124.51Z" fill="#fff"/>
    <path d="M279.24,354.52c-4.98,2.85-6.7,9.2-3.84,14.18,0,0,0,0,0,0,.12.21,12.5,22.15,12.5,54.16,0,5.74,4.65,10.39,10.39,10.39,5.74,0,10.39-4.65,10.39-10.39h0c0-37.5-14.64-63.44-15.26-64.52-2.85-4.97-9.19-6.7-14.17-3.85h-.01Z" fill="#fff"/>
  </g>
</svg>