<?xml version="1.0" encoding="UTF-8"?>
<svg id="Capa_2" data-name="Capa 2" xmlns="http://www.w3.org/2000/svg" viewBox="0 0 452.97 452.92">
  <g id="Capa_1-2" data-name="Capa 1">
    <path d="M238.21,120.19c-2.08,2.36-5.08,3.7-8.23,3.65h-1.91c-20.44-.01-40.35,6.44-56.9,18.44-2.07,1.52-2.52,4.43-1.01,6.5.02.03.05.06.07.09,2.72,3.55,6.2,8,10,12.57,1.51,1.81,4.15,2.17,6.08.81,7.64-5.38,16.26-9.24,25.37-11.34.21.44,0-.07.18.37-7.47,6.7,2.48,17.71,9,11.35,51.27-50.17,96.63-79.12,124.41-94.17,13.45-7.28,29.12,4.78,25.82,19.88-5.71,26.11-18.14,50.05-29.4,67.73-3.58,5.62,3.51,11.9,8.5,7.54,33.49-29.34,57.86-67,74.84-100.64,18.17-36-21.11-74-55.9-54.19-50.28,28.68-96.11,72.51-130.92,111.41Z" fill="#fff"/>
    <path d="M325.19,126.86c-.5.98-.11,2.19.87,2.69.72.37,1.59.26,2.21-.26,6.05-6.1,13.91-16.48,19.38-32.66,1.23-3.67-.75-7.63-4.42-8.86-1.53-.51-3.19-.48-4.69.09-10.17,4.1-25.78,12.69-44,30.53-3.37,3.32-3.41,8.74-.09,12.11.38.39.8.74,1.24,1.04l.2.13c3.44,2.37,8.11,1.78,10.85-1.37,5.86-6.71,12.21-12.98,19-18.75,1.49-1.2,3.68-.97,4.88.52.86,1.07,1.02,2.54.39,3.76-1.52,3.11-3.43,6.8-5.82,11.03Z" fill="#fff"/>
    <path d="M234.49,100.46c7.3-3.48,12.83-10.42,18.33-16.2,5.93-6.24,11.98-12.38,18.13-18.41,12.3-12.07,24.99-23.71,38.06-34.92,7-6-3.14-16.27-10.12-10.25-13.37,11.51-26.32,23.51-38.85,36-6.1,6.08-12.1,12.27-18,18.56-5.56,5.95-11.63,12.12-14.35,20-1.46,4.22,3.45,6.83,6.8,5.22Z" fill="#fff"/>
    <path d="M322.79,15.34c.61.52,1.24,1.01,1.89,1.46.69.39,1.43.69,2.19.91,2.19.56,4.51.25,6.47-.86l1.7-1.33c.8-.75,1.4-1.69,1.74-2.74.78-1.74.93-3.71.42-5.55l-.12-.3c-.12-.95-.44-1.86-.95-2.67-.79-1.24-1.83-2.29-3.06-3.1-.95-.61-2.04-.96-3.17-1-1.13-.26-2.3-.21-3.4.15-1.43.47-2.74,1.24-3.84,2.26-2.86,2.84-3.45,7.25-1.44,10.74.46.73.98,1.41,1.57,2.03Z" fill="#fff"/>
    <path d="M416.49,111.61c-4.55,6.67-9.34,13.14-14.35,19.41-4.88,6.11-10,12-15.17,17.83-4.72,5.38-11.29,10.65-13.32,17.74-.66,2.47.81,5.01,3.29,5.66.76.2,1.55.21,2.31.02,7.07-1.81,12.24-8.64,17.24-13.81,5.94-6.21,11.44-12.92,16.76-19.68,4.94-6.27,9.69-12.69,14.24-19.24,4.13-6,11.24-13.42,11-21.06-.16-4.43-4.39-6.44-8.12-4.72-6.46,2.95-9.99,12.16-13.88,17.85Z" fill="#fff"/>
    <path d="M422.32,146.66c-10.17,13.16-20.82,25.86-31.74,38.38-5.17,5.93-10.42,11.78-15.77,17.55-4.83,5.19-11.61,10.59-12,18.11,0,2.31,1.85,4.19,4.16,4.22,7.07-.31,12.13-6.58,16.83-11.39,5.79-5.93,11.5-11.95,17.07-18.09,11.15-12.29,21.64-25.2,31.79-38.33,5.68-7.4-4.56-17.92-10.34-10.45Z" fill="#fff"/>
    <path d="M266.89,258.8c3-3.01,3-7.88,0-10.89-1.43-1.43-3.37-2.24-5.39-2.25-2.01.03-3.93.84-5.36,2.26-2.97,3.02-2.97,7.86,0,10.88,2.89,2.96,7.64,3.02,10.61.12.04-.04.08-.08.12-.12h.03Z" fill="#fff"/>
    <path d="M93.91,42.65c6.61,6.1,14.43,10.87,21.66,16.17,7.72,5.64,15.24,11.58,22.92,17.32,7.21,5.39,14.41,11.21,22.06,15.9,7.12,4.37,14,11.68,21.92,14.27,1.13.29,2.28-.39,2.57-1.52.09-.35.09-.72,0-1.07-2.85-7.81-10.43-13.75-15.31-20.31-5.56-7.48-12.88-14.06-19.89-20.12s-14.09-11.42-21.46-16.73c-8-5.74-16.13-12.19-25.14-16.16-7.35-3.24-16.35,5.76-9.32,12.25Z" fill="#fff"/>
    <path d="M151.49,40.46c5.07,5,10.21,9.87,15.16,15,8.88,9.15,18.35,20.13,29.4,26.55,2.27,1.32,5.44-.88,4.58-3.57-3.93-12.3-13.77-23.65-22.45-32.88-4.57-4.86-9.39-9.56-14.3-14.06-4.49-4.12-9.91-10.45-16.43-9.87-2.62.24-5.23,2.17-5.07,5.14.35,6.22,4.9,9.53,9.11,13.69Z" fill="#fff"/>
    <path d="M21.75,77.04c8.76,18,20.49,34.51,32.9,50.05,4.28,5.37,30.66,41.85,38.07,30.82,3.16-4.71-1.31-10.21-3.94-14.09-4.18-6.2-9-11.87-13.67-17.68-9.49-11.58-18.34-23.67-26.51-36.21-7.53-11.8-14.43-24.22-18.59-37.69-2.09-6.77-4.1-14.45-3.87-21.61,0-.47.06-1,.09-1.46,1,.9,3,1.8,3.77,2.55,1.29,1.24,2.41,2.64,3.35,4.17,6.11,9.51,21.31.53,15-8.92-4.86-7.51-12.31-14.6-21.38-16.25-8.26-1.5-14.83,4-17,11.85-2.37,8.57-.3,18.76,1.69,27.22,2.35,9.43,5.74,18.57,10.09,27.25Z" fill="#fff"/>
    <path d="M107.62,166c-1.82.02-3.56.73-4.87,2-2.72,2.74-2.71,7.18.04,9.9,1.29,1.28,3.02,2.01,4.83,2.03,1.82-.02,3.57-.73,4.88-2,1.27-1.33,1.99-3.11,2-4.95.04-3.83-3.03-6.96-6.86-7-.01,0-.03,0-.04,0l.02.02Z" fill="#fff"/>
    <path d="M41.61,168.13c8.07,9.13,16.65,17.78,25.71,25.92,4.65,4.29,9.33,8.61,14.28,12.55,4.6,3.66,9.36,8.29,15,10,4.77,1.47,7.75-3.87,6-7.84-2.43-5.38-7.83-9.9-11.78-14.23s-7.8-8.28-11.59-12.53c-7.87-8.81-15.23-18.06-22.81-27.13s-14.7-18.34-21.73-27.76c-3.42-4.57-6.75-9.2-10-13.89-3.61-5.19-6.94-11-12.41-14.35-4.84-2.94-13,.74-12.23,7.11,1.4,12.22,11.69,23.72,18.67,33.42,7.14,9.94,14.9,19.47,22.89,28.73Z" fill="#fff"/>
    <path d="M98.84,242.31c-11.49,3.3-19.65,12.52-28.11,20.78-9.15,8.91-17.95,18.16-26.42,27.75-8.47,9.62-16.82,19.28-24.73,29.34-6.09,7.76-17.85,18.28-15.7,28.94.5,1.79,2.14,3.02,4,3,6.11-.4,9.4-4.35,13.11-8.91s7.5-9.17,11.29-13.75c7.87-9.54,15.79-19,24-28.27s16.5-18.43,24.89-27.5c8-8.68,17.14-16.52,21.11-27.87.73-2.09-1.5-4.06-3.44-3.51Z" fill="#fff"/>
    <path d="M106.94,279.07c-2.96.04-5.67,1.62-7.17,4.17l-.13.21-.84,2c-.34,1.08-.39,2.23-.14,3.33.19,1.82.99,3.51,2.27,4.81,1.04.97,2.28,1.71,3.64,2.15,2.15.49,4.41.2,6.36-.84l.19-.15c1.24-.72,2.28-1.76,3-3,.75-1.29,1.14-2.75,1.13-4.24-.03-2.22-.9-4.35-2.43-5.95-1.56-1.56-3.67-2.46-5.88-2.49Z" fill="#fff"/>
    <path d="M166.75,347.76c15.57-18.95,32.25-38.75,43.87-60.41,2.7-5-.47-9.75-4.57-11.23-2.63-1.63-6.08-.92-7.86,1.62-2.59,3.19-5.23,6.33-7.88,9.47-19.89-12.17-32.93-32.95-35.24-56.15l1.1,1c5.73,5.22,11.71,10.19,17.78,15s12.67,10.58,20,13c4.33,1.43,9.29-4.33,6.31-8.33-4.34-5.84-10.78-10.21-16.37-14.81-6-4.93-11.77-10.07-17.48-15.32-2.12-1.95-4.23-3.9-6.32-5.86-2.95-2.78-4.16-6.94-3.16-10.87,1.02-4.03,2.37-7.97,4.05-11.78,17.84,17.81,37.13,33.92,59.57,45.8,7.14,3.78,13.07-6.5,6.3-10.93-17.6-11.51-32.61-27-47.09-42.09-13.42-14-26.53-28.28-39.16-43-11.81-13.77-23.38-27.75-34.44-42.16l-.24-.31c0-.16-.05-.32-.05-.48,0-3,.9-2,3.73-1.59l1.34.31,1.15.41c4.15,2.21,8.07,4.82,12,7.41,8,5.27,16.11,10.09,25.15,13.19,4.91,1.68,10.19-3.71,8.55-8.68-1.3-3.93-3.81-7.41-7-9l-.19-.17c-13.33-9.84-27-19.17-41-28-6.62-4.19-13.28-8.33-20-12.33s-14.08-9.41-21.85-9.75h-.32c-5.14-1.79-11.94,2.17-9.81,8.74,3.28,9.83,10.33,18.33,16,26.79,6,8.91,12.29,17.62,18.78,26.17,12.07,15.88,24.53,31.49,37.72,46.44,2.93,3.33,5.88,6.64,8.84,9.93,2.25,2.53,2.74,6.17,1.23,9.2-2,4.03-3.71,8.2-5.14,12.47-.56-.35-1.13-.7-1.72-1-3.87-2-9.81,1.42-8,6.27,1.42,3.6,3.45,6.92,6,9.83-.96,5.58-1.46,11.24-1.48,16.9-.09,33.21,16.35,64.29,43.85,82.91-21.85,24.29-45.11,47.27-69.67,68.83-7.65,6.72-16.12,14.31-26.39,16.28-6.67,1.27-15.51-.42-19.36-6.68-5.4-8.78,1.83-22.9,5.48-31.13,1.43-3.22,7.67-15.76,15.31-25.3,6.07-7.56-4-17.9-10.57-10.72-16.51,18-30.85,37.87-42.73,59.21-5.7,10.29-10.8,20.89-15.28,31.77-3.46,8.42-8.39,18.72-5.64,29.47,1.98,7.33,8.08,12.81,15.58,14h.1c11.35,1.87,23,.41,33.84-3.28,24.2-8.22,43.16-26.27,60.91-44.1,18.09-18.11,35.21-37.17,51.47-56.96Z" fill="#fff"/>
    <path d="M89.07,360.07c10.6,5,19.87-4.73,27-11.42l.12-.12c3.75-2.87,7.07-6.26,9.86-10.07,5.29-5.85,10.27-11.99,14.91-18.37,5.27-7.2-6.31-16.11-12.21-9.56-7.36,8.17-14.68,16.39-22.09,24.52l-1.08,1.21-.48.36c-2.42,1.71-5.23,2.8-8.17,3.16-2.69.24-5.19-.76-7.87-.13-10.86,2.53-8.28,16.52.01,20.42Z" fill="#fff"/>
    <path d="M141.01,401.9c-9,10.62-19.67,20.62-27.78,32-2.49,2.6-4.65,5.5-6.43,8.63-2.82,5.22,6.66,11.94,13.4,6.5,8-6.45,15.35-14.18,22.2-21.87,2.73-3.06,6.66-7.2,9.15-11.67.68-1.21,1.42-2.39,2.08-3.61,4.18-7.8-6.3-17.48-12.62-9.98Z" fill="#fff"/>
    <path d="M429.02,396.38c-20.19,1.33-39.67-6.24-57.66-14.83-17.04-8.28-33.2-18.24-48.25-29.74-14.87-11.41-29.02-23.73-42.37-36.89-6.78-6.56-13.57-13.12-20.24-19.8s-13.21-14.36-21.54-19.25c-6.4-3.76-13,3.61-9.79,9.92,2.8,5.45,6.34,10,2.37,14.75-5,6-10.43,11.5-15.6,17.38-5.63,6.39-11.29,12.76-17,19.11-11,12.32-22.72,24.37-32.79,37.51-6,7.83,3.28,17.95,10.94,11.1,13.93-12.46,26.17-27.2,38.72-40.9,3.72-4.06,7.36-8.19,11-12.35l.71-.81c4.58-5.26,10.8-8.83,17.66-10.12,1.38-.25,2.74-.52,4.09-.82,5.14-1.17,10.51.38,14.24,4.1,2.1,2.09,4.22,4.16,6.36,6.21,14.65,14.15,30.18,27.35,46.52,39.51,1.56,1.15,3.15,2.3,4.76,3.45,1.02.68,1.3,2.06.62,3.08-.57.86-1.65,1.21-2.62.85-6.55-2.25-12.97-4.86-19.22-7.83-6.03-2.89-11.84-6.21-17.4-9.92-5.05-3.39-10.25-8.27-16.19-9.72-2.67-.69-5.4.91-6.1,3.58-.22.85-.21,1.74.02,2.58,3.35,12.05,19.39,21,29.41,26.81,12.79,7.19,26.35,12.93,40.42,17.12,14.36,4.39,28.93,8.06,43.66,11,8.22,1.68,16,2.73,24.4,2.26,4.74-.26,26.83-.94,32.92-2,8.57-1.37,6.62-15.91-2.05-15.34Z" fill="#fff"/>
    <path d="M449.79,356.22c-1.39-5.11-3.68-9.92-6.78-14.21-7.33-10.62-15.6-20.71-23.79-30.64-8.42-10.22-17.08-20.24-26.21-29.82-8.73-9.17-18.11-21.26-29.35-27.19-7.29-3.84-16.05,4.07-11.57,11.73,5.79,9.89,15.81,17.74,23.54,26.11,7.45,8.07,14.81,16.24,21.94,24.59,1.72,2,3.43,4,5.12,6.07,8.8,10.92,7.45,22.6-5.21,18.07-6-3.48-20.31-11.84-29.79-18-11.83-7.63-23.42-15.63-34.78-24-5.62-4.14-11.21-9-17-13.5-3.43-2.74-4.39-7.55-2.27-11.39,8.41-15.53,12.77-32.92,12.66-50.58.1-34.32-17.44-66.29-46.44-84.65-2.88-1.78-6.62-1.22-8.84,1.33l-14.11,15.85h0l-15.29,17.16c-4.32,5.12,2.29,12.2,7.57,8.11l15.18-11.8c4.2-3.29,10.16-3.04,14.07.59,14.81,13.8,23.17,33.17,23.05,53.41.04,19.14-7.26,37.56-20.4,51.47-3.05,3.29-2.87,8.42.4,11.49l10.2,9.66c.85.84,1.72,1.66,2.61,2.47h0c4.34,3.89,9.12,7.37,13.56,10.8,8.1,6.28,16.34,12.37,24.72,18.27,17.55,12.36,35.64,23.88,54.27,34.56,8.3,4.75,16.86,9.03,25.64,12.8,7.6,3.26,16.19,7,24.47,6.56,8.65-.51,16.23-6.35,16-15.67-.12-3.45-1.21-6.8-3.17-9.65Z" fill="#fff"/>
    <path d="M361.25,426.16c-10.18-3.69-21-5.71-31.38-9.07s-20.73-6.84-30.72-11.15c-20.26-8.76-38.5-20.64-57.17-32.32-8.68-5.43-18.34,7.15-10.92,14.36,17.24,16.73,39.33,28.47,61.49,36.89,10.95,4.25,22.29,7.42,33.85,9.47,11.24,1.94,23.51,3.45,34.85,1.87,5.51-.75,4.24-8.53,0-10.05Z" fill="#fff"/>
  </g>
</svg>