<?xml version="1.0" encoding="UTF-8"?>
<svg id="Capa_2" data-name="Capa 2" xmlns="http://www.w3.org/2000/svg" viewBox="0 0 346.02 369.59">
  <g id="Capa_1-2" data-name="Capa 1">
    <g>
      <path d="M203.42,179.5l-20.3-17.8c-6.3-5.5-15.6-5.5-21.9,0l-20.3,17.8c-3.6,3.2-5.7,7.7-5.7,12.5v48.1c0,4.8,2.1,9.4,5.7,12.5l20.3,17.8c6.3,5.5,15.6,5.5,21.9,0l20.3-17.8c3.6-3.2,5.7-7.7,5.7-12.5v-48.1c0-4.8-2.1-9.4-5.7-12.5ZM192.12,237.4c0,.6-.3,1.1-.7,1.5l-18,15.7c-.7.6-1.8.6-2.6,0l-18-15.7c-.4-.4-.7-.9-.7-1.5v-42.6c0-.6.3-1.1.7-1.5l18-15.7c.7-.6,1.8-.6,2.6,0l18,15.7c.4.4.7.9.7,1.5v42.6Z" fill="#fff"/>
      <path d="M345.82,201.1v-2.1c-.2-56.6-27.5-107.2-69.6-139.3-3.1-2.4-7.1-3.1-10.9-2-13.7,4.1-27.9,6.2-42.2,6.1-5.3,0-9.8-3.9-10.6-9.1-.7-5.5,3.2-10.6,8.7-11.3h1.5c6.2,0,12.5-.4,18.6-1.3,3.8-.6,6.4-4.2,5.8-8,0-.6-.3-1.1-.5-1.7-4-9.2-9.8-23.1-9.8-23.1-2-4.7-6.5-7.8-11.6-7.9l-52.9-.7-52.9-.7c-5,0-9.6,2.9-11.6,7.5,0,0-5.8,13.7-9.7,22.9-1.5,3.7.2,7.9,3.9,9.4.5.2,1,.3,1.5.4,6,1.1,12.1,1.7,18.2,1.8,5.6.1,10.5,4.4,10.7,10s-4.1,10.2-9.6,10.5h-.6c-14.5-.3-28.9-2.7-42.7-7.3-3.7-1.2-7.7-.6-10.8,1.7C24.82,89.4-.78,141.1.02,195.7c0,1.8,0,3.5.2,5.3h97.3v22H2.62c13.9,80.9,84.2,144.2,168.5,146.5,87.6,2.8,161.9-61.5,173.4-146.5h-98.9v-22h100.4-.2v.1ZM172.82,90.1c7.2,0,13,5.8,13,13s-5.8,13-13,13-13-5.8-13-13,5.8-13,13-13h0ZM172.82,341.1c-7.2,0-13-5.8-13-13s5.8-13,13-13,13,5.8,13,13-5.8,13-13,13h0ZM228.22,248.3c0,4.3-1.9,8.4-5.1,11.2l-39.5,34.5c-6.2,5.4-15.5,5.4-21.7,0l-39.5-34.5c-3.2-2.8-5.1-6.9-5.1-11.2v-65.5c0-4.3,1.9-8.4,5.1-11.2l39.5-34.5c6.2-5.4,15.5-5.4,21.7,0l39.5,34.5c3.2,2.8,5.1,6.9,5.1,11.2v65.5Z" fill="#fff"/>
    </g>
  </g>
</svg>