<?xml version="1.0" encoding="UTF-8"?>
<svg id="Capa_2" data-name="Capa 2" xmlns="http://www.w3.org/2000/svg" viewBox="0 0 474.22 475.19">
  <g id="Capa_1-2" data-name="Capa 1">
    <path d="M457.87,220.75h-45.69c-5.49-59.14-40.47-111.5-93-139.21-3.37-1.76-7.52-.45-9.28,2.91-.04.08-.08.16-.12.24l-.07.14c-6.8,14.4-2.47,31.59,10.33,41.06,30.42,22.85,50.22,57.1,54.84,94.86h-28.5c-50.01,0-90.55-40.54-90.55-90.55h0V19.33C255.83,9.03,247.77.18,237.46,0c-10.33-.2-18.87,8.02-19.07,18.35,0,.12,0,.24,0,.36v43.54c-60.16,6.46-112.78,43.36-139.35,97.72-1.66,3.42-.23,7.53,3.19,9.19.08.04.17.08.25.12l.22.1c14.58,6.32,31.59,1.43,40.59-11.66,22.21-31.78,56.68-52.84,95.1-58.08v30.56c0,50.01-40.54,90.55-90.55,90.55H16.35c-9.03,0-16.35,7.32-16.35,16.35h0c0,9.03,7.32,16.35,16.35,16.36h45.7c5.72,59.96,41.61,112.87,95.21,140.35,3.39,1.72,7.53.36,9.25-3.03.04-.08.08-.17.12-.25h0c6.68-14.34,2.29-31.4-10.47-40.74-31.54-22.78-52.14-57.7-56.81-96.33h28.49c50.01,0,90.55,40.54,90.55,90.55v110.86c0,10.31,8.06,19.15,18.37,19.34,10.34.19,18.87-8.03,19.07-18.37,0-.12,0-.24,0-.35v-43.53c56.6-5.92,106.79-38.98,134.58-88.64,1.85-3.32.66-7.52-2.67-9.37-.07-.04-.15-.08-.22-.12l-.34-.17c-14.13-7.13-31.33-3.22-41,9.31-22.23,28.34-54.65,46.86-90.35,51.62v-30.58c0-50.01,40.54-90.55,90.55-90.55h111.49c9.03,0,16.35-7.33,16.35-16.36h0c0-9.03-7.32-16.35-16.35-16.35Z" fill="#fff"/>
    <path d="M43.28,472.53c.64,3.56,6.48,3.53,7.31,0,4.47-19,11.07-41.89,41.05-52.92,2.81-1,3.08-5.85.21-6.73-15-4.58-34.76-13.21-41.23-50.51-.64-3.67-6.53-3.63-7.37,0-7,30.19-24.25,44.41-41.24,50.51-2.81,1-2.61,5.74.21,6.73,26.94,9.51,37.6,33.89,41.06,52.92Z" fill="#fff"/>
    <path d="M430.96,3.88c-.64-3.67-6.53-3.62-7.37,0-7,30.19-24.24,44.41-41.24,50.52-2.81,1-2.61,5.73.22,6.73,26.93,9.5,37.6,33.88,41.05,52.91.64,3.57,6.48,3.53,7.31,0,4.47-19,11.07-41.88,41.05-52.91,2.81-1,3.08-5.85.21-6.73-14.96-4.59-34.76-13.22-41.23-50.52Z" fill="#fff"/>
  </g>
</svg>