<?xml version="1.0" encoding="UTF-8"?>
<svg id="Capa_2" data-name="Capa 2" xmlns="http://www.w3.org/2000/svg" viewBox="0 0 391.8 462.32">
  <g id="Capa_1-2" data-name="Capa 1">
    <path d="M208.95,376.58h7.47c1.43,0,2.64-1.07,2.82-2.49l22-178.55c.4-3.19-.27-6.42-1.89-9.19l-34.87-59.78c-1.92-3.3-6.15-4.41-9.45-2.49-1.03.6-1.89,1.46-2.49,2.49l-34.87,59.78c-1.62,2.77-2.29,6-1.89,9.19l22,178.55c.18,1.42,1.39,2.49,2.82,2.49h7.47c1.57,0,2.84-1.27,2.84-2.84v-178c-.06-4.2,3.2-7.71,7.4-7.95,4.21-.13,7.73,3.18,7.86,7.4,0,.08,0,.16,0,.23v178.32c0,1.55,1.23,2.81,2.78,2.84Z" fill="#fff"/>
    <path d="M344.76,233.55c-10.37,7.53-22.41,8.35-29,8.11-3.98-.08-7.85-1.26-11.19-3.42-9-6-9.35-16.31-7.5-24.89,1.79-7.72,5.77-14.77,11.46-20.29,26.74-26.78,27.7-61.8,24.64-84.35-.95-7-9.56-10-14.47-5-6.77,7-15.63,9.68-23.75,10.45-12.41,1.02-24.8-2.15-35.2-9-27.51-17.66-43.85-46.9-52.62-68-1.97-4.77-7.43-7.05-12.21-5.08-2.3.95-4.13,2.78-5.08,5.08-8.8,21.17-25.14,50.45-52.7,68.11-10.42,6.83-22.83,9.96-35.24,8.89-8-.78-16.67-3.45-23.37-10.22-3.3-3.41-8.74-3.49-12.15-.19-1.36,1.32-2.25,3.05-2.52,4.93-3.07,22.55-2.13,57.59,24.63,84.38,5.67,5.53,9.63,12.57,11.41,20.29,1.85,8.58,1.54,18.85-7.5,24.89-3.34,2.16-7.21,3.34-11.19,3.42-6.6.24-18.62-.58-29-8.08-4.22-3.07-10.14-2.14-13.22,2.08-1.55,2.13-2.14,4.81-1.63,7.39,4.64,24.23,17.44,53,51.3,61.89,7.56,1.9,14.78,4.94,21.43,9,12.29,7.83,22.8,18.16,30.84,30.32,2.12,2.99,6.25,3.69,9.24,1.58,1.97-1.39,3.02-3.74,2.76-6.14l-17.37-141.67c-.92-7.61.66-15.3,4.51-21.93l34.51-59.15c3.56-6.29,9.4-10.97,16.32-13.08,11.99-3.44,24.79,1.68,31.09,12.45l34.91,59.78c3.85,6.63,5.43,14.32,4.51,21.93l-17.44,141.63c-.4,3.64,2.22,6.92,5.86,7.32,2.39.26,4.74-.79,6.14-2.76,8.35-12.64,19.36-23.29,32.27-31.2,6.13-3.6,12.76-6.29,19.66-8,34.12-8.81,47-37.67,51.64-62,.97-5.13-2.4-10.08-7.53-11.06-2.53-.48-5.15.09-7.25,1.59Z" fill="#fff"/>
    <path d="M152.65,395.74v1.35c0,7.62,6.17,13.8,13.79,13.81h16.01l4,44.33c.29,4,3.62,7.1,7.63,7.09h8.66c4.01,0,7.34-3.09,7.63-7.09l4-44.33h16.05c7.62,0,13.8-6.18,13.8-13.8h0v-1.36c0-2.15-1.73-3.89-3.88-3.9,0,0-.01,0-.02,0h-83.77c-2.15,0-3.89,1.73-3.9,3.88,0,0,0,.01,0,.02Z" fill="#fff"/>
    <path d="M23.24,144.53l-11.22-7.54c-3.26-2.19-7.68-1.32-9.87,1.94-.7,1.05-1.12,2.26-1.19,3.52l-.9,14.33c-.69,10.96,4.5,21.46,13.61,27.59l12.46,8.37c3.26,2.19,7.68,1.32,9.87-1.94.8-1.2,1.22-2.61,1.2-4.06l-.3-17.11c-.18-10.1-5.28-19.47-13.66-25.1Z" fill="#fff"/>
    <path d="M281.99,59.68l9.91-13.91c5.88-8.21,7.37-18.78,4-28.3l-4.53-12.74c-1.31-3.7-5.37-5.63-9.07-4.32-1.19.42-2.25,1.16-3.06,2.13l-9.26,11c-7.07,8.4-9.16,19.92-5.48,30.27l5,14.14c1.32,3.7,5.39,5.63,9.09,4.31,1.37-.49,2.56-1.39,3.4-2.58Z" fill="#fff"/>
    <path d="M391.8,181.24c0-10.7-8.68-19.38-19.38-19.38s-19.38,8.68-19.38,19.38,8.68,19.38,19.38,19.38,19.38-8.68,19.38-19.38h0Z" fill="#fff"/>
    <path d="M111.79,31.33c0-8.62-6.99-15.61-15.61-15.61-8.62,0-15.61,6.99-15.61,15.61s6.99,15.61,15.61,15.61c8.62,0,15.6-6.97,15.61-15.59v-.02Z" fill="#fff"/>
  </g>
</svg>