<?xml version="1.0" encoding="UTF-8"?>
<svg id="Capa_2" data-name="Capa 2" xmlns="http://www.w3.org/2000/svg" viewBox="0 0 445.44 461.62">
  <g id="Capa_1-2" data-name="Capa 1">
    <path d="M212.18,92.93l34.58-45.83c9.22-12.22,6.79-29.59-5.43-38.81,0,0,0,0,0,0l-3.59-2.7c-12.2-9.22-29.57-6.79-38.78,5.41,0,0-.01.01-.02.02l-40.29,53.4c-2.5,3.28-1.86,7.97,1.42,10.47.95.72,2.05,1.21,3.23,1.41,12.19,2.08,23.71,7.07,33.56,14.54l4.77,3.6c3.3,2.5,8.01,1.85,10.51-1.45.01-.02.03-.04.04-.06Z" fill="#fff"/>
    <path d="M266.1,143.04c3.12,2.45,7.63,1.9,10.08-1.23.02-.02.03-.04.05-.06l33.45-44.33,1.35-1.79c9.21-12.21,6.78-29.58-5.43-38.79l-3.58-2.7c-12.2-9.23-29.57-6.83-38.8,5.36-.01.02-.02.03-.04.05l-34.8,46.12c-2.37,3.15-1.75,7.63,1.4,10,0,0,0,0,0,0l36.23,27.33.09.04Z" fill="#fff"/>
    <path d="M263.01,243.11c13.32,10.14,32.5,6.88,42.58-6.49l67.89-90c9.7-12.86,8.2-31.38-4.16-41.7-12.72-10.62-31.64-8.91-42.26,3.81-.3.36-.6.73-.88,1.11l-41.87,55.5c-1.94,2.5-3.03,5.55-3.13,8.71-.15,8.69-3.23,17.07-8.75,23.79-4.68,5.69-9.71,11.08-15.06,16.14-4.8,4.56-6.19,11.66-3.45,17.69,2.03,4.51,5.15,8.44,9.09,11.44Z" fill="#fff"/>
    <path d="M438.33,194.48c10.71-12.64,9.14-31.57-3.5-42.28-12.64-10.71-31.57-9.14-42.28,3.5-.73.86-1.41,1.77-2.04,2.7l-68.94,91.37c-9.19,13.79-5.46,32.41,8.32,41.6,12.66,8.44,29.64,6.06,39.5-5.53l68.94-91.36Z" fill="#fff"/>
    <path d="M249.92,442.52l43-57c23.57-31.24,17.35-75.67-13.89-99.24l-46.24-34.88c-1.71-1.26-3.47-2.44-5.3-3.52h0l-28.18-16.54c-4.42-2.6-10.11-1.12-12.7,3.29-1.07,1.82-1.49,3.94-1.19,6.03,3.6,24.8.23,57.81-23.22,96.6-3.54,5.84-11.14,7.72-17,4.2-.37-.23-.73-.47-1.07-.73-5.06-3.83-6.41-10.87-3.13-16.31,48.78-80.66-2.79-128.55-5-130.55-5.1-4.59-5.52-12.45-.92-17.55.09-.1.19-.21.28-.31,4.18-4.13,10.63-4.88,15.65-1.82l60.17,35.33c6.41,3.76,14.44,3.4,20.48-.93l.1-.08c2.65-1.9,5.21-3.95,7.64-6.06,6.19-5.45,11.92-11.39,17.15-17.76.76-.93,1.43-1.94,2-3,4.05-7.61,1.97-17.03-4.9-22.23l-41.98-31.62-8.25-6.23-8.24-6.19-10.76-8.12c-20.38-15.37-48.51-15.25-68.76.29-4.05,3.12-7.67,6.76-10.75,10.84L14.41,238.37c-.55.74-1.1,1.48-1.63,2.24-22.39,31.8-14.47,75.85,16.76,99l150.92,112c21.12,15.68,51.06,12.72,68-7.4.5-.5.98-1.09,1.46-1.69Z" fill="#fff"/>
  </g>
</svg>