<?xml version="1.0" encoding="UTF-8"?>
<svg id="Capa_2" data-name="Capa 2" xmlns="http://www.w3.org/2000/svg" viewBox="0 0 147.75 199.25">
  <g id="Capa_1-2" data-name="Capa 1">
    <path d="M87.5,43.75c0,12-4.84,22.88-12.72,30.81-.28-2.56-.88-5.03-1.78-7.38-3.06-8.22-9.53-14.84-17.69-18.06,4.37-3.44,7.19-8.75,7.19-14.75,0-10.34-8.41-18.75-18.75-18.75s-18.75,8.41-18.75,18.75c0,6,2.81,11.31,7.19,14.75-8.16,3.22-14.62,9.84-17.69,18.06-.91,2.34-1.5,4.81-1.78,7.38C4.84,66.62,0,55.75,0,43.75,0,19.62,19.62,0,43.75,0s43.75,19.62,43.75,43.75h0ZM56.25,34.38c0-6.91-5.59-12.5-12.5-12.5s-12.5,5.59-12.5,12.5,5.59,12.5,12.5,12.5,12.5-5.59,12.5-12.5ZM43.75,53.13c-11.75,0-21.66,8.19-24.31,19.16-.44,1.88-.69,3.84-.69,5.84,0,.5.03,1.03.06,1.53,7.09,4.97,15.69,7.84,24.94,7.84s17.84-2.88,24.94-7.84c.03-.5.06-1.03.06-1.53,0-2-.25-3.97-.69-5.84-2.66-10.97-12.56-19.16-24.31-19.16h0Z" fill="#fff"/>
    <path d="M118.75,137.75c-16.02,0-29-12.98-29-29s12.98-29,29-29,29,12.98,29,29-12.98,29-29,29ZM105.8,110.3c-1.18,1.25-1.12,3.21.13,4.39l7.06,6.67c1.33,1.26,3.46,1.1,4.59-.35l12.59-16.19c1.05-1.35.81-3.31-.54-4.36-1.35-1.05-3.31-.81-4.36.55l-10.5,13.49-4.58-4.32c-1.25-1.18-3.21-1.12-4.39.13h0Z" fill="#fff"/>
    <path d="M118.75,199.25c-16.02,0-29-12.98-29-29s12.98-29,29-29,29,12.98,29,29-12.98,29-29,29ZM105.8,171.8c-1.18,1.25-1.12,3.21.13,4.39l7.06,6.67c1.33,1.26,3.46,1.1,4.59-.35l12.59-16.19c1.05-1.35.81-3.31-.54-4.36-1.35-1.05-3.31-.81-4.36.55l-10.5,13.49-4.58-4.32c-1.25-1.18-3.21-1.12-4.39.13h0Z" fill="#fff"/>
    <rect x="39.75" y="71.75" width="8" height="99" fill="#fff"/>
    <rect x="64.75" y="79.75" width="8" height="58" transform="translate(-40 177.5) rotate(-90)" fill="#fff"/>
    <rect x="64.75" y="141.25" width="8" height="58" transform="translate(-101.5 239) rotate(-90)" fill="#fff"/>
  </g>
</svg>