<?xml version="1.0" encoding="UTF-8"?>
<svg id="Capa_2" data-name="Capa 2" xmlns="http://www.w3.org/2000/svg" viewBox="0 0 461.72 438.6">
  <g id="Capa_1-2" data-name="Capa 1">
    <path d="M253.47,359.8c2.2-.5,4.5-1.1,6.6-1.8,1.7-.5,2.7-2.3,2.2-4.1-.3-1-1.1-1.8-2.1-2.1-3.2-1-6.3-2.3-9.3-3.9-8-4.3-12.8-12.9-12.2-22,.9-17.3,0-51.7-20.3-62-4-2-8.8-.3-10.7,3.6-.5,1-.8,2-.8,3.1l-1.9,41.8c-.2,4.9,1.1,9.7,3.9,13.7,7.3,10.4,15.8,19.9,25.2,28.5,5.2,4.8,12.5,6.7,19.5,5.1l-.1.1Z" fill="#fff"/>
    <path d="M156.37,322.7c1.1,2.4,2.6,4.6,4.4,6.6,6.4,7.1,23.2,23.7,41.4,28.4,2.2.6,4.5,1.2,6.7,1.7,1.8.5,3.6-.6,4.1-2.4.3-1.1,0-2.3-.8-3.1-9.3-9.9-17.3-20.9-23.8-32.8-3-5.6-5.3-11.6-7-17.7-3.1-11.6-13.6-39.6-40.9-36.6-4.1.5-7.1,4.2-6.6,8.3.1,1,.4,1.9.8,2.7,4.4,8.1,17.2,35.4,21.8,45l-.1-.1Z" fill="#fff"/>
    <path d="M91.07,297.1c12.7.9,31.9,8.6,55.2,38.1,13.2,16.9,30.9,29.9,51.3,36.5,12,3.9,24.7,5.7,37.3,5.3,20.9-.5,41.2-7.1,58.4-19.1,13.9-9.7,29-24.5,34.3-45.1.8-3.2,1.3-6.5,1.6-9.9.8-8.6,4.5-36,22.2-47.2,3.5-2.3,8.3-1.2,10.5,2.3.9,1.4,1.3,3.1,1.2,4.8-.7,7.4-.7,17.3,2.3,26.6,1.7,5,1.6,10.4-.2,15.4-4,10.4-6.9,21.3-8.7,32.3-3.2,21.4,2.5,43.2,15.9,60.2,6.4,8.2,14.5,19.7,19.7,31.4,1.6,3.5,0,7.7-3.5,9.3-.9.4-1.9.6-2.8.6h-90.2c-5.5,0-10.9-1.9-15.1-5.5h0c-7.1-5.9-16-9.3-25.2-9.7l-43.2-1.7c-5.3-.2-10.4-1.9-14.7-4.9-11.1-7.5-34.8-22.5-57-29-6.4-1.9-11.6-6.7-13.9-13-5.5-14.4-17.9-41-41.1-64.6-3-3.1-2.9-8,.2-11,1.6-1.5,3.7-2.3,5.8-2.2l-.3.1Z" fill="#fff"/>
    <path d="M68.37,174.1c-11.8-15.1-31-38.3-48.9-54.2C3.27,105.5-3.53,83.2,1.77,62.2c3-12.2,8.4-24.6,17.7-33.7,8.9-8.7,22.6-10.1,33.1-3.5,6.9,4.3,13.1,9.6,18.5,15.6,8,9.2,8.8,22.6,2,32.7-1.3,2-2.7,4.1-4.1,6.4-5.7,9.4-6.9,20.9-3.3,31.3,4.9,14.2,11.8,37.1,13.9,58.8.4,3.4-2.2,6.5-5.6,6.9-2.2.2-4.3-.7-5.6-2.4v-.2Z" fill="#fff"/>
    <path d="M430.67,43.7c-12.5,2.6-30,11-33.3,37.7-.7,6-.1,12,1.7,17.8,3.8,12.6,10.3,42.3-2.2,73.3l-15.4,39.6c-2,5.1,4.9,9,8.2,4.6,19-24.7,47.3-64.8,63.2-103,0,0,11.2-27.6,8.4-48.7-2-14.6-16.1-24.3-30.5-21.3h-.1Z" fill="#fff"/>
    <path d="M357.27,67.4c-8.1-2.2-16,2-20.7,8.6-1.4,1.6-2.7,3.2-3.9,5-2.3,3.5-4.1,7.5-4.1,11.7,0,7.7,6.9,13.5,14.3,13.3,8.3-.2,15.9-5.1,20.4-11.8,5.8-8.5,6-23.4-6.1-26.7l.1-.1Z" fill="#fff"/>
    <path d="M132.67,193c-.9-1.5-2-2.9-3.1-4.1-2.2-2.7-5.4-4.5-8.9-5-5.5-.7-10.7,2.7-12.3,8-1.1,3.9,0,8.4,1.6,12.5.5,1.3,1,2.5,1.6,3.6,1.6,3.6,3.9,6.9,6.7,9.6,1.4,1.3,3.1,2.1,5,2.4,1.8.8,3.8,1.3,5.7,1.5,7.3.9,11.6-7.5,10.3-13.5-1.2-5.4-3.5-10.5-6.6-15.1v.1Z" fill="#fff"/>
    <g>
      <path d="M122.89,20.23c9.56,8.39,21.19,11.25,26.37,12.16-2.83,7.05-5.21,14.47-7.11,20.82-.02.07-.03.16-.05.23-13.87-9.02-18-25.51-19.2-33.2h0Z" fill="#fff"/>
      <path d="M286.75,52.2c-2-5.88-4.46-11.73-7.35-17.26,3.85-.8,12.34-3.15,19.12-9.16-.01,6.95-1.46,20.4-11.77,26.42h0Z" fill="#fff"/>
      <path d="M298.7,145.15c-.8-1.54-1.57-3.05-2.32-4.51-9.09-18.21-9.58-31.05-7.27-51.3,2.18-25.5-14.82-72.91-41.89-83.54-9.16-3.69-21.95-5.79-35.1-5.79-20.3,0-38.3,4.88-46.96,12.74-8.71,7.86-15.39,27.67-19.66,41.89-3.63,14.4,1.94,28.59,7.84,43.63.72,1.84,1.45,3.7,2.17,5.56,6.81,17.89,7.12,35.21,7.42,51.95.2,11.18.4,22.75,2.49,34.6l.23,1.32c6.95,4.12,8.83,4.79,17.3,5.34,1.03.08,2.07.12,3.1.12,3.82,0,7.25-.5,10.89-1.03,2.26-.33,4.59-.67,6.99-.88,1.35-.1,2.52-.15,3.63-.15,7.03,0,11.94,1.96,18.13,7.22,2.17,1.7,3.75,3.3,5.01,4.58,2.06,2.1,2.84,2.82,4.25,2.82,1.04,0,2.46-.4,4.34-1.21,2.72-1.06,4.77-3.3,6.94-5.69,2.49-2.73,5.07-5.56,8.89-6.92,2.31-.75,4.96-1.12,8.13-1.12,4.87,0,10.15.87,14.81,1.63,1.31.22,2.58.42,3.81.61,2.72.48,6.27,1.84,10.04,3.28,5.07,1.95,10.8,4.14,14.55,4.14.65,0,1.23-.06,1.72-.2,4.52-1.44,6.37-10.98,6.11-15.91-.31-13.59-8.79-30-15.6-43.19h0ZM180.96,56.08c7.05,0,13.77,5.72,15.02,12.78s-3.47,12.77-10.51,12.77-13.77-5.72-15.02-12.77c-1.26-7.07,3.46-12.78,10.51-12.78ZM254.19,131.51c-2.84,5.17-6.1,13.77-13.14,16.47-5.73-5.41-10.61-11.81-18.82-15.74-4.76,5.9-7.77,12.06-18.39,13.78-2.57-4.93-4.51-10.08-7.42-15.01-2.83-4.43-4.85-7.02-8.56-9.83-3.55-2.7-8.9-7.88-10.14-11.07,12.63,1.97,21.69,4.93,31.18,12.3,4.38-4.18,7.22-9.35,11.61-13.53,3.38,1.72,6.84,3.94,9.91,5.9,2.26,1.23,8.08,7.13,10.17,7.38,1.75.25,9.33-3.2,11.25-3.93,3.54-1.23,6.9-3.45,10.39-4.93-1.17,6.87-4.99,12.29-8.05,18.19h0ZM248.27,83.62c-11.79,0-23.04-9.56-25.12-21.35-2.08-11.79,5.79-21.35,17.59-21.35s23.03,9.56,25.11,21.35c2.08,11.79-5.79,21.35-17.58,21.35Z" fill="#fff"/>
    </g>
  </g>
</svg>