<?xml version="1.0" encoding="UTF-8"?>
<svg id="Capa_2" data-name="Capa 2" xmlns="http://www.w3.org/2000/svg" viewBox="0 0 461.74 417.9">
  <g id="Capa_1-2" data-name="Capa 1">
    <path d="M253.53,339c2.24-.52,4.46-1.13,6.65-1.83,1.72-.52,2.69-2.34,2.16-4.05-.31-1.02-1.09-1.82-2.1-2.15-3.21-1.02-6.32-2.31-9.32-3.85-8.03-4.31-12.81-12.91-12.24-22,.92-17.32,0-51.69-20.27-62-3.96-1.96-8.76-.33-10.71,3.63-.48.98-.76,2.05-.82,3.14l-1.89,41.83c-.23,4.86,1.14,9.66,3.89,13.67,7.33,10.38,15.78,19.93,25.19,28.48,5.24,4.83,12.52,6.75,19.46,5.13Z" fill="#fff"/>
    <path d="M156.4,301.89c1.12,2.39,2.59,4.61,4.37,6.56,6.44,7.06,23.16,23.73,41.37,28.36,2.23.57,4.47,1.17,6.71,1.73,1.79.47,3.62-.61,4.09-2.4.29-1.11,0-2.28-.79-3.12-9.31-9.88-17.32-20.91-23.83-32.82-2.99-5.62-5.34-11.57-7-17.72-3.13-11.63-13.56-39.65-40.89-36.59-4.12.46-7.08,4.17-6.63,8.28.11.95.39,1.87.85,2.72,4.36,8.13,17.23,35.43,21.75,45Z" fill="#fff"/>
    <path d="M91.15,276.28c12.67.88,31.9,8.57,55.15,38.14,13.25,16.85,30.88,29.91,51.26,36.52,12.05,3.87,24.67,5.68,37.32,5.33,20.92-.47,41.24-7.1,58.41-19.06,13.86-9.69,29-24.52,34.29-45.14.8-3.23,1.32-6.53,1.58-9.85.75-8.57,4.49-36,22.19-47.16,3.55-2.26,8.26-1.21,10.52,2.34.91,1.43,1.32,3.11,1.16,4.79-.68,7.41-.67,17.3,2.33,26.58,1.68,5,1.6,10.41-.21,15.36-3.97,10.45-6.87,21.26-8.67,32.29-3.23,21.41,2.51,43.2,15.87,60.23,6.4,8.23,14.46,19.73,19.67,31.38,1.59,3.53.01,7.67-3.51,9.25-.89.4-1.86.61-2.84.62h-90.22c-5.54,0-10.9-1.94-15.15-5.49h0c-7.11-5.92-15.98-9.34-25.23-9.71l-43.19-1.73c-5.27-.21-10.37-1.89-14.72-4.86-11.1-7.55-34.81-22.53-57-29.05-6.41-1.93-11.55-6.74-13.91-13-5.5-14.37-17.92-41-41.09-64.63-2.98-3.08-2.91-7.99.17-10.97,1.55-1.5,3.66-2.29,5.82-2.18Z" fill="#fff"/>
    <path d="M68.38,153.3c-11.83-15.13-31-38.33-48.87-54.19C3.3,84.67-3.53,62.42,1.77,41.38,4.77,29.22,10.17,16.81,19.45,7.64,28.33-1.05,42.02-2.49,52.53,4.16c6.88,4.3,13.11,9.56,18.5,15.63,7.99,9.17,8.81,22.57,2,32.65-1.33,2-2.71,4.11-4.07,6.36-5.66,9.43-6.86,20.88-3.26,31.28,4.9,14.19,11.79,37.11,13.88,58.78.35,3.44-2.15,6.51-5.59,6.86-2.16.22-4.29-.7-5.61-2.42Z" fill="#fff"/>
    <path d="M430.73,22.84c-12.49,2.55-30,11-33.27,37.72-.68,5.97-.11,12.02,1.69,17.76,3.84,12.57,10.27,42.34-2.22,73.34l-15.39,39.57c-2,5.11,4.85,9,8.19,4.62,19-24.68,47.3-64.82,63.18-103,0,0,11.23-27.6,8.37-48.67-1.98-14.56-16.15-24.29-30.55-21.34Z" fill="#fff"/>
    <path d="M357.28,46.56c-8.09-2.24-16,2-20.67,8.55-1.42,1.56-2.71,3.24-3.87,5-2.27,3.46-4.07,7.51-4.1,11.7,0,7.71,6.88,13.46,14.28,13.3,8.3-.17,15.87-5.11,20.44-11.83,5.84-8.54,5.95-23.4-6.08-26.72Z" fill="#fff"/>
    <path d="M132.69,172.2c-.91-1.47-1.95-2.85-3.1-4.14-2.23-2.7-5.38-4.48-8.85-5-5.51-.7-10.72,2.68-12.32,8-1.06,3.86-.07,8.41,1.59,12.5.5,1.28,1,2.51,1.56,3.64,1.58,3.63,3.87,6.92,6.74,9.65,1.41,1.26,3.14,2.08,5,2.39,1.83.78,3.76,1.3,5.73,1.54,7.28.92,11.62-7.51,10.27-13.49-1.22-5.41-3.47-10.53-6.62-15.09Z" fill="#fff"/>
    <path d="M216.08,48.72c2.97-1.51,6.11-.59,9.71.79,26.07,10.1,7.43,15.03-4.05,8.75-3.19-1.71-8.77-7.13-5.65-9.54h0ZM187.24,58.42c1.15-3.51,2.45-6.07,5.25-8.42,3.16-2.68,11.02-5,11.25,2.17.3,10.67-18.38,18.49-16.5,6.25h0ZM210.04,83.16c-6.01,1.36-8.67-5.13-1.21-8.72,13.7-6.57,27.03,11.15,16.3,9.09-7.49-1.41-6.07-2.92-13.13-.94l-1.95.57ZM178.9,64.08c2.06,4.27,4.29,8.59,5.92,12.92,3.49,9.15,3.8,15.55-6.91,14.99-17.9-1.91-24.13-15.39-36.01-20.28-24.09-9.94-3.91,32.88.31,42.25,11.78,26.07,2.9,32.01,9.42,51.21,2.37,7.05,3.35,6.38,6.8,3.36,6.44-5.48,11.6,1.83,16.45,8.2,4.23,5.54,19.4,21.86,24.52,14.17,4.73-7.09-5.66-20.15.91-27.8,9.68-7.05,30.22,34.42,32.2,40.25,5.82,16.26,27.56-.29,30.98-8.54,2.33-5.52,2.88-19.75,7.02-21.88,5.51-2.81,18.81,13.81,23.87,18.29,5.07,4.53,13.57,6.38,15.99,1.42,3.22-6.52-3.48-18.05-7.39-25.04-8.24-14.75,3.88-12.64,11.89-.17,2.4,3.71,11.36,22.9,10.56,10.23-2.16-32.96-18.18-36.93-23.13-56.7-1.57-6.16-.47-16.79-3.67-21.39-5.65-8.09-13.11-3.49-17.46-.3-5.83,4.25-9.14,8.61-18.11,3.81-15.24-10.49-12.44-29.52-13.3-42.63-4.43-46.17-49.99-56.46-72.18-30.55-3.1,4.52-5.58,9.03-5.33,15.26.57,6.17,3.85,12.88,6.66,18.93h0Z" fill="#fff" fill-rule="evenodd"/>
  </g>
</svg>