<?xml version="1.0" encoding="UTF-8"?>
<svg id="Capa_2" data-name="Capa 2" xmlns="http://www.w3.org/2000/svg" viewBox="0 0 461.74 474.22">
  <g id="Capa_1-2" data-name="Capa 1">
    <path d="M253.53,395.32c2.24-.52,4.46-1.13,6.65-1.83,1.72-.52,2.69-2.34,2.16-4.05-.31-1.02-1.09-1.82-2.1-2.15-3.21-1.02-6.32-2.31-9.32-3.85-8.03-4.31-12.81-12.91-12.24-22,.92-17.32,0-51.69-20.27-62-3.96-1.96-8.76-.33-10.71,3.63-.48.98-.76,2.05-.82,3.14l-1.89,41.83c-.23,4.86,1.14,9.66,3.89,13.67,7.33,10.38,15.78,19.93,25.19,28.48,5.24,4.83,12.52,6.75,19.46,5.13Z" fill="#fff"/>
    <path d="M156.4,358.21c1.12,2.39,2.59,4.61,4.37,6.56,6.44,7.06,23.16,23.73,41.37,28.36,2.23.57,4.47,1.17,6.71,1.73,1.79.47,3.62-.61,4.09-2.4.29-1.11,0-2.28-.79-3.12-9.31-9.88-17.32-20.91-23.83-32.82-2.99-5.62-5.34-11.57-7-17.72-3.13-11.63-13.56-39.65-40.89-36.59-4.12.46-7.08,4.17-6.63,8.28.11.95.39,1.87.85,2.72,4.36,8.13,17.23,35.43,21.75,45Z" fill="#fff"/>
    <path d="M91.15,332.6c12.67.88,31.9,8.57,55.15,38.14,13.25,16.85,30.88,29.91,51.26,36.52,12.05,3.87,24.67,5.68,37.32,5.33,20.92-.47,41.24-7.1,58.41-19.06,13.86-9.69,29-24.52,34.29-45.14.8-3.23,1.32-6.53,1.58-9.85.75-8.57,4.49-36,22.19-47.16,3.55-2.26,8.26-1.21,10.52,2.34.91,1.43,1.32,3.11,1.16,4.79-.68,7.41-.67,17.3,2.33,26.58,1.68,5,1.6,10.41-.21,15.36-3.97,10.45-6.87,21.26-8.67,32.29-3.23,21.41,2.51,43.2,15.87,60.23,6.4,8.23,14.46,19.73,19.67,31.38,1.59,3.53.01,7.67-3.51,9.25-.89.4-1.86.61-2.84.62h-90.22c-5.54,0-10.9-1.94-15.15-5.49h0c-7.11-5.92-15.98-9.34-25.23-9.71l-43.19-1.73c-5.27-.21-10.37-1.89-14.72-4.86-11.1-7.55-34.81-22.53-57-29.05-6.41-1.93-11.55-6.74-13.91-13-5.5-14.37-17.92-41-41.09-64.63-2.98-3.08-2.91-7.99.17-10.97,1.55-1.5,3.66-2.29,5.82-2.18Z" fill="#fff"/>
    <path d="M68.38,209.62c-11.83-15.13-31-38.33-48.87-54.19C3.3,140.99-3.53,118.75,1.77,97.7c3-12.16,8.4-24.57,17.68-33.74,8.89-8.69,22.58-10.13,33.08-3.48,6.88,4.3,13.11,9.56,18.5,15.63,7.99,9.17,8.81,22.57,2,32.65-1.33,2-2.71,4.11-4.07,6.36-5.66,9.43-6.86,20.88-3.26,31.28,4.9,14.19,11.79,37.11,13.88,58.78.35,3.44-2.15,6.51-5.59,6.86-2.16.22-4.29-.7-5.61-2.42Z" fill="#fff"/>
    <path d="M430.73,79.16c-12.49,2.55-30,11-33.27,37.72-.68,5.97-.11,12.02,1.69,17.76,3.84,12.57,10.27,42.34-2.22,73.34l-15.39,39.57c-2,5.11,4.85,9,8.19,4.62,19-24.68,47.3-64.82,63.18-103,0,0,11.23-27.6,8.37-48.67-1.98-14.56-16.15-24.29-30.55-21.34Z" fill="#fff"/>
    <path d="M363.05,182.25c-8.09-2.24-16,2-20.67,8.55-1.42,1.56-2.71,3.24-3.87,5-2.27,3.46-4.07,7.51-4.1,11.7,0,7.71,6.88,13.46,14.28,13.3,8.3-.17,15.87-5.11,20.44-11.83,5.84-8.54,5.95-23.4-6.08-26.72Z" fill="#fff"/>
    <path d="M131.81,209.46c-.91-1.47-1.95-2.85-3.1-4.14-2.23-2.7-5.38-4.48-8.85-5-5.51-.7-10.72,2.68-12.32,8-1.06,3.86-.07,8.41,1.59,12.5.5,1.28,1,2.51,1.56,3.64,1.58,3.63,3.87,6.92,6.74,9.65,1.41,1.26,3.14,2.08,5,2.39,1.83.78,3.76,1.3,5.73,1.54,7.28.92,11.62-7.51,10.27-13.49-1.22-5.41-3.47-10.53-6.62-15.09Z" fill="#fff"/>
    <path d="M325.68,21.66c-.76-.59-1.53-1.18-2.31-1.75C305.36,6.82,283.63-.16,261.37,0h-28.88c-25.25-.06-49.7,8.92-68.9,25.32-21.63,18.58-45.51,47.79-51.37,89.16-3.23,22.74,4.8,45.85,22.07,61l.94.81c5.94,5.05,10.98,11.07,14.89,17.82,8.1,14.06,19.83,38.66,22.85,67.31.32,3.15,2.52,5.79,5.55,6.69l3.36,1c4.15,1.22,8.51-1.15,9.73-5.31.19-.64.29-1.3.32-1.96l.4-13.16c.15-4.33,3.79-7.71,8.11-7.56,3.73.13,6.85,2.87,7.46,6.56l2.8,17.62c1.78,11.39,12.45,19.18,23.84,17.4,7.28-1.14,13.43-6.03,16.16-12.87l1-2.5c1.67-4.17,6.4-6.19,10.57-4.53,1.65.66,3.04,1.84,3.95,3.37,4.36,7.34,8.71,20.85,10.07,45.74.32,6.26,5.48,11.18,11.75,11.2h.35c6.27,0,11.52-4.76,12.11-11,1-11.26,2.83-26.93,4-48,2.77-49.25,1.92-70.72,33.64-108.49.43-.52,1.85-2.39,3.8-5,30.19-40.37,23.43-97.92-16.26-128.96ZM188.07,159.71c-5.39,6.78-15.13,8.16-22.19,3.14-14.56-10.18-17.59-25.55-18.21-31.12-.15-1.18-.15-2.38,0-3.56,2.13-16.82,14.71-24.86,23-28.36,5.24-2.26,11.3-1.56,15.88,1.85,7.9,5.88,11.14,15,12.29,19.42.38,1.42.55,2.89.53,4.36-.41,16.58-5.95,27.52-11.3,34.27ZM234.6,189.25c-4.74,3.7-10.04,6.63-15.7,8.68-5.69,2.14-12.03-.74-14.16-6.43-.61-1.62-.83-3.36-.64-5.08.87-7.43,3.31-14.59,7.15-21,3.12-5.21,9.88-6.9,15.09-3.78,1.25.75,2.34,1.74,3.2,2.91l7,9.38c3.65,4.78,2.78,11.6-1.94,15.32h0ZM291.35,124.96c-2.28,6.33-5.77,12.16-10.28,17.15-10.77,11.5-28.42,10.69-38.61-1.32-8.65-10.21-14.19-23.47-17-31.52-2.47-6.87-3.16-14.25-2-21.45,1.5-8.84,5.89-16.93,12.49-23,16.46-15.51,43.34-12.84,55.06,6.51,13.94,23.1.34,53.63.34,53.63Z" fill="#fff"/>
  </g>
</svg>