<?xml version="1.0" encoding="UTF-8"?>
<svg id="Capa_2" data-name="Capa 2" xmlns="http://www.w3.org/2000/svg" viewBox="0 0 499.34 264.35">
  <g id="Capa_1-2" data-name="Capa 1">
    <path d="M493.67,113.13l-31.6-8.71c-1.45-4.45-3.24-8.77-5.36-12.94l16.19-28.5c1.74-3.06,1.22-6.91-1.27-9.4l-8.13-8.13h0l-8.13-8.13c-2.49-2.49-6.34-3.01-9.4-1.27l-28.5,16.19c-4.17-2.13-8.49-3.92-12.94-5.36l-8.75-31.64c-.93-3.4-4.02-5.75-7.55-5.75h-23.04c-3.52,0-6.61,2.35-7.55,5.75l-8.71,31.6c-4.45,1.45-8.77,3.24-12.94,5.36l-28.5-16.19c-3.06-1.74-6.91-1.22-9.4,1.27l-8.13,8.13h0l-8.13,8.13c-2.49,2.49-3.01,6.34-1.27,9.4l16.19,28.5c-2.13,4.17-3.92,8.49-5.36,12.94l-31.64,8.75c-3.4.93-5.75,4.02-5.75,7.55v11.52h0v11.52c0,3.52,2.35,6.61,5.75,7.55l31.6,8.71c1.45,4.45,3.24,8.77,5.36,12.94l-16.19,28.5c-1.74,3.06-1.22,6.91,1.27,9.4l8.13,8.13h0l8.13,8.13c2.49,2.49,6.34,3.01,9.4,1.27l28.5-16.19c4.17,2.13,8.49,3.92,12.94,5.36l8.71,31.6c.93,3.4,4.02,5.75,7.55,5.75h23.04c3.52,0,6.61-2.35,7.55-5.75l8.71-31.6c4.45-1.45,8.77-3.24,12.94-5.36l28.5,16.19c3.06,1.74,6.91,1.22,9.4-1.27l8.13-8.13h0l8.13-8.13c2.49-2.49,3.01-6.34,1.27-9.4l-16.19-28.5c2.13-4.17,3.92-8.49,5.36-12.94l31.6-8.71c3.4-.93,5.75-4.02,5.75-7.55v-11.52h0v-11.52c.01-3.5-2.3-6.59-5.67-7.55ZM376.71,180.7c-26.79,0-48.51-21.72-48.51-48.51s21.72-48.51,48.51-48.51,48.51,21.72,48.51,48.51-21.72,48.51-48.51,48.51h0Z" fill="#fff"/>
    <path d="M233.72,177.32c-5.32-23.93-3.87-61.55-2.85-78.4.45-7.03-.71-14.08-3.38-20.6-19.61-47.51-68.34-45.17-68.34-45.17,0,0-48.73-2.33-68.34,45.17-2.67,6.52-3.82,13.57-3.38,20.6,1.02,16.86,2.47,54.5-2.86,78.41-.87,3.8.29,7.77,3.06,10.5,7.66,7.48,24.14,23.47,44.31,41.92,2.26,2.07,5.77,1.91,7.84-.36.93-1.02,1.45-2.35,1.45-3.73v-62.79c0-4.16-2.37-7.97-6.12-9.79l-11.67-5.68c-4.16-2.02-6.79-6.24-6.79-10.86v-13.08c0-1.36,1.1-2.47,2.47-2.47.34,0,.68.07.99.21,10.88,4.76,22.11,8.7,33.59,11.76,3.57.94,7.33.94,10.91,0,11.48-3.06,22.71-6.99,33.59-11.76,1.25-.54,2.7.03,3.25,1.28.14.31.21.65.21.99v13.08c0,4.62-2.64,8.84-6.79,10.86l-11.67,5.68c-3.73,1.83-6.08,5.63-6.06,9.79v62.78c0,3.06,2.5,5.54,5.56,5.53,1.38,0,2.71-.52,3.73-1.45,20.2-18.46,36.65-34.43,44.28-41.93,2.75-2.74,3.9-6.71,3.03-10.49Z" fill="#fff"/>
    <g>
      <path d="M48.92,25.02L35.99,1.83c-.92-1.7-3.05-2.33-4.75-1.4-.59.32-1.08.81-1.4,1.4l-12.93,23.19c-1.09,1.96-1.66,4.17-1.66,6.42v160.47c0,2.19,1.77,3.96,3.96,3.96h27.43c2.18,0,3.95-1.77,3.96-3.96V31.41c0-2.24-.58-4.44-1.67-6.39Z" fill="#fff"/>
      <path d="M63.24,207.05H2.59c-1.43,0-2.59,1.16-2.59,2.59h0v10.81c0,1.43,1.16,2.59,2.59,2.59h20.18v38.05c0,1.79,1.46,3.24,3.25,3.24h13.79c1.79,0,3.24-1.45,3.24-3.24v-38.05h20.18c1.43,0,2.59-1.16,2.59-2.59,0,0,0,0,0,0v-10.81c0-1.43-1.15-2.59-2.58-2.59h0Z" fill="#fff"/>
    </g>
  </g>
</svg>