<?xml version="1.0" encoding="UTF-8"?>
<svg id="Capa_2" data-name="Capa 2" xmlns="http://www.w3.org/2000/svg" viewBox="0 0 469.53 437.2">
  <g id="Capa_1-2" data-name="Capa 1">
    <path d="M442.64,274.7v-11.1c0-2.17-1.75-3.93-3.92-3.94,0,0-.01,0-.02,0h-36.59c-2.18,0-3.94,1.75-3.95,3.93h0v11.11h-22.1c-2.64,0-4.78,2.13-4.79,4.77,0,1.27.5,2.48,1.39,3.38l41.85,42.41c3.22,3.26,8.47,3.29,11.72.07.02-.02.04-.04.07-.07l41.85-42.41c1.86-1.89,1.83-4.92-.05-6.77-.89-.88-2.09-1.37-3.35-1.38h-22.11Z" fill="#eb2457"/>
    <path d="M464.77,384.18h-22.13v-11.09c0-2.17-1.75-3.93-3.92-3.94,0,0-.01,0-.02,0h-36.59c-2.18,0-3.94,1.75-3.95,3.93h0v11.1h-22.1c-2.64,0-4.78,2.13-4.79,4.77,0,1.27.5,2.48,1.39,3.38l41.85,42.41c3.22,3.26,8.47,3.29,11.72.07.02-.02.04-.04.07-.07l41.85-42.41c1.86-1.89,1.83-4.92-.05-6.77-.89-.87-2.08-1.37-3.33-1.38Z" fill="#eb2457"/>
    <path d="M276.77,61.41c-3.19-11.38-10.29-21.27-20.06-27.93L211.99,2.89c-6.79-4.64-15.96-3.6-21.54,2.44l-34.6,37.73c-7.04,7.73-7.08,19.53-.09,27.3l31,34.63c2.28,2.55,5.16,4.5,8.38,5.66,4.81,1.66,10.15.08,13.27-3.94l9.44-12c3.66-4.63,10.38-5.41,15-1.75.35.28.68.58,1,.9,3.74,3.98,3.96,10.11.52,14.35l-14.42,18.39c-1.42,1.81-2.29,3.98-2.51,6.27l-5.79,60.09c-.11,1.1-.19,2.2-.26,3.3,1.2,13.44,5.3,33.72,18.47,49.12,3.79,4.39,3.48,10.99-.72,15-4.36,3.98-11.12,3.66-15.1-.7-.06-.07-.13-.14-.19-.21-11.22-13-17.31-28.35-20.59-42-1.77-7.54-8.13-13.11-15.84-13.87-6.83-.67-14.83-1.17-20.48-.75-10.24.78-20.13,4.14-28.73,9.75-15.81,10.3-29.55,23.46-40.53,38.81-3.46,4.78-10.14,5.86-14.93,2.4-.17-.13-.35-.26-.51-.4-4.32-3.75-5.04-10.19-1.66-14.81,8.29-11.51,17.96-21.97,28.8-31.13,2.15-1.8,2.44-5,.64-7.16-.21-.25-.45-.49-.71-.69h-.05c-14.14-11.29-36.33-24.66-63.29-26h-.45C16.66,172.88.77,187.57.03,206.44c-.02.48-.03.96-.03,1.45v86.1c0,3.73,3.02,6.76,6.76,6.76.92,0,1.84-.19,2.68-.55,8.81-3.76,16.6-9.54,22.74-16.89,3.66-4.63,10.37-5.41,15-1.75,4.43,3.5,5.37,9.85,2.14,14.48-.75,1-15.73,20.85-44.16,28.13C2.15,324.91.02,327.6,0,330.7v25.81c0,7,5.66,12.67,12.66,12.68.33,0,.67-.01,1-.04,23.67-2.09,47.18-5.64,70.41-10.64,7.26-1.56,14.71-2.06,22.11-1.46,114.47,9.14,194.11-50.17,194.11-50.17l19.48-7c12.02-4.2,18.73-17,15.36-29.28l-58.36-209.19Z" fill="#eb2457"/>
  </g>
</svg>