<?xml version="1.0" encoding="UTF-8"?>
<svg id="Capa_2" data-name="Capa 2" xmlns="http://www.w3.org/2000/svg" viewBox="0 0 453.72 438.75">
  <g id="Capa_1-2" data-name="Capa 1">
    <path d="M337.52,32.92c-16.44-.65-32.72,8.35-32.72,8.35-.04-6.61-1.13-13.17-3.24-19.44-10.28-29.1-52.14-29.1-62.41,0-2.13,6.26-3.24,12.83-3.29,19.44,0,0-16.28-9-32.71-8.35-14.7.43-26.27,12.69-25.85,27.39.1,3.47.88,6.89,2.3,10.07,3,6.72,9,13.33,20.47,17.68,8.2,3.01,15.83,7.4,22.54,13,4.72,3.84,8.67,8.52,11.65,13.82,2.18,4.15,6.49,6.75,11.18,6.74h49.83c4.68.01,8.99-2.58,11.17-6.72,2.99-5.35,6.97-10.08,11.72-13.94,6.74-5.58,14.38-9.98,22.59-13,11.34-4.33,17.32-10.88,20.31-17.55,6-13.43-.01-29.18-13.44-35.18-3.18-1.42-6.62-2.21-10.1-2.31Z" fill="#fff"/>
    <path d="M323.05,156.87c-4.45-1.26-8.42-3.83-11.39-7.38-4.35-5.12-10.74-8.05-17.45-8h-47.72c-6.71-.05-13.1,2.88-17.45,8-2.97,3.55-6.94,6.12-11.39,7.38-52.16,14.92-83.7,43.49-102.68,74.3-3.16,5.12-1.57,11.84,3.56,15,1.72,1.06,3.7,1.62,5.72,1.62h42.34c17.21,0,31.16,13.95,31.16,31.16h0v148.56c-.06,3.53,2.51,6.57,6,7.1,22.06,3.29,44.36,4.61,66.65,3.95,0,0,169.56,8.37,182.56-85.78,0,0,18.73-153.4-129.91-195.91Z" fill="#fff"/>
    <rect x="0" y="333.35" width="177.9" height="39.7" rx="11.29" ry="11.29" fill="#fff"/>
    <path d="M0,404.19v23.25c0,6.25,5.06,11.31,11.31,11.31h155.28c6.23-.02,11.27-5.08,11.27-11.31v-23.25c0-6.23-5.04-11.28-11.27-11.29H11.29C5.06,392.89,0,397.94,0,404.16c0,0,0,.01,0,.02Z" fill="#fff"/>
    <path d="M177.86,302.2v-23.26c0-6.25-5.06-11.31-11.31-11.31H11.31C5.06,267.64,0,272.7,0,278.95v23.26c0,6.24,5.05,11.29,11.29,11.29h155.32c6.22-.02,11.25-5.07,11.25-11.29Z" fill="#fff"/>
  </g>
</svg>