<?xml version="1.0" encoding="UTF-8"?>
<svg id="Capa_2" data-name="Capa 2" xmlns="http://www.w3.org/2000/svg" viewBox="0 0 453.51 376.38">
  <g id="Capa_1-2" data-name="Capa 1">
    <path d="M293.65,295.75c-2.17-4.27-6.11-7.36-10.77-8.46h-.17c-23.11-6.31-45.14-9.5-65.49-9.5-44.82,0-72.15,15.56-84.45,24.84-5.73,4.35-12.72,6.69-19.91,6.68-12.72-.04-24.31-7.32-29.87-18.77L17.4,154.1c-1.78-3.7-6.23-5.26-9.93-3.47-.6.29-1.15.65-1.65,1.08l-.17.14c-5.6,4.89-7.24,12.92-4,19.61l94.43,195.75c3.91,8.08,13.63,11.45,21.71,7.54,1.93-.94,3.66-2.24,5.08-3.85,56.59-63.15,138.33-60.33,168.87-56.83,3.54.41,6.75-2.13,7.16-5.68.14-1.26-.08-2.53-.66-3.66l-4.59-8.98Z" fill="#fff"/>
    <path d="M445.91,210.95c4.11.09,7.51-3.17,7.59-7.28.03-1.61-.46-3.2-1.4-4.51l-10.46-14.69c-1.99-2.84-5.86-3.61-8.79-1.77-3.47,2.27-7.35,3.84-11.42,4.63-31.45,6.08-60.35,22.79-85.91,49.66-19.72,20.74-29.87,40-29.94,40.16h0c-.71,1.32-.74,2.9-.08,4.24l7.7,15.21c1.78,3.51,6.07,4.92,9.58,3.14.88-.44,1.65-1.06,2.28-1.82,15.72-19,48.92-44.35,114.58-45.06,5.52-.07,9.95-4.6,9.88-10.12-.02-1.83-.55-3.63-1.52-5.18l-15.83-25.17s3.97-1.63,13.74-1.44Z" fill="#fff"/>
    <path d="M273.57,256.1l-91.68-181c-1.4-2.77-3.97-4.75-7-5.41-28.58-6.21-90.13-10.64-144.4,45.71-3.86,4-4.84,9.98-2.44,15l72.86,151.5c3.17,6.6,11.09,9.39,17.69,6.22.79-.38,1.55-.84,2.25-1.37,20.47-15.44,67.41-39.75,147.22-23.39,2.75.54,5.41-1.25,5.95-4,.22-1.11.06-2.25-.45-3.26ZM89.81,117.54c1.36-1,33.75-25.12,73.77-13.24,4.53,1.24,7.2,5.92,5.96,10.45-1.24,4.53-5.92,7.2-10.45,5.96-.12-.03-.24-.07-.36-.11-31.85-9.46-58.39,10.29-58.65,10.49-3.8,2.76-9.13,1.91-11.89-1.89-2.68-3.69-1.97-8.84,1.61-11.67h0ZM100.91,185.02c-3.44,3.2-8.82,3.01-12.03-.43-3.08-3.31-3.04-8.44.1-11.7,1.56-1.53,38.91-37.45,95.87-23.15,4.59,1.02,7.48,5.57,6.45,10.16s-5.57,7.48-10.16,6.45c-.15-.03-.3-.07-.44-.11-47.79-12-79.47,18.48-79.79,18.78h0ZM216.13,210.47c-1.07,4.58-5.64,7.42-10.22,6.36-39.57-9.23-65.79,9.09-66.05,9.28-3.82,2.73-9.14,1.85-11.88-1.98s-1.85-9.14,1.98-11.88c1.32-.94,32.83-22.94,79.81-12,4.57,1.07,7.41,5.64,6.36,10.21Z" fill="#fff"/>
    <path d="M426,149.1L344.34,10.98c-3.79-6.39-10.53-10.46-17.95-10.82-24.58-1.22-81.18,3.17-126,61-2.41,3.13-2.8,7.37-1,10.89l90.41,178.51c1.26,2.49,4.31,3.49,6.8,2.23.75-.38,1.4-.95,1.88-1.64,17.6-25.31,57.22-71.26,119.17-83.24,6.82-1.36,11.25-7.98,9.89-14.8-.28-1.41-.8-2.77-1.54-4.01ZM259.17,95.16c-2.9,3.7-8.25,4.34-11.95,1.44-3.7-2.9-4.34-8.25-1.44-11.95.06-.08.13-.16.19-.24.75-.91,18.56-22.57,43.07-31.1,4.43-1.55,9.28.8,10.83,5.23,1.55,4.43-.8,9.28-5.23,10.83h0c-20,6.93-35.32,25.55-35.47,25.78ZM272.27,138.56c-4.7-.38-8.19-4.5-7.81-9.2.12-1.51.65-2.96,1.52-4.2.95-1.34,23.73-33,60-40.66,4.61-.9,9.08,2.11,9.98,6.72.88,4.51-1.98,8.91-6.46,9.93-29.86,6.32-49.47,33.58-49.66,33.85-1.74,2.41-4.61,3.75-7.57,3.52v.04ZM363.06,143.68c-45.32,1.69-59.23,36.18-59.8,37.64-1.29,3.35-4.55,5.53-8.14,5.45-.97-.02-1.93-.21-2.84-.56-4.37-1.66-6.57-6.54-4.93-10.92.72-1.9,18.16-46.49,75.07-48.61,4.69-.32,8.75,3.22,9.07,7.91.32,4.69-3.22,8.75-7.91,9.07-.17.01-.35.02-.52.02h0Z" fill="#fff"/>
  </g>
</svg>