<?xml version="1.0" encoding="UTF-8"?>
<svg id="Capa_2" data-name="Capa 2" xmlns="http://www.w3.org/2000/svg" viewBox="0 0 447.61 777.35">
  <g id="Capa_2-2" data-name="Capa 2">
    <path d="M246.68,373.28l-3.33,35.25c-1.66,20.29,7.32,35.91,7.32,35.91,6.98,15.96-.97,26.69-.97,26.69,0,0-18,32-17,45,0,0,0,20,10,31,0,0,36,39,2,83,0,0-19,21-4,39,0,0,29,30,26,108,0,0-6-58-36-73,0,0-26-14-27-33,0,0-5-21,18-45,0,0,13.67-13.1,11-31,0,0-1.98-12.36-17-22,0,0-16.91-7.98-18-24,0,0-1.9-13.25,6.41-28.21,0,0,8.65-14.3,5.65-24.61-3.55-12.22-18.95-7.32-22.28-31.26,0,0-1.33-21.95,6.22-41.92,0,0,20-62,20-91,0,0,4-49-39-58,0,0-49-17-114,11,0,0,33-63,160-49,0,0,12-36-10-43,0,0-95-24-4-141,0,0,17-23,19-52,0,0,2,28,12,36,0,0,8-7,9-19,0,0,70,116,1,175,0,0-15,6-7,38,0,0,139-37,176,63,0,0-55.96-61.85-116-39,0,0-38.06,6.41-51.36,91.54l-2.66,27.6Z" fill="#73aac9" stroke="#197ab1" stroke-miterlimit="10" stroke-width="4"/>
  </g>
  <g id="Capa_3" data-name="Capa 3">
    <path d="M226.64,81.87s-23.55,28.78-22.5,53.51c0,0-1.52,23.23,20.69,25.02,22.21,1.79,23.24-24.14,23.24-24.14,0,0,1.56-28.89-21.43-54.39Z" fill="#ddbc33" stroke="#cc5700" stroke-miterlimit="10" stroke-width="4"/>
    <ellipse cx="226.52" cy="131.35" rx="7.91" ry="13.66" fill="#cc5700"/>
  </g>
  <g id="Capa_4" data-name="Capa 4">
    <path d="M418.27,296.13s31.26,108.74-8.98,175.58c0,0,46.56,2.33,34.25,79.48" fill="none" stroke="#197ab1" stroke-linecap="round" stroke-miterlimit="10" stroke-width="4"/>
    <path d="M385.35,601.07s58.86-37.24,23.94-127.7" fill="none" stroke="#197ab1" stroke-linecap="round" stroke-miterlimit="10" stroke-width="4"/>
    <path d="M379.03,539.89s-20.95-71.5,28.6-67.51" fill="none" stroke="#197ab1" stroke-linecap="round" stroke-miterlimit="10" stroke-width="4"/>
    <path d="M63.78,281.83S-1.73,326.4,32.52,480.69" fill="none" stroke="#197ab1" stroke-linecap="round" stroke-miterlimit="10" stroke-width="4"/>
    <path d="M89.39,531.57s-6.65-52.54-56.86-50.88" fill="none" stroke="#197ab1" stroke-linecap="round" stroke-miterlimit="10" stroke-width="4"/>
    <path d="M95.37,618.03S-1.06,570.15,31.52,482.36" fill="none" stroke="#197ab1" stroke-linecap="round" stroke-miterlimit="10" stroke-width="4"/>
    <path d="M19.55,612.38s-46.56-80.81,11.97-130.02" fill="none" stroke="#197ab1" stroke-linecap="round" stroke-miterlimit="10" stroke-width="4"/>
  </g>
</svg>