<?xml version="1.0" encoding="UTF-8"?>
<svg id="Capa_2" data-name="Capa 2" xmlns="http://www.w3.org/2000/svg" viewBox="0 0 451.63 765.55">
  <g id="Capa_1-2" data-name="Capa 1">
    <g id="Capa_2-2" data-name="Capa 2">
      <path d="M222.67,633.44c6.9-6.2,19.7-19.1,15.3-34.1-2.9-11.3-22-26.3-22-26.3,0,0-25-19.6-7-45.3,1.7-2.7,11.1-16,6.1-27.7-1.5-4.2-5.5-8-9.3-10.5-5.4-3.5-11-7.2-12.8-20.1-.9-8.7-.8-22,6-40.1v-.2c.9-2.6,17.6-63.8,17.7-93.2-.4-8.6-.9-16.1-5.3-29.3-5.3-16.2-15.5-25.7-34.1-31.7-2.2-.7-15.4-4.7-38.4-4.7s-46.8,3.8-69.3,12.3c2.7-4.9,7.4-11.5,15.2-18.1,26.2-22,66.8-26.1,96.2-26.6s16.9-.4,26,1c0,0,12.5-21.9,5.8-34.6-2.5-5.5-7-8.2-11.7-12.7-15.8-11.8-22.7-32.5-22.7-32.5-7.3-27.7-6.15-48.67,28.15-92.87.5-.7,14.85-15.52,19.75-46.73,2.3,8.7,5.4,17.6,9.7,23.6l2.6,3.6,3.3-2.9c.3-.2,4.8-4.2,7.8-11.2,5.8,11.2,15.4,31.9,21.2,55.7,11.3,46.5,7.9,86-23.9,105.3-2.8,1.8-14.5,11.4-6.5,43.3l.8,3.4,3.5-.4s13.9-1.5,33.4-1.5c42.1,0,115.2,13.9,135.4,58.1-34.4-19.5-58.7-21.9-90-22.8,0,0-28.6-2.2-49.4,12.6-14.8,14-16.4,20.8-20.8,48.3l-3.3,19.7-4.7,23.3-7.3,35.3s-6.4,35.7-4.9,46.8,10.2,19.8,10.2,19.8c0,0,16.9,16,8.7,37.4s-28.5,25.3-15.4,39.4c0,0,11.7,11.3,17.7,22,8.9,16,13.7,40.5-1.3,56.5-7.4,8.2-27.4,25.4-13.8,41.6h0v.2c.2.2,22.7,23.2,23.5,66.1h0c-5.7-15-21-29.8-28.8-37.3-1.1-.6-24-20.5-24.6-34.6-2.2-22.8,13.3-37.5,13.3-37.5v.2Z" fill="#73aac9" stroke="#197ab1" stroke-miterlimit="10" stroke-width="8"/>
    </g>
    <g id="Capa_3" data-name="Capa 3">
      <path d="M230.67,89.84c-26.59,23.55-24.6,52.2-24.6,52.2,0,0-.66,27.44,22.18,29.21,0,0,20.84,2.22,22.39-25.94,0,0,2.66-31.92-19.97-55.48h0Z" fill="#ddbc33" stroke="#cc5700" stroke-miterlimit="10" stroke-width="8"/>
      <ellipse cx="228.47" cy="138.04" rx="7.9" ry="13.7" fill="#cc5700"/>
    </g>
    <g id="Capa_4" data-name="Capa 4">
      <path d="M414.47,298.04s45.2,71.8-3.2,180.4c0,0,46.6,2.3,34.3,79.5" fill="none" stroke="#197ab1" stroke-linecap="round" stroke-miterlimit="10" stroke-width="8"/>
      <path d="M387.27,607.74s58.9-37.2,23.9-127.7" fill="none" stroke="#197ab1" stroke-linecap="round" stroke-miterlimit="10" stroke-width="8"/>
      <path d="M380.97,546.54s-21-71.5,28.6-67.5" fill="none" stroke="#197ab1" stroke-linecap="round" stroke-miterlimit="10" stroke-width="8"/>
      <path d="M73.67,280.84S.27,333.14,34.47,487.44" fill="none" stroke="#197ab1" stroke-linecap="round" stroke-miterlimit="10" stroke-width="8"/>
      <path d="M91.37,538.24s-6.7-52.5-56.9-50.9" fill="none" stroke="#197ab1" stroke-linecap="round" stroke-miterlimit="10" stroke-width="8"/>
      <path d="M97.37,624.74S.97,576.84,33.57,489.04" fill="none" stroke="#197ab1" stroke-linecap="round" stroke-miterlimit="10" stroke-width="8"/>
      <path d="M21.57,619.04s-46.6-80.8,12-130" fill="none" stroke="#197ab1" stroke-linecap="round" stroke-miterlimit="10" stroke-width="8"/>
    </g>
  </g>
</svg>