<?xml version="1.0" encoding="UTF-8"?>
<svg id="Capa_2" data-name="Capa 2" xmlns="http://www.w3.org/2000/svg" viewBox="0 0 444.56 430.45">
  <g id="Capa_3" data-name="Capa 3">
    <g>
      <path d="M125.46,426.45c-1.95,0-4.08-.36-6.33-1.06l-.2-.06c-.13-.03-13.77-3.71-18.65-13.78-.99-2.19-8.98-19.19-20.2-23.7-1.29-.61-9.87-4.5-19.14-4.5-3.58,0-6.82.56-9.7,1.68,3.08-14.28,16.74-56.1,75.58-170.37l.05-.1c1.4-2.91,2.39-9.38-2.66-15.28l-23.55-33.88-2.7,7.07c-.48,1.26-10.96,29.17-6.04,55.63-2.66-.76-6.08-2.37-9.38-5.79-6.13-6.34-13.22-20.39-12.18-51.36l.42-12.38-7.58,9.8c-.11.15-11.43,14.8-22.04,30.75-8.34,12.53-13.3,21.37-16.12,27.74-2.94-13.56-3.04-38.33,15.72-76.22l4.51-9.12-9.52,3.6c-.37.14-9.1,3.48-17.89,9.4-6.02,4.06-10.58,8.3-13.67,12.69-.31-3.92-.25-8.64.57-13.98,3.37-21.8,18.05-44.19,42.45-64.75l.18-.16c.09-.08,9.86-9.15,22.11-9.15,8.74,0,16.82,4.62,24.03,13.74l.1.12.11.11c1.17,1.26,28.86,31,49.67,36.95l.17.05.17.03c.17.03,1.71.32,4.12.32,4.56,0,13.44-1.07,21.75-8.24,9.56-8.25,15.59-22.03,17.93-40.96.35-1.91,3.02-17.94-5.32-28.98-4.47-5.91-11.14-9.26-19.83-9.95-.04,0-.66-.06-1.72-.06-6.35,0-26.36,1.9-49.62,23.08,2.7-5.66,6.42-12.2,11.47-18.84,18.69-24.6,45.79-38.9,80.54-42.51.26-.01,1.26-.06,2.81-.06,13.21,0,56.9,3.16,64.92,43.76l7.68,50.22c.27,4.36,2.11,23.46,13.46,23.46.98,0,1.99-.16,2.99-.47,4.17-.69,39-7.44,58-42.34l.09-.18c.35-.72,9.02-17.94,29.5-17.94,7.91,0,16.67,2.58,26.04,7.67,1.19.78,15.79,10.64,24.8,30.48,10.88,23.97,9.6,51.98-3.77,83.42-2.02-17.3-9.44-44.01-34.88-61.66l-9.36-6.49,3.24,10.92c.17.58,17,58.26-.23,88.46-3.79,6.64-8.84,11.35-15.34,14.28,2.98-15.85,7.31-54.1-14.62-75.28l-7.26-7.01.48,10.08c.03.56,2.18,52.74-24.64,61.96,3.82-15.84,10.68-54-9.44-61.47l-2.07-.77-22.74,17.42-.14.13c-.57.53-13.88,13.06-12.34,26.45.64,5.18,15.84,126.33,33.48,152.11l.08.12c15.93,21.55,29.48,47.39,27.61,56.45-7-4.02-23.31-12.4-38.7-13.16-.52-.06-2.09-.2-4.45-.2-8.75,0-30.54,2.13-43.96,21.89l-.08.12-.07.12c-.07.12-2.42,3.86-7.11,3.86-3.45,0-7.64-2-12.12-5.79l-.29-.25-.33-.19c-1.04-.59-25.82-14.37-52.69-14.37-20.07,0-35.86,7.59-46.93,22.57l-.07.1-.07.1c-.08.11-2.77,3.85-9.08,3.85Z" fill="#cfcc52"/>
      <path d="M205.85,8c5.42,0,19.47.62,32.8,6.35,15.53,6.68,25.01,18.15,28.18,34.1l7.64,49.99c.11,1.44.54,6.25,1.84,11.12,3.69,13.81,11.35,15.87,15.59,15.87,1.3,0,2.61-.19,3.91-.57,5.62-.99,41.11-8.54,60.59-44.32l.1-.17.09-.18c.08-.16,7.76-15.67,25.9-15.67,7.2,0,15.27,2.39,24,7.12,1.56,1.03,14.6,10.04,23.03,28.33,5.28,11.46,7.61,24.21,6.92,37.9-.47,9.38-2.36,19.22-5.65,29.45-5.49-21.28-17.16-38.59-33.84-50.16l-18.73-12.99,6.5,21.84c.04.14,4.25,14.41,6.28,32.38,2.61,23.01.48,41.32-6.15,52.95-1.84,3.23-4.02,5.95-6.57,8.17,2.41-19.22,2.64-50.94-17.14-70.05l-14.49-13.99.94,20.13c0,.15.67,15.3-2.96,30.43-2.61,10.88-6.61,18.7-11.95,23.41.82-4.42,1.59-9.45,2.06-14.62.85-9.43.51-17.45-1.02-23.85-2.88-12.08-9.65-16.9-14.81-18.81l-4.14-1.54-3.51,2.69-20.84,15.96-.3.23-.28.26c-1.57,1.46-15.33,14.72-13.59,29.84v.03s0,.03,0,.03c.04.31,3.97,31.85,9.98,66.07,8.33,47.47,16.24,76.18,24.17,87.77l.08.12.09.12c.08.11,8.58,11.64,16.03,24.72,6.15,10.79,8.88,17.85,10.05,22.29-8.61-4.28-21.36-9.45-33.66-10.09-.71-.07-2.4-.21-4.75-.21-9.38,0-32.77,2.3-47.27,23.65l-.16.23-.14.24s-1.32,1.87-3.65,1.87c-1.42,0-4.55-.63-9.54-4.85l-.58-.49-.66-.37c-1.08-.61-26.75-14.88-54.66-14.89-21.1,0-38.43,8.37-50.14,24.19v-.09s-.21.37-.21.37c-.44.5-2.18,2.16-5.79,2.16-1.55,0-3.27-.3-5.14-.88l-.16-.05-.2-.05c-3.33-.89-12.68-4.7-16.06-11.61-1.66-3.67-9.9-20.63-22.21-25.66-1.95-.92-10.85-4.83-20.76-4.83-1.43,0-2.83.08-4.18.25,5.2-18.2,21.66-62.21,73.62-163.11l.05-.1.05-.1c1.81-3.77,3.14-12.03-3.09-19.45l-19.12-27.5-8.64-12.42-5.4,14.13c-.45,1.18-9.38,24.96-7.28,49.92-.51-.43-1.02-.9-1.53-1.43-5.59-5.78-12.05-18.88-11.06-48.44l.83-24.75-15.15,19.59c-.47.6-11.52,14.92-22.21,30.98-4.21,6.33-7.6,11.77-10.3,16.48-.17-13.76,3.35-33.77,16.81-60.96l9.03-18.24-19.03,7.21c-.38.15-9.54,3.64-18.71,9.83-2.39,1.61-4.9,3.49-7.3,5.63.12-1.15.28-2.33.48-3.56,3.38-20.65,17.55-41.99,40.98-61.74l.16-.13.18-.17c.09-.08,8.79-8.08,19.39-8.08,7.45,0,14.48,4.11,20.89,12.22l.19.24.21.23c3.01,3.25,30,31.93,51.51,38.08l.33.09.34.07c.47.09,2.23.39,4.88.39,5.11,0,15.08-1.2,24.36-9.21,10.31-8.9,16.79-23.49,19.27-43.37.57-3.11,3.12-19.84-6.08-32.01-3.56-4.71-10.38-10.54-22.66-11.53-.32-.03-1.03-.08-2.09-.08-5.13,0-18.66,1.15-35.58,11.48.27-.37.55-.73.83-1.1,7.88-10.29,17.52-18.83,28.66-25.39,13.95-8.21,30.36-13.35,48.79-15.28.32-.02,1.19-.05,2.5-.05M205.85,0c-1.99,0-3.14.07-3.14.07-87,9-102,82-102,82,27.87-33.57,53.73-35.74,59.93-35.74.92,0,1.41.05,1.41.05,27.93,2.22,21.51,34.32,21.51,34.32-5.11,41.72-27.22,45.82-35.72,45.82-2.08,0-3.35-.25-3.35-.25-19.97-5.71-47.83-35.82-47.83-35.82-9.19-11.62-18.77-15.26-27.17-15.26-14.1,0-24.87,10.26-24.87,10.26C-17.46,137.78,3.35,181.82,3.35,181.82c-.44-19.95,33.8-32.92,33.8-32.92-28.34,57.25-14.86,85.89-11.16,92.02-4.53-12.05,40.35-70.07,40.35-70.07-1.98,59.07,24.68,61.93,29.86,61.93.56,0,.87-.03.87-.03-7.54-27.05,4.61-58.83,4.61-58.83l19.36,27.84c4.88,5.54,2.22,11.08,2.22,11.08-84.24,163.61-76.71,180.02-76.71,180.02,4-4.16,9.28-5.49,14.38-5.49,9.03,0,17.54,4.16,17.54,4.16,10.2,3.99,18.18,21.73,18.18,21.73,5.76,11.97,21.28,15.96,21.28,15.96,2.84.89,5.34,1.24,7.52,1.24,8.74,0,12.43-5.68,12.43-5.68,11.81-15.96,28.04-20.95,43.72-20.95,26.13,0,50.73,13.86,50.73,13.86,6.01,5.08,10.89,6.74,14.71,6.74,7.17,0,10.57-5.85,10.57-5.85,12.26-18.05,32.11-20.14,40.65-20.14,2.58,0,4.13.19,4.13.19,19.07.89,40.35,14.63,40.35,14.63,13.3-11.53-25.72-64.29-25.72-64.29-17.29-25.27-32.81-150.31-32.81-150.31-1.33-11.53,11.08-23.06,11.08-23.06l20.84-15.96c21.29,7.9,5.32,62.96,5.32,62.96,37.24-3.55,34.14-67.39,34.14-67.39,26.16,25.27,11.97,78.48,11.97,78.48,53.56-13.39,24.83-109.96,24.83-109.96,37.97,26.34,33.7,74.93,33.7,74.93,49.22-93.55-15.52-133.9-15.52-133.9-10.97-5.99-20.29-8.23-28.08-8.23-23.38,0-33.11,20.2-33.11,20.2-19.07,35.03-55.42,40.35-55.42,40.35-.73.25-1.41.37-2.05.37-8.33,0-9.48-19.88-9.48-19.88l-7.72-50.48C266.07,2.99,218.57,0,205.85,0h0ZM26,240.91c.19.51.47.93.84,1.27,0,0-.33-.42-.84-1.27h0Z" fill="#304f2e"/>
    </g>
  </g>
  <g id="Capa_4" data-name="Capa 4">
    <path d="M245.23,144.33l-31.48,33.7s11.53,15.52,36.36,1.33c0,0,24.83-19.51-4.88-35.03Z" fill="#37631d"/>
    <path d="M171.37,143.23l31.48,33.7s-11.53,15.52-36.36,1.33c0,0-24.83-19.51,4.88-35.03Z" fill="#37631d"/>
  </g>
  <g id="Capa_5" data-name="Capa 5">
    <path d="M217.11,215.01c-6.74,1.25-13.25,1.41-19.43.81l-8.96,12.26-2.73-14.34c-25.1-6.47-42.32-23.66-42.32-23.66,0,0-11.44,35.41,11.88,49.14l12.28-7.24-2.98,15.07c9.24,6.76,22.34,11.31,40.89,11.31l5.68-16.81,9.14,15.38s11.64-2.24,17.95-5.72l.04-20.78,15.92,7.29s17.3-23.94,12.45-53.85c-12.9,14.67-25.89,23.37-38.36,27.97l-3.1,14.65-8.35-11.49Z" fill="#563968"/>
  </g>
</svg>