<?xml version="1.0" encoding="UTF-8"?>
<svg id="Capa_2" data-name="Capa 2" xmlns="http://www.w3.org/2000/svg" viewBox="0 0 94 93.51">
  <g id="Capa_1-2" data-name="Capa 1">
    <path d="M92.53,85.05c-.15-.04-14.97-3.51-19.13-13.21-1.82-4.25-1.34-9.16,1.43-14.61.75,1.21,1.86,2.43,3.25,2.43h.04c2.17-.04,3.15-2.91,3.48-3.86.38-1.09.7-2.13,1-3.09.84-2.64,1.62-5.14,2.54-5.44.3-.09,1.04-.07,2.73,1.2,1.64,1.23,2.95.82,3.58.46,2.13-1.2,2.78-4.99,2.47-8.23-.39-4.13-2.46-9.09-7.1-10.64-4.3-1.43-7.29.32-9.7,1.73-1.66.98-2.74,1.57-3.77,1.29-1.07-.28-2.26-1.57-3.56-3.82-1.63-2.83-2.62-6.3-3.66-9.98C63.39,9.67,60.28-1.24,43.94.11c-22,1.83-23.16,29.57-23.17,29.96,0,.02.07,2.13-1.17,2.85-.8.46-2.9.76-7.91-2.5-3.78-2.46-6.33-1.7-7.81-.62C-.02,32.63-.67,40.85.57,45.49c.78,2.91,2.1,3.64,3.07,3.74,2.36.25,3.55-1.26,4.26-2.16.07-.09.16-.2.23-.29.28.32.8,1.09,1.71,2.91l.93,1.87c2.23,4.52,3.08,6.22,4.68,6.22h.03c1.1-.02,1.83-.94,2.54-2.29.45.99,1.03,2.48,1.56,3.86,4.13,10.67,12.68,32.78,31.98,28.97,2.32,1.03,12.09,5.2,18.69,5.2,1.38,0,2.62-.18,3.62-.61.96-.41,1.7-1.02,2.18-1.81,3.26.09,14.21.05,17.18-4.21.22-.32.27-.73.13-1.1-.14-.37-.45-.64-.83-.72h0ZM34.56,29.67c-.39,0-.78-.07-1.15-.21-2.59-1-3.25-5.09-1.55-9.51.75-1.95,1.87-3.65,3.14-4.78,1.48-1.32,3.04-1.75,4.39-1.23,2.59,1,3.25,5.09,1.55,9.51-.75,1.95-1.87,3.65-3.14,4.78-1.07.95-2.19,1.45-3.23,1.45h0ZM44.65,49.01c-3.45,0-6.16-4.13-6.16-9.41s2.7-9.41,6.16-9.41,6.16,4.13,6.16,9.41-2.71,9.41-6.16,9.41ZM55.88,29.45c-.37.14-.76.21-1.15.21-1.05,0-2.16-.49-3.23-1.45-1.27-1.13-2.39-2.83-3.14-4.78-1.7-4.43-1.04-8.52,1.55-9.51,1.35-.52,2.91-.08,4.39,1.23,1.27,1.13,2.39,2.83,3.14,4.78,1.7,4.43,1.04,8.52-1.55,9.52h0Z"/>
  </g>
</svg>