<?xml version="1.0" encoding="UTF-8"?>
<svg id="Capa_2" data-name="Capa 2" xmlns="http://www.w3.org/2000/svg" viewBox="0 0 461.71 467.05">
  <g id="Capa_1-2" data-name="Capa 1">
    <path d="M461.07,72.52c-.37-1.31-1.72-2.07-3.03-1.71-.25.07-.49.18-.71.33l-13.9,9.38c-2.84,1.97-4.32,5.38-3.8,8.8.19,1.42.27,2.85.25,4.28-.49,28-2.77,98.7-13.24,151.15-1.48,7.48-4.85,14.46-9.78,20.28-16.05,18.49-35.13,34.12-56.42,46.22-1.21.66-1.65,2.17-.99,3.38.59,1.09,1.89,1.57,3.05,1.14,32.74-12.19,60.73-31.59,73.66-41.36,4.9-3.72,8.12-9.24,8.94-15.34,10.88-80.08,15.08-148.31,16.58-180.35.11-2.09-.09-4.18-.61-6.2Z" fill="#fff"/>
    <path d="M431.26,66.65l11.09-7.46c1.14-.77,1.45-2.31.68-3.45-.38-.56-.97-.95-1.63-1.07h-.06c-54.64-7.65-87.84-38.77-99-50.94-2.72-3.01-6.84-4.33-10.8-3.47l-3.13.69c-2.65.62-4.29,3.27-3.66,5.92.13.55.35,1.08.66,1.55.25.39.48.8.7,1.22,9.17,17.21,32.61,47,86.58,53.14,4.1.46,8.05,1.85,11.54,4.06,2.17,1.34,4.93,1.27,7.03-.19Z" fill="#fff"/>
    <path d="M345.45,293.73c.97,2.74,3.98,4.17,6.71,3.2.32-.11.63-.26.93-.43,18.29-10.93,34.72-24.69,48.68-40.79,3.34-3.95,5.61-8.69,6.61-13.77,10.22-51.22,12.46-120.58,13-148.59.14-6.82-4.91-12.63-11.68-13.45-61.88-7-88.29-43.32-97.49-60.61-1.61-3-5.35-4.14-8.35-2.53-.71.38-1.34.9-1.86,1.53-22.34,26.89-54.28,35.15-71.78,37.69-7.4,1.13-12.86,7.51-12.82,15,.07,41.43,4.53,83.71,8.64,114,.28,2.05,1.73,3.74,3.71,4.33,4.61,1.39,9.1,2.89,13.47,4.48,2.2.82,4.65-.29,5.47-2.49.25-.68.33-1.41.22-2.13-3.97-25.71-5.9-51.69-5.79-77.71.05-11.17,7.28-21.03,17.91-24.44,11.31-3.63,27.66-10.7,41.3-23.77,2.81-2.7,7.27-2.6,9.97.2.12.13.24.26.35.4.2.23,20,23.7,58.92,37.87,9.95,3.73,16.63,13.14,16.87,23.76.46,19.42.67,57-3.11,90.46-1.25,11.11-6.6,21.36-15,28.73-9.65,8.48-19.93,16.2-30.77,23.1-2.48,1.57-3.37,4.77-2.05,7.4,3.01,6.03,5.66,12.22,7.94,18.56Z" fill="#fff"/>
    <path d="M367.86,212.21c3.47-30.67,3.27-65.3,2.84-83.21-.08-4.45-2.85-8.41-7-10-19.27-6.9-37.05-17.39-52.41-30.92-2.29-2.04-5.7-2.18-8.14-.33-10.53,7.72-22.26,13.67-34.71,17.6-4.49,1.44-7.55,5.6-7.58,10.31-.11,27.37,2.26,54.69,7.08,81.63.51,2.97,2.35,5.55,5,7,16.01,8.52,30.34,19.88,42.29,33.52,1,1.08,3.4,3.8,6.55,8,3.2,4.29,9.2,5.3,13.63,2.3,7.99-5.36,15.63-11.24,22.86-17.59,5.36-4.7,8.78-11.23,9.59-18.31Z" fill="#fff"/>
    <path d="M127.78,467.05h147.78c8.67,0,16.8-4.21,21.81-11.28,82.95-116.95,2.63-200.61,2.63-200.61-58.24-67.83-176.94-57.5-176.94-57.5v-34.78c0-5.31-4.31-9.62-9.62-9.62-1.27,0-2.52.25-3.69.74C53.35,177.29,17.62,219.35,2.14,240.9c-3.27,4.57-2.22,10.92,2.35,14.19,1.22.87,2.61,1.46,4.08,1.73,42.68,8.07,83.57,26.82,104.23,37.32,4.73,2.4,10.51.52,12.91-4.21.69-1.35,1.04-2.85,1.04-4.36v-37.78c70.08,3.32,91.41,35.79,96.66,63.57,4,21.06-1.1,42.75-13,60.6-23.7,35.67-60.83,62.32-87.33,78.2-7.88,4.74-4.53,16.89,4.7,16.89Z" fill="#fff"/>
    <path d="M141.38,85.52c-12,7.61-4.89,19-4.89,19,7.24,14.15,25,27.91,38,36.55,2.09,1.4,4.93.84,6.33-1.25.88-1.31,1.01-2.98.36-4.42-6.62-14.71-13.56-34.14-13.56-34.14-3.19-8.74-14.29-23.37-26.24-15.74Z" fill="#fff"/>
    <circle cx="188.11" cy="36.8" r="12.5" fill="#fff"/>
    <path d="M406.62,324.96c-3.26-.81-6.56,1.18-7.36,4.44-.33,1.33-.2,2.72.36,3.97,3.88,8.47,11,20.42,22.85,29.44,6.13,4.71,14.92,3.57,19.63-2.56.58-.76,1.09-1.58,1.51-2.44.19-.41.37-.85.54-1.3,1.95-5.39.36-11.43-4-15.16-5.74-5.08-16.42-12.25-33.53-16.39Z" fill="#fff"/>
    <path d="M333.86,467.05h28.62c5.12,0,9.5-3.67,10.4-8.71,3.36-19,9.65-65.76-.48-107.83-1.7-7.06-12.12-5.82-12.09,1.44.15,29.22-5.51,69.71-31.14,106.17-1.79,2.58-1.15,6.13,1.44,7.92.96.66,2.09,1.02,3.25,1.01Z" fill="#fff"/>
    <path d="M158.86,388.68c5.47-5.83-2.12-14.54-8.67-9.94-57,40.1-117.47,67.8-147.69,80.47-2.08.87-3.05,3.27-2.18,5.34.64,1.51,2.12,2.49,3.76,2.5h37.45c3.89,0,7.72-.9,11.21-2.62,46.89-23.04,81.53-49.52,106.12-75.75Z" fill="#fff"/>
    <path d="M182.25,360.66c2.48,1.55,5.73,1.03,7.6-1.23,3.18-3.8,6.01-7.89,8.44-12.21,1-1.97.21-4.38-1.76-5.38-1.42-.72-3.14-.53-4.36.49-3.11,2.86-6.57,5.87-10.19,8.71-2.61,1.98-3.11,5.71-1.12,8.31.37.48.8.9,1.29,1.25l.1.06Z" fill="#fff"/>
  </g>
</svg>