<?xml version="1.0" encoding="UTF-8"?>
<svg id="Capa_2" data-name="Capa 2" xmlns="http://www.w3.org/2000/svg" viewBox="0 0 345.9 529.19">
  <g id="Capa_1-2" data-name="Capa 1">
    <path d="M182.29,76.34c-8.7,9.56-18.9,24.33-22.46,43.32-1.5,8.25,3.97,16.15,12.22,17.65.79.14,1.59.22,2.4.24,6.94.13,13-4.68,14.44-11.48,2.09-10.35,7.46-19.75,15.32-26.8,5.97-5.25,7.01-14.18,2.39-20.66-.21-.3-.33-.46-.33-.46-5.73-8.09-17.45-9.01-24-1.82Z"/>
    <path d="M267.56,48.98l-11.03.51c-6.16.26-10.94,5.46-10.69,11.62,0,.09,0,.19.02.28.4,6.31,5.77,11.14,12.08,10.88l11.03-.5c6.17-.25,10.97-5.45,10.72-11.62,0-.1,0-.21-.02-.31h0c-.42-6.3-5.8-11.12-12.11-10.85Z"/>
    <path d="M215.83,8.54l-2.62,10.69c-1.46,6.15,2.27,12.33,8.38,13.92,5.97,1.6,12.1-1.95,13.7-7.92.02-.08.04-.16.06-.24l2.62-10.69c1.45-6.14-2.27-12.32-8.38-13.91-5.97-1.6-12.11,1.94-13.71,7.91-.02.08-.04.16-.06.24Z"/>
    <path d="M157.61,3.83h0c-5.59,2.71-7.92,9.44-5.21,15.03.03.05.05.1.08.16l4.92,9.99c2.79,5.65,9.59,8.02,15.29,5.33,5.59-2.71,7.92-9.44,5.21-15.03-.03-.05-.05-.1-.08-.16l-4.92-9.98c-2.78-5.65-9.58-8.03-15.28-5.34Z"/>
    <g>
      <path d="M203.51,339.01l-20.34-17.78c-6.29-5.46-15.63-5.46-21.92,0l-20.34,17.78c-3.62,3.16-5.7,7.73-5.7,12.53v48.13c0,4.8,2.08,9.37,5.7,12.53l20.34,17.78c6.29,5.46,15.64,5.46,21.92,0l20.34-17.78c3.62-3.16,5.7-7.73,5.7-12.53v-48.13c0-4.8-2.08-9.37-5.7-12.53ZM192.18,396.93c0,.57-.25,1.1-.68,1.47l-18.02,15.73c-.74.64-1.83.64-2.57,0l-18.02-15.73c-.43-.37-.68-.9-.68-1.47v-42.64c0-.57.25-1.1.68-1.47l18.02-15.73c.74-.64,1.83-.64,2.57,0l18.02,15.73c.43.37.68.9.68,1.47v42.64Z"/>
      <path d="M345.9,360.61c0-.68.01-1.37,0-2.05-.17-56.57-27.48-107.17-69.55-139.3-3.1-2.36-7.14-3.09-10.87-1.97-13.69,4.12-27.93,6.18-42.23,6.09-5.3,0-9.8-3.89-10.57-9.14-.72-5.51,3.16-10.57,8.67-11.3.49-.06.98-.09,1.48-.08,6.24.07,12.48-.36,18.65-1.29,3.82-.62,6.4-4.22,5.78-8.04-.09-.58-.26-1.15-.5-1.68-3.96-9.25-9.84-23.13-9.84-23.13-1.97-4.69-6.52-7.77-11.6-7.85l-52.93-.71-52.92-.7c-5.03-.08-9.6,2.9-11.55,7.53,0,0-5.79,13.72-9.72,22.88-1.53,3.67.19,7.89,3.86,9.42.47.2.96.34,1.46.44,6.02,1.08,12.11,1.67,18.23,1.79,5.59.1,10.48,4.43,10.7,10.02.25,5.55-4.06,10.25-9.61,10.49-.2,0-.41.01-.61,0-14.5-.28-28.88-2.72-42.66-7.26-3.68-1.22-7.72-.59-10.85,1.69C24.78,248.99-.8,300.68.02,355.33c.02,1.77.08,3.53.15,5.29h97.28v22H2.52c13.91,80.89,84.23,144.17,168.47,146.49,87.64,2.79,161.85-61.46,173.37-146.49h-98.9v-22h100.44ZM172.95,249.61c7.18,0,13,5.82,13,13s-5.82,13-13,13-13-5.82-13-13,5.82-13,13-13ZM172.95,500.61c-7.18,0-13-5.82-13-13s5.82-13,13-13,13,5.82,13,13-5.82,13-13,13ZM228.34,407.83c0,4.28-1.85,8.36-5.08,11.18l-39.47,34.5c-6.21,5.42-15.47,5.42-21.67,0l-39.47-34.5c-3.22-2.82-5.08-6.89-5.08-11.18v-65.47c0-4.28,1.85-8.36,5.08-11.18l39.47-34.5c6.21-5.42,15.47-5.42,21.67,0l39.47,34.5c3.22,2.82,5.08,6.89,5.08,11.18v65.47Z"/>
    </g>
  </g>
</svg>