<?xml version="1.0" encoding="UTF-8"?>
<svg id="Capa_2" data-name="Capa 2" xmlns="http://www.w3.org/2000/svg" viewBox="0 0 387.08 414.37">
  <g id="Capa_6" data-name="Capa 6">
    <path d="M27.88,388.66s21.28-33.7,51.88-11.97c0,0,24.39,21.73,45.23,22.17,0,0,22.17,4.88,48.33-13.75,0,0,29.26-22.17,59.86,6.65,0,0,29.71,25.72,67.39,1.77,0,0,35.47-22.17,54.54,11.97,0,0,32.81-72.27-5.32-100.21,0,0-43.45-29.26-31.04-69.61,0,0-20.84-132.13-66.51-89.56,0,0,16.85-17.74-9.75-31.48,0,0-3.55-27.49-15.52-27.93,0,0-15.08-20.4.44-26.6,0,0,23.06-5.76,24.83,15.96,0,0,11.97-37.24-33.25-42.12,0,0-18.18-3.99-32.37,13.75,0,0-15.08,10.2-27.05.89,0,0-17.74-16.41-.44-42.57,0,0-28.38,6.21-26.16,54.98,0,0-27.49,11.08-17.29,29.71,0,0,15.96,29.71-1.33,31.04,0,0-31.92,1.33-25.27,27.05,0,0-18.18,8.87-15.96,22.17l-1.77,71.83s12.41,35.47-4.43,43.9c0,0-43.01,11.97-37.69,43.45,0,0-17.29,25.72-1.33,58.53Z" fill="#b87699" stroke="#563968" stroke-miterlimit="10" stroke-width="8"/>
  </g>
  <g id="Capa_7" data-name="Capa 7">
    <g>
      <path d="M305.88,142.58s3.55-41.68,23.94-35.91c0,0,9.31.89,10.64,11.53,0,0,4.88-4.88,13.75,0,0,0,6.65,4.43,7.54,11.53,0,0,7.09-1.77,11.08.89,0,0,28.82,16.85-10.2,74.93l-2.66-9.31s-14.19,45.67-53.21,37.24c0,0-34.14-10.64-23.94-65.62,0,0-5.32-15.08-1.33-25.27,0,0,6.21-18.18,2.22-27.05,0,0,19.95,0,22.17,27.05Z" fill="#b87699" stroke="#563968" stroke-miterlimit="10" stroke-width="8"/>
      <path d="M84.19,169.18s-7.42-35.25-31.36-26.38c0,0-3.99,1-5.61,5.24-.86,2.24-3.22,3.57-5.6,3.3-2.22-.25-5.15.13-8.74,2.1,0,0-6.65,4.43-7.54,11.53,0,0-7.09-1.77-11.08.89,0,0-28.82,16.85,10.2,74.93l2.66-9.31s-.56-15.74,6.09-11.75c0,0,14.19,37.24,43.9,21.73,0,0,38.13-18.62,39.02-46.11,0,0,15.52-30.15-10.2-41.68,0,0,2.22,20.84-7.54,23.06,0,0-4.32,2-14.19-7.54Z" fill="#b87699" stroke="#563968" stroke-miterlimit="10" stroke-width="8"/>
    </g>
  </g>
  <g id="Capa_10" data-name="Capa 10">
    <path d="M25.33,164.97s-5.88,29.93,16.29,59.19c0,0,0-19.51,9.75-29.26" fill="none" stroke="#563968" stroke-miterlimit="10" stroke-width="8"/>
    <path d="M47.21,148.04s-14.9,41.54,20.57,65.04c0,0,4.43-39.46,1.33-49.22" fill="none" stroke="#563968" stroke-miterlimit="10" stroke-width="8"/>
    <path d="M314.75,150.56s1.77,18.62-2.66,28.38c0,0,31.04-17.29,28.38-60.74" fill="none" stroke="#563968" stroke-miterlimit="10" stroke-width="8"/>
    <path d="M362.19,131.94s4.88,47-40.35,59.86c0,0,6.21-14.19-1.77-20.4" fill="none" stroke="#563968" stroke-miterlimit="10" stroke-width="8"/>
    <path d="M352.88,170.51s11.97,13.3,7.54,27.93" fill="#b87699" stroke="#563968" stroke-miterlimit="10" stroke-width="8"/>
  </g>
  <g id="Capa_8" data-name="Capa 8">
    <path d="M193.85,156.68c-5.74,1.41-11.37,2.05-16.75,2.12l-6.95,9.3-3.29-9.83c-22.11-2.53-38.11-13.21-38.11-13.21,0,0-7.61,25.73,13.44,33.49l10.15-6.05-1.6,10.79c8.42,4,20.04,6.15,36.07,4.67l3.82-12.23,8.9,10.05s9.92-2.5,15.15-5.44l-1.31-14.56,14.23,3.84s13.41-18.15,7.29-38.72c-10.2,11.3-20.87,18.43-31.35,22.66l-1.73,10.52-7.96-7.39Z" fill="#94d2e6" stroke="#563968" stroke-miterlimit="10" stroke-width="6"/>
  </g>
  <g id="Capa_9" data-name="Capa 9">
    <path d="M145.82,80.95s6.65,16.85,24.83,23.94c0,0-20.4,5.32-32.81,18.62,0,0-16.41-25.27,7.98-42.57Z" fill="#ff3600" stroke="#563968" stroke-linejoin="round" stroke-width="6"/>
    <path d="M202.13,79.62s-6.65,15.52-20.4,23.5c0,0,19.07,3.99,31.04,13.3,0,0,9.75-22.17-10.64-36.8Z" fill="#ff3600" stroke="#563968" stroke-linejoin="round" stroke-width="6"/>
  </g>
</svg>