<?xml version="1.0" encoding="UTF-8"?>
<svg id="Capa_2" data-name="Capa 2" xmlns="http://www.w3.org/2000/svg" viewBox="0 0 469.64 441.36">
  <g id="Capa_1-2" data-name="Capa 1">
    <path d="M13.69,369.11c23.67-2.09,47.18-5.64,70.41-10.64,7.26-1.56,14.71-2.05,22.11-1.46,114.47,9.14,194.11-50.17,194.11-50.17l19.49-7c12.02-4.21,18.74-17.01,15.36-29.29l-58.39-209.13c-3.2-11.38-10.3-21.27-20.07-27.94L212.02,2.89c-6.79-4.63-15.96-3.6-21.54,2.44l-34.63,37.73c-7.05,7.72-7.09,19.53-.1,27.3l31,34.63c2.28,2.55,5.16,4.5,8.38,5.66,4.83,1.69,10.2.09,13.32-3.97l9.4-12c3.67-4.62,10.4-5.39,15.02-1.72.34.27.67.57.98.88,3.73,3.98,3.95,10.1.51,14.34l-14.46,18.35c-1.42,1.81-2.29,3.98-2.51,6.27l-5.79,60.09c-.1,1.1-.19,2.2-.26,3.3,1.2,13.45,5.3,33.72,18.47,49.12,3.8,4.39,3.48,10.99-.72,15-4.34,3.98-11.09,3.69-15.08-.65-.06-.06-.11-.12-.16-.18-11.22-13-17.31-28.35-20.59-42.05-1.78-7.52-8.14-13.08-15.83-13.84-6.84-.66-14.84-1.16-20.48-.75-10.25.79-20.13,4.15-28.74,9.77-15.8,10.31-29.55,23.47-40.53,38.81-3.46,4.78-10.13,5.85-14.91,2.4-.18-.13-.35-.26-.52-.4-4.35-3.76-5.07-10.23-1.66-14.85,8.3-11.51,17.97-21.97,28.8-31.13,2.15-1.8,2.44-5,.64-7.16-.21-.25-.45-.49-.71-.69h-.06c-14.13-11.29-36.33-24.66-63.29-26h-.45C16.66,172.85.77,187.54.03,206.4c-.02.48-.03.96-.03,1.45v86.1c0,3.73,3.02,6.76,6.76,6.76.92,0,1.84-.19,2.68-.55,8.81-3.75,16.6-9.54,22.74-16.89,3.52-4.74,10.21-5.72,14.94-2.21,4.74,3.52,5.72,10.21,2.21,14.95-.75,1-15.74,20.84-44.17,28.13-3,.75-5.11,3.44-5.13,6.54v25.8c0,6.99,5.66,12.66,12.65,12.67.34,0,.67-.01,1.01-.04Z" fill="#42c083"/>
    <path d="M426.42,375.77c-3.2-3.25-8.43-3.3-11.68-.1-.03.03-.07.07-.1.1l-41.86,42.41c-1.86,1.89-1.83,4.92.05,6.77.9.88,2.1,1.38,3.36,1.38h22.1v11.08c.03,2.17,1.78,3.92,3.95,3.95h36.61c2.18,0,3.94-1.76,3.94-3.94h0v-11.09h22.06c2.65,0,4.79-2.15,4.79-4.79,0-1.26-.5-2.46-1.38-3.36l-41.84-42.41Z" fill="#42c083"/>
    <path d="M426.42,266.29c-3.2-3.25-8.43-3.3-11.68-.1-.03.03-.07.07-.1.1l-41.86,42.39c-1.86,1.89-1.83,4.92.05,6.77.9.88,2.1,1.38,3.36,1.38h22.1v11.08c.03,2.17,1.78,3.92,3.95,3.95h36.61c2.18,0,3.94-1.76,3.94-3.94h0v-11.07h22.06c2.65,0,4.79-2.15,4.79-4.79,0-1.26-.5-2.46-1.38-3.36l-41.84-42.41Z" fill="#42c083"/>
  </g>
</svg>