<?xml version="1.0" encoding="UTF-8"?>
<svg id="Capa_2" data-name="Capa 2" xmlns="http://www.w3.org/2000/svg" viewBox="0 0 95.03 87.03">
  <g id="Capa_1-2" data-name="Capa 1">
    <g>
      <path d="M93.49,65.92l-20.5-7.5c-1.9-.6-4-.6-5.9.1l-17.2,6.2c-.8.3-1.4.9-1.8,1.6-.4.8-.4,1.6-.1,2.4.5,1.3,1.8,2.1,3.2,2l.7-.1c4-.4,7.9-1.1,11.7-2.2l3.5-1c.5-.1,1.1-.1,1.6.2.5.3.8.7,1,1.2.1.5.1,1.1-.2,1.6-.3.5-.7.8-1.2,1l-3.4.9c-4.2,1.2-8.5,2-12.8,2.4h-.5c-3.2.3-6.3-1.5-7.5-4.5-.1-.3-.2-.6-.3-.8l-11.8.1c-1.4,0-2.7.8-3.2,2.1-.4.9-.5,2-.1,2.9.4,1,1.1,1.7,2.1,2.1l26.7,9.8c2.5.9,5.2.8,7.7-.2l12.8-5.5c.8-.3,1.7-.4,2.5-.1l5,1.9c1.1.4,2.3-.1,2.9-1.1l6.4-12.2c.6-1.3,0-2.8-1.3-3.3Z" fill="#fff"/>
      <path d="M46.89,20.82c.4-.8.4-1.6.1-2.4-.5-1.3-1.8-2.1-3.2-2l-.7.1c-4,.4-7.9,1.1-11.7,2.2l-3.5,1c-.5.1-1.1.1-1.6-.2-.5-.3-.8-.7-1-1.2-.1-.5-.1-1.1.2-1.6.3-.5.7-.8,1.2-1l3.4-.9c4.2-1.2,8.5-2,12.8-2.4h.5c3.2-.3,6.3,1.5,7.5,4.5.1.3.2.6.3.8l11.8-.2c1.4,0,2.7-.8,3.2-2.1.4-.9.5-2,.1-2.9-.4-1-1.1-1.7-2.1-2.1L37.49.62c-2.5-.9-5.2-.8-7.7.2l-12.8,5.5c-.8.3-1.7.4-2.5.1l-5-1.9c-1.1-.4-2.3.1-2.9,1.1L.29,17.82c-.7,1.3-.1,2.8,1.3,3.3l20.5,7.5c1.9.6,4,.6,5.9-.1l17.2-6.2c.7-.2,1.4-.8,1.7-1.5Z" fill="#fff"/>
      <path d="M29.99,54.62c0,5.1,4.1,9.2,9.2,9.2,4.1,0,7.6-2.7,8.7-6.4-3.3-2.2-5.5-6-5.5-10.3,0-.3,0-.7.1-1-1-.4-2.1-.6-3.3-.6-5-.1-9.2,4-9.2,9.1Z" fill="#fff"/>
      <path d="M54.89,56.22c5.1,0,9.2-4.1,9.2-9.2s-4.1-9.2-9.2-9.2-9.2,4.1-9.2,9.2,4.1,9.2,9.2,9.2Z" fill="#fff"/>
      <path d="M56.29,31.12v-6.9c0-1.1-.9-2-2-2s-2,.9-2,2v6.9c0,1.1.9,2,2,2s2-.9,2-2Z" fill="#fff"/>
      <path d="M47.09,35.42v-6.9c0-1.1-.9-2-2-2s-2,.9-2,2v6.9c0,1.1.9,2,2,2s2-.9,2-2Z" fill="#fff"/>
      <path d="M37.89,39.72v-6.9c0-1.1-.9-2-2-2s-2,.9-2,2v6.9c0,1.1.9,2,2,2s2-.9,2-2Z" fill="#fff"/>
    </g>
  </g>
</svg>