<?xml version="1.0" encoding="UTF-8"?>
<svg id="Capa_2" data-name="Capa 2" xmlns="http://www.w3.org/2000/svg" viewBox="0 0 68.8 93.7">
  <g id="Capa_1-2" data-name="Capa 1">
    <g>
      <path d="M23.23,26.73c4.62,0,8.53,3.05,9.84,7.25h3.71c-.29-1.28-.75-2.5-1.37-3.63.8-4.89,5.04-8.64,10.15-8.64,5.68,0,10.3,4.62,10.3,10.3,0,.67-.07,1.33-.19,1.96h3.64c.09-.64.15-1.29.15-1.96,0-7.66-6.24-13.9-13.9-13.9-.65,0-1.29.06-1.92.15.01-.22.03-.44.03-.67,0-7.66-6.24-13.9-13.9-13.9s-13.9,6.24-13.9,13.9c0,2.44.64,4.73,1.74,6.72-3.98,1.76-6.97,5.33-7.95,9.66h3.71c1.31-4.19,5.22-7.25,9.84-7.25ZM29.78,7.3c5.68,0,10.3,4.62,10.3,10.3,0,.59-.06,1.16-.16,1.73-3.29,1.47-5.91,4.18-7.26,7.54-1-.93-2.13-1.71-3.37-2.32.16.01.32.02.49.02,3.84,0,6.97-3.13,6.97-6.97s-3.13-6.97-6.97-6.97-6.97,3.13-6.97,6.97c0,2.42,1.24,4.55,3.11,5.8-.87-.17-1.77-.27-2.69-.27-.69,0-1.36.07-2.02.16-1.09-1.63-1.73-3.59-1.73-5.7,0-5.68,4.62-10.3,10.3-10.3ZM24.97,17.6c0-2.66,2.16-4.82,4.82-4.82s4.82,2.16,4.82,4.82-2.16,4.82-4.82,4.82-4.82-2.16-4.82-4.82Z" fill="#fff"/>
      <path d="M16.97,33.98h2.56c.88-1.07,2.2-1.76,3.7-1.76s2.81.7,3.7,1.76h2.56c-1.13-2.31-3.51-3.92-6.26-3.92s-5.12,1.6-6.26,3.92Z" fill="#fff"/>
      <path d="M52.25,33.98c.18-.62.29-1.28.29-1.96,0-3.84-3.13-6.97-6.97-6.97s-6.97,3.13-6.97,6.97c0,.68.1,1.34.28,1.96h2.29c-.27-.6-.43-1.26-.43-1.96,0-2.66,2.16-4.82,4.82-4.82s4.82,2.16,4.82,4.82c0,.7-.16,1.36-.43,1.96h2.29Z" fill="#fff"/>
      <path d="M9.38,48.24h50.04c2.29,0,4.15-1.86,4.15-4.15v-2.5c0-2.29-1.86-4.15-4.15-4.15H9.38c-2.29,0-4.15,1.86-4.15,4.15v2.5c0,2.29,1.86,4.15,4.15,4.15Z" fill="#fff"/>
      <path d="M54.34,12.18c-2.5-.56-2.85-.92-3.41-3.41-.05-.22-.24-.37-.46-.37s-.41.15-.46.37c-.56,2.5-.92,2.85-3.41,3.41-.22.05-.37.24-.37.46s.15.41.37.46c2.5.56,2.85.92,3.41,3.41.05.21.24.37.46.37s.41-.15.46-.37c.56-2.5.92-2.85,3.41-3.41.21-.05.37-.24.37-.46s-.15-.41-.37-.46Z" fill="#fff"/>
      <path d="M14.76,7.36c-2.5-.56-2.85-.92-3.41-3.41-.05-.22-.24-.37-.46-.37s-.41.15-.46.37c-.56,2.5-.92,2.85-3.41,3.41-.22.05-.37.24-.37.46s.15.41.37.46c2.5.56,2.85.92,3.41,3.41.05.21.24.37.46.37s.41-.15.46-.37c.56-2.5.92-2.85,3.41-3.41.21-.05.37-.24.37-.46s-.15-.41-.37-.46Z" fill="#fff"/>
      <path d="M63.37,4.93c-3.26-.74-3.72-1.19-4.45-4.45-.06-.28-.31-.48-.6-.48s-.54.2-.6.48c-.74,3.26-1.19,3.71-4.45,4.45-.28.06-.48.31-.48.6s.2.54.48.6c3.26.74,3.71,1.19,4.45,4.45.06.28.31.48.6.48s.54-.2.6-.48c.74-3.26,1.19-3.72,4.45-4.45.28-.06.48-.31.48-.6s-.2-.54-.48-.6Z" fill="#fff"/>
    </g>
    <path d="M64.3,83.35c2.83-3.97,4.5-8.81,4.5-14.03,0-7.01-3.01-13.34-7.79-17.79-.51.11-1.04.17-1.59.17H9.38c-.54,0-1.07-.06-1.58-.17-.22.21-.44.41-.66.63-4.4,4.4-7.14,10.48-7.14,17.16,0,5.21,1.67,10.05,4.5,14.02l-1.6,6.48c-.58,2.34,1.59,4.42,3.91,3.75l7.44-2.15s0,0,0,0c3.06,1.4,6.46,2.19,10.04,2.19h20.21c3.58,0,6.97-.79,10.04-2.19,0,0,0,0,0,0l7.44,2.15c2.31.67,4.48-1.42,3.9-3.75l-1.6-6.47ZM34.82,58.5l9.27,6.39-3.4,1.78-5.87-3.99v-4.18ZM33.98,58.5v4.18l-5.87,3.99-3.4-1.78,9.27-6.39ZM24.28,77.31v-11.67l3.44,1.82v8.04l-3.44,1.82ZM33.98,84.44l-9.27-6.39,3.44-1.78,5.84,3.99v4.18ZM28.59,75.53v-8.11l5.8-4.02,5.8,4.02v8.11l-5.8,4.02-5.8-4.02ZM34.82,84.44v-4.18l5.84-3.99,3.44,1.78-9.27,6.39ZM44.51,77.31l-3.44-1.82v-8.04l3.44-1.82v11.67Z" fill="#fff"/>
  </g>
</svg>