<?xml version="1.0" encoding="UTF-8"?>
<svg id="Capa_2" data-name="Capa 2" xmlns="http://www.w3.org/2000/svg" viewBox="0 0 452.92 452.91">
  <g id="Capa_1-2" data-name="Capa 1">
    <path d="M4.95,409.48c11.12-1.7,27-3.25,39.44-1,2.27,12.44.72,28.32-1,39.44-.37,2.36,1.25,4.57,3.61,4.93,1.36.21,2.75-.24,3.72-1.22l30.88-30.88c4.28-4.28,6.88-9.96,7.32-16l1.52-20.16c.36-4.8,2.43-9.31,5.83-12.71l161.41-161.4c1.02-1.01,1.02-2.66,0-3.68,0,0,0,0,0,0l-5.78-5.78-5.78-5.78c-1.01-1.02-2.66-1.02-3.68,0,0,0,0,0,0,0l-161.41,161.4c-3.4,3.4-7.9,5.48-12.7,5.84l-20.25,1.5c-6.04.44-11.72,3.04-16,7.32l-30.84,30.88c-1.67,1.7-1.65,4.44.06,6.11.96.95,2.32,1.39,3.65,1.19Z"/>
    <path d="M254.59,178.48c-1.28,1.28-1.28,3.35,0,4.62,0,0,0,0,0,0l7.62,7.63,7.62,7.62c1.28,1.28,3.36,1.28,4.64,0,0,0,0,0,0,0l21.28-21.28c2.16-2.24,5.51-2.85,8.32-1.52l.2.11c3.12,1.79,7.1.72,8.89-2.4.04-.07.08-.13.11-.2l30-58.17c.94-1.83.22-4.08-1.61-5.02-1.09-.56-2.38-.55-3.46.02l-57.84,30.95c-2.95,1.63-4.18,5.25-2.82,8.34.1.25.19.5.27.76.71,2.68-.09,5.52-2.09,7.44l-21.13,21.09Z"/>
    <path d="M452.92,304.28V93.18c.08-1.65-1.19-3.06-2.85-3.14-1.45-.07-2.75.91-3.07,2.32l-37.1,131.39c-1.93,6.84-1.25,14.15,1.9,20.52l30.92,62.4c1.32,2.66,4.55,3.75,7.21,2.43,1.83-.91,2.99-2.78,2.99-4.82Z"/>
    <path d="M86.59,127l93.79-4.08c3.42-.15,6.31,2.5,6.46,5.91.06,1.31-.3,2.61-1.04,3.71l-21.2,31.8c-1.01,1.53-.59,3.59.94,4.6.97.64,2.2.73,3.25.23l212.82-101.69c1.38-.66,3.02-.07,3.68,1.3.36.75.36,1.63,0,2.38l-101.54,213c-.79,1.66-.09,3.64,1.57,4.43,1.06.5,2.3.41,3.27-.24l31.79-21.2c2.84-1.9,6.69-1.13,8.58,1.71.73,1.1,1.1,2.4,1.04,3.72l-4.08,93.78c-.26,6,8.26,7.55,10.09,1.79L452.92,0,84.8,116.91c-5.76,1.83-4.24,10.35,1.79,10.09Z"/>
    <path d="M146.25,10.21l62.4,30.91c6.37,3.16,13.68,3.83,20.52,1.9L360.56,5.92c1.61-.37,2.62-1.98,2.25-3.6-.33-1.42-1.62-2.4-3.07-2.32h-211.1c-2.97-.01-5.39,2.39-5.4,5.36,0,2.06,1.16,3.94,3.01,4.85Z"/>
    <path d="M245.98,364.05l18.22-17.38c7.2-6.87,12.58-15.41,15.66-24.87,1.35-4.11-.89-8.53-4.99-9.88-3.59-1.18-7.52.38-9.33,3.7l-24.4,44.72c-.81,1.5-.24,3.38,1.27,4.18,1.17.63,2.61.44,3.57-.47Z"/>
    <path d="M132.99,174.32h0c-9.46,3.09-18.01,8.47-24.88,15.66l-17.38,18.23c-1.17,1.24-1.11,3.2.14,4.37.97.91,2.4,1.1,3.57.47l44.72-24.4c3.81-2.05,5.24-6.79,3.19-10.6-1.8-3.35-5.75-4.93-9.36-3.73Z"/>
  </g>
</svg>