<?xml version="1.0" encoding="UTF-8"?>
<svg id="Capa_2" data-name="Capa 2" xmlns="http://www.w3.org/2000/svg" viewBox="0 0 138.27 157.62">
  <g id="Capa_1-2" data-name="Capa 1">
    <path d="M132.73,112.33l-41.38,40.78c-5.57,5.51-14.37,6.04-20.56,1.23L6.06,104.26c-6.82-5.29-8.07-15.1-2.79-21.93.12-.15.23-.3.36-.44L68.58,4.18c4.12-4.93,11.45-5.59,16.38-1.48l.02.02,27.81,23.3c1.22,1.01,1.39,2.82.38,4.04-.7.85-1.82,1.22-2.89.96l-26.27-6.23c-4.23-1.01-8.65.72-11.07,4.34l-33.81,50.36c-3.84,5.71-2.58,13.43,2.87,17.63l25.95,20c5.16,3.99,12.48,3.56,17.14-1l11.57-11.36c3.48-3.42,3.53-9.02.11-12.5-.02-.02-.04-.04-.06-.06l-1.77-1.77c-2.46-2.49-6.47-2.51-8.95-.05-.02.02-.03.03-.05.05h0c-4.07,4.11-10.71,4.14-14.82.07-3.79-3.75-4.15-9.75-.85-13.94l11.32-14.49c5.55-7.16,15.85-8.47,23.01-2.92.45.35.88.72,1.29,1.11l26.64,25.49c7.39,7.04,7.68,18.75.63,26.14-.14.15-.29.29-.43.44Z" fill="#fff"/>
  </g>
</svg>