<?xml version="1.0" encoding="UTF-8"?>
<svg id="Capa_2" data-name="Capa 2" xmlns="http://www.w3.org/2000/svg" viewBox="0 0 314.72 468.63">
  <g id="Capa_1-2" data-name="Capa 1">
    <path d="M160.56,138.11c-1.84-1.59-4.56-1.59-6.4,0h0l-45,39.32c-1.06.92-1.66,2.26-1.66,3.66v106.42c0,1.4.6,2.74,1.66,3.66l45,39.32c1.84,1.59,4.56,1.59,6.4,0l45-39.32c1.06-.92,1.66-2.26,1.66-3.66v-106.42c0-1.4-.6-2.74-1.66-3.66l-45-39.32Z" fill="#924229"/>
    <path d="M300.29,109.56L188.15,11.56c-17.63-15.41-43.95-15.41-61.58,0L14.43,109.56C5.27,117.56,0,129.13,0,141.3v186c0,12.18,5.26,23.76,14.43,31.77l112.14,98c17.63,15.41,43.95,15.41,61.58,0l112.14-98c9.17-8.01,14.43-19.59,14.43-31.77v-186c0-12.17-5.27-23.74-14.43-31.74ZM239.18,287.56c0,10.63-4.59,20.73-12.59,27.73l-45,39.32c-13.91,12.06-34.56,12.06-48.47,0l-45-39.32c-8-7-12.59-17.1-12.59-27.73v-106.47c0-10.63,4.59-20.73,12.59-27.73l45-39.32h0c13.91-12.05,34.55-12.05,48.46,0l45,39.32c8,7,12.59,17.1,12.59,27.73v106.47Z" fill="#924229"/>
  </g>
</svg>