<?xml version="1.0" encoding="UTF-8"?>
<svg id="Capa_2" data-name="Capa 2" xmlns="http://www.w3.org/2000/svg" viewBox="0 0 72.47 62.76">
  <g id="Capa_1-2" data-name="Capa 1">
    <path d="M54.35,0H18.12L0,31.38l18.12,31.38h36.24l18.12-31.38L54.35,0ZM56.33,33.77c-12.96,2.93-14.78,4.75-17.71,17.71-.25,1.11-1.24,1.91-2.39,1.91s-2.14-.79-2.39-1.91c-2.93-12.96-4.75-14.78-17.71-17.71-1.12-.25-1.91-1.24-1.91-2.39s.79-2.14,1.91-2.39c12.96-2.93,14.78-4.75,17.71-17.71.25-1.12,1.24-1.91,2.39-1.91s2.14.79,2.39,1.91c2.93,12.96,4.75,14.78,17.71,17.71,1.11.25,1.91,1.24,1.91,2.39s-.79,2.14-1.91,2.39Z" fill="#442f30"/>
  </g>
</svg>