<?xml version="1.0" encoding="UTF-8"?>
<svg id="Capa_2" data-name="Capa 2" xmlns="http://www.w3.org/2000/svg" viewBox="0 0 452.96 452.58">
  <g id="Capa_1-2" data-name="Capa 1">
    <path d="M452.48,252.62c-1.09-3.85-4.6-6.52-8.61-6.54-1.57.06-3.12.48-4.51,1.21-1.98,1.21-3.44,3.11-4.1,5.33-.34,1.01-.51,2.06-.52,3.12-.46,2.24-.09,4.58,1.05,6.57,2.55,4.34,8.13,5.8,12.48,3.26,2.03-1.22,3.52-3.16,4.19-5.43.66-2.46.67-5.05.02-7.52Z" fill="#fff"/>
    <path d="M349.76,20.53c3.57,4.49,7.52,9.21,12.42,12.3,5.87,3.69,14.91-2.54,12.3-9.44-4-10.61-15.26-20.7-26.45-23.26-3.58-.82-8.05,2.5-6.52,6.49,2.05,5.02,4.83,9.71,8.25,13.91Z" fill="#fff"/>
    <path d="M48.92,359.29c-1.73-5.7-7.76-8.92-13.46-7.18-5.49,1.67-8.71,7.34-7.34,12.9.24,1.07.67,2.08,1.27,3,.92,1.56,2.22,2.85,3.78,3.77,5.01,2.93,11.46,1.24,14.39-3.77.04-.1.09-.19.15-.27l-.21.27c1.71-2.56,2.23-5.74,1.42-8.72Z" fill="#fff"/>
    <path d="M332.65,423.03c-.4-2.34-1.91-4.34-4.05-5.36-11.64-5-23.36-5.08-35.78-6.11-13.66-1.14-23-8.93-35.16-14.29-11.49-5.09-23.69-7.69-36.15-9-10.77-1.14-23.77-2.73-34.72-.45-1.52-.57-3.24-.07-4.22,1.23-3.03,1.68-4.11,5.5-2.43,8.53.32.57.73,1.09,1.21,1.54,3.22,9.73,19.84,14,27.72,18.62,14.79,8.62,22.2,25.42,38.54,31.73,15.14,5.84,32.31,2.38,47.49-1.45,9-2.28,18.48-4.14,27.26-7.22,7.65-2.68,12.6-7.33,11.2-15.82-.11-.72-.43-1.4-.91-1.95Z" fill="#fff"/>
    <path d="M388.73,413.21c-.41-1.28-1.16-2.43-2.15-3.33l-2.1-1.59c-1.59-.93-3.4-1.42-5.24-1.41h-.26c-2.05-.01-4.07.46-5.9,1.37l-.22.13c-3.11,1.84-5.03,5.18-5.06,8.79,0,1.81.47,3.58,1.39,5.14.89,1.51,2.15,2.77,3.67,3.66.83.39,1.76.8,2.63,1.11.57.18,1.16.28,1.76.32.56.1,1.12.16,1.69.19,1.03-.04,2.06-.19,3.06-.43,2.55-.82,4.75-2.5,6.2-4.75l1-2.47c.43-1.33.49-2.76.18-4.12.02-.91-.21-1.81-.65-2.61Z" fill="#fff"/>
    <path d="M418.65,293.2c-5.17,8-15.44,16.17-21.45,18.11-2.77.9-10.2,3.25-13,1-3.07-2.52,2-10.24,3.53-12.91,5.37-9.44,12.82-17.49,19.13-26.28,6.38-9.06,11.62-18.87,15.62-29.2,16.45-41.23,20.58-91.91,8.79-134.86-5.82-21.17-17.08-42.42-36.13-54.43-2.03-1.33-4.64-1.41-6.75-.21-2.6-.84-5.38.59-6.22,3.18-.41,1.26-.29,2.64.33,3.82,4.3,9.83,8.3,24.68,2.15,34.56-4.94,7.92-13.53,8.64-20.67,3.07-15.68-12.23-19.06-35.42-30.18-51.15C307.95,11.34,261.35,1.71,219.17,7.74c-4.94.71-9.8,1.67-14.64,2.74-4.89.73-9.79,1.4-14.61,2.47-20.33,4.54-29.8,8.35-51.73,7.59-7.37-.25-14.74-.65-22.12-.65-13.75,0-27.86,1.17-40.91,5.76-11.63,3.9-22.06,10.73-30.27,19.84-4.42,5-8.29,10.49-13.06,15.17s-9.61,7.17-15.64,9.24c-.92-.07-1.84.19-2.59.72-2.66-.82-5.95,1.46-4.95,4.58,2.73,8.49,11,10.92,19.15,11.64,4.74.41,9.78-.12,14.35,1.42,6.78,2.28,6.64,8,4.83,13.48-6.22,8.71-11.87,17.81-16.92,27.25-10.55,19.65-18.48,40.59-23.58,62.3C1,214.87-1.02,239.12.48,263.29c.54,9.02,1.64,18,3.3,26.89.73,9.19,2.64,18.24,5.7,26.93,1.87,5.77,4.17,11.4,6.87,16.83,2.15,4.31,9.2,5.28,12.37,1.59,15.17-17.64,36.86,14.76,40.76,27.19,5.45,17.62,3.24,36.85,11.68,53.66,9,18,28.26,23.51,46.54,27.53,22.62,5,45.74,8.91,68.54,2.75,8.7-2.35,7.45-13.62,1-16.47-1.52-1.69-3.74-2.57-6-2.39-36.38,1.23-52.38-30.82-63.43-60.18-5.69-15.58-12.72-30.63-21-45-11.89-20.17-11.58-48.2-9.08-56.15,3.43-10.88,9.53-22.44,18.92-29.35-.21,1.73-.36,3.47-.47,5.21-6.58,20.66.78,45.83,12.55,62.84,3.88,5.61,11.58,4.43,13.93-1.81,3-7.85,2.69-16,2.06-24.22s-1.67-16.78,3.25-23.93c4.44-6.47,11.33-11,16.78-16.51,5.84-5.95,10.24-13,14.21-20.25,7.67-14.08,15.45-28.94,31.3-35.21,4.17-1.62,8.63-2.33,13.1-2.09,6.89.37,12.18,6.26,11.82,13.15-.17,3.16-1.53,6.14-3.82,8.34-21.37,20.92-33.14,50.36-34.45,80.45-.9,20.88,4.44,39.67,19.07,55,7,7.28,15.15,13.54,23.46,19.24,17.14,11.76,43.05,17.83,54.57,19.87,19.62,3.46,40.08,2.84,59.18-3.05,19.71-6.08,36.38-17.82,51.63-31.38,13.75-12.22,25.7-27.17,26.18-46.27.23-8.93-9.3-8.02-12.35-3.3ZM65.84,275.06c-2.15,7.38-11.11,13.15-17.53,8-9.79-7.79-4.22-23.45,1-29.39,4.78-5.39,15.38-2.76,16.7,4.4,1.07,5.59,1.47,11.49-.17,16.99ZM183.09,116.4c-11,6.33-23.51,9.55-34.48,16-9.74,5.68-17.93,13.44-25.33,21.86-7.53,8.59-14.1,17.92-20.7,27.22s-12.8,19-23.06,24.59c-7.34,4-15.29,3.11-15.28-3.9,0-29.53,17.29-60.76,34.84-84.21,8.5-11.37,20.09-21.34,34.94-22.24,7.44-.46,13.71,2.12,20.44,4.85,7.53,3,14.72,3.77,22.61,1.65,8.57-2.35,13.7,9.78,6.02,14.18ZM324.02,122.04c.44-4.1,4.13-6.41,8-4.56,3.36,1.62,4.93,4.52,7.24,7.35,2.19,2.67,4.88,4.65,7,7.34,4.44,5.58,10,10.39,14,16.27,4.51,6.65-4.05,13.18-10.2,10.17-6.77-3.32-12.61-10.07-17.22-15.92-3.71-4.66-9.47-14.56-8.82-20.65h0ZM366.11,268.23c-3.85,17.19-12.26,34.42-26.23,45.41-6.76,5.31-14.55,9.17-22.87,11.32-3.89,1.61-7.98,2.68-12.16,3.18-12.66,1.49-26.59-3.44-36.43-12-2.81-2.03-5.34-4.42-7.54-7.1-5.89-7.2-9.78-15.82-11.28-25-3.12-19.46,3.57-44.34,21.29-53.71,12.41-6.56,10.15,10.3,10.11,10.35.65,3.69,1.58,7.16,5,9.89,4.49,3.58,11.63,3.08,15.94-.59,5.3-4.53,5-13.45,5.33-19.77.35-8.27.02-16.56-1-24.77-4-32.26-25.68-58.32-31.6-90-1.23-6.63,7.12-11.23,11.29-6,2.92,1.88,5.66,6.59,6.43,8,4.13,7.75,8.63,15.21,13.43,22.57,9.19,14.18,19.96,27.26,32.11,39,12.08,11.6,22.62,22.68,27.94,38.93,4.14,12.73,4.14,32.87.24,50.29h0Z" fill="#fff"/>
  </g>
</svg>