<?xml version="1.0" encoding="UTF-8"?>
<svg id="Capa_2" data-name="Capa 2" xmlns="http://www.w3.org/2000/svg" viewBox="0 0 457.53 474.66">
  <g id="Capa_1-2" data-name="Capa 1">
    <path d="M41.47,102.23c10.45,1.72,20.71-.9,26.39-10.61,4-6.8,5.82-17.29,5.47-25-.84-18.46-14.91-32.9-33.77-32.24-8.83.31-18.4,2.85-25,9-.15.14-.29.29-.43.43C2.22,52.02-2.68,68.31,5.48,81.64c7.2,11.79,22.9,18.43,35.99,20.59Z" fill="#fff"/>
    <path d="M285.92,28.95c.45,1.65,1.32,3.15,2.53,4.36.22.37.46.72.73,1.06,1.12,1.72,2.59,3.19,4.32,4.31,1.89,1.74,4.19,2.95,6.69,3.52,3.42.94,7.04.94,10.46,0l.2-.05,4.7-2,.36-.2c3.1-1.67,4.06-3,5.94-5.48,1.28-1.4,2.24-3.06,2.82-4.86.43-.88.8-1.79,1.1-2.73.23-1.74.46-3.47.7-5.2v-.61l-.7-5.17v-.2l-.07-.2-2-4.65-.26-.44c-.98-1.42-2.03-2.79-3.16-4.1-.69-.62-1.42-1.2-2.19-1.73-2.62-2-3.34-2.67-7.12-3.77l-.39-.12h-.2l-5.14-.69h-.4l-5.13.69h-.2l-4.6,1.94c-2.2,1.17-4.07,2.9-5.41,5-.91.91-1.63,1.99-2.11,3.18l-.48.62-2,4.7c-.82,2.54-.94,5.25-.35,7.85,0,1.75.47,3.47,1.36,4.97Z" fill="#fff"/>
    <path d="M418.38,177.67c10.79,2.78,22.58,1.26,30.49-7.14,8.28-8.79,9.88-21.88,7.9-33.32-4.2-24.4-31.42-45.77-55.72-32.63-7.56,3.99-12.89,11.22-14.48,19.62-.33.93-.62,1.87-.86,2.83-5.35,22.08,11.47,45.19,32.67,50.64Z" fill="#fff"/>
    <path d="M.32,412.78c-.4,8.3,3.61,16.24,10.11,21.55,1.6,2.04,3.46,3.86,5.52,5.43,9.6,7.11,22.13,8.96,33.37,4.91,5.51-1.91,10.54-4.98,14.75-9,4.74-4.29,8.34-9.69,10.49-15.71,4.37-12.09,1.73-25.6-6.88-35.15-13.35-17.63-40-19.33-55.73-3.24-7.19,7.34-12.37,18-11.92,28.35.04.96.14,1.91.29,2.86Z" fill="#fff"/>
    <path d="M221.48,305.45c4.49.61,9.05.59,13.54-.05,4.65-.73,7.82-5.09,7.09-9.74-.09-.55-.23-1.09-.42-1.62-1.71-4.65-4.46-8.84-8.05-12.26-3.37-3.31-8.79-3.26-12.11.11-.08.08-.15.16-.22.24-3.17,3.55-5.49,7.76-6.8,12.33-1.39,4.51,1.13,9.3,5.64,10.69.43.13.88.23,1.33.3Z" fill="#fff"/>
    <path d="M175.87,281.79l.37.22c8.38,4.66,18.96,1.65,23.62-6.74.02-.03.04-.07.06-.1,6.21-10.93,9-23.47,8-36-.77-9.54-9.14-16.65-18.68-15.87-2.2.18-4.35.78-6.32,1.76-14.3,7.18-21.07,17.59-24,23.8-1.64,3.45-2.07,7.35-1.21,11.07,3.59,15.62,18.16,21.86,18.16,21.86Z" fill="#fff"/>
    <path d="M230.77,249.43c6.87,6.7,13.32,13.83,19.29,21.35,4.47,5.8,12.8,6.88,18.6,2.41.33-.26.66-.53.96-.82,4.79-4.62,9.56-12.32,11.79-25.16,0,0,2.8-19.26-6.55-34.84-5.84-9.56-18.24-12.72-27.95-7.13-8.05,4.49-14.79,10.99-19.56,18.88-4.78,8.23-3.37,18.65,3.42,25.31Z" fill="#fff"/>
    <path d="M47.43,346.96c7.02,3.24,14.29,5.91,21.74,8,20.77,5.9,37.16,21.88,43.6,42.49,9.49,30.66,33.12,70.89,91.92,77,0,0,60.78,4.44,98.27-27.93,9.35-8.18,21.62-12.21,34-11.16,8.81.9,17.71.42,26.37-1.43,20.94-4.91,36.37-22.7,38.27-44.13,1-10.78.2-24.11-6.05-37.15-4.98-10.6-3.37-23.12,4.15-32.1,8.06-9.73,16.54-24.62,18.83-45.61v-.47c3.24-31.16-21.46-58.55-52.76-58.65-5.83,0-11.64.48-17.39,1.42-5.22.83-10.13-2.72-10.96-7.94-.08-.51-.12-1.02-.12-1.54v-.19c-.03-2.9,1.34-5.64,3.68-7.36.51-.36,1-.73,1.48-1.1,9.6-7.68,14.53-19.8,13-32-3.46-30.28-18.35-76-72.46-108.38-44.54-26.63-100.37-27.61-144.59-.42-21.51,13.24-42.27,34.19-56.8,67.15-8.64,19.41-3.15,42.2,13.37,55.56l.84.66c2.9,2.17,4.43,5.73,4,9.33-.71,5.48-5.72,9.34-11.2,8.63-.08-.01-.16-.02-.24-.03l-1.07-.16c-39.3-5.73-76.26,20.17-84.28,59.07-.07.38-.15.76-.22,1.14-6.84,35.88,11.53,71.83,44.62,87.3ZM351.27,279.67c8.16,0,14.77,6.61,14.77,14.77s-6.61,14.77-14.77,14.77-14.77-6.61-14.77-14.77h0c0-8.15,6.6-14.76,14.75-14.77h.02ZM155.77,105.25c8.54,0,15.47,6.93,15.47,15.47s-6.93,15.47-15.47,15.47-15.47-6.93-15.47-15.47,6.93-15.47,15.47-15.47h0ZM133.26,219.83c11.17-23.85,28-37.88,43.93-46.12,26.09-13.46,56.89-14.27,83.65-2.22,31.1,14,42.31,40.38,45.9,62.49,2.4,15.37,1.6,31.06-2.34,46.11-6.09,23.85-6.4,42.74-5.82,53.34.24,4.96-3.58,9.19-8.55,9.43-.15,0-.3.01-.45.01h-.47c-3.53-.05-6.65-2.32-7.78-5.67-.12-.35-.25-.67-.39-1-3.52-8.15-14.86-9-19.84-1.65-6.65,9.81-7.67,26.71-7.59,37.09.04,4.93-3.93,8.96-8.86,9-.05,0-.09,0-.14,0h-4.11c-4.94,0-8.94-4-8.95-8.93,0-.12,0-.24,0-.37,1-27.78-11.17-33.61-16.35-34.84-1.05-.26-2.13-.36-3.21-.28-7.62.71-11,10-12.45,16.69-.91,4.1-4.54,7.01-8.74,7h-.79c-4.68,0-8.57-3.61-8.91-8.28-2-26.55-29.51-49.58-29.51-49.58-38.34-28.01-18.24-82.22-18.24-82.22Z" fill="#fff"/>
  </g>
</svg>