<?xml version="1.0" encoding="UTF-8"?>
<svg id="Capa_2" data-name="Capa 2" xmlns="http://www.w3.org/2000/svg" viewBox="0 0 453.01 451.2">
  <g id="Capa_1-2" data-name="Capa 1">
    <path d="M285.02,165.09h3.85c7.95-.03,15.79,1.86,22.86,5.51,2.36,1.22,5.25.29,6.47-2.07.36-.69.54-1.46.53-2.23l-.07-43c-.06-9.82-8.04-17.73-17.86-17.7h-2.88c-9.83.01-17.79,7.99-17.78,17.82h0s.06,36.9.06,36.9c.03,2.64,2.18,4.76,4.82,4.77Z" fill="#fff"/>
    <path d="M227.04,123.47v1.44l.06,35.68c.02,2.55,2.11,4.6,4.66,4.58.02,0,.03,0,.05,0h29.15c2.53,0,4.58-2.06,4.58-4.59l-.02-37.17c0-9.84-7.98-17.81-17.82-17.81h-2.89c-9.83.02-17.79,8-17.77,17.83,0,.01,0,.03,0,.04Z" fill="#fff"/>
    <path d="M190.84,105.74c-10.33.53-18.26,9.46-18.24,19.81l.12,72.42c0,10.75,8.61,19.84,19.36,19.77,3.18-.02,6.3-.82,9.08-2.35,3.72-2.05,5.75-6.22,5.05-10.41-.79-4.66-1.29-9.37-1.5-14.1-.24-5.58,1.42-11.08,4.7-15.6,1.17-1.66,1.78-3.65,1.75-5.68l-.07-44.67c-.04-10.65-8.7-19.25-19.35-19.21-.3,0-.6,0-.9.02Z" fill="#fff"/>
    <path d="M158.1,198.6l-.12-73.54c-.02-10.63-8.64-19.23-19.27-19.21-10.63.02-19.23,8.64-19.21,19.27l.12,73.48c.02,10.63,8.64,19.23,19.27,19.21,10.63-.02,19.23-8.64,19.21-19.27v.06Z" fill="#fff"/>
    <path d="M149.52,439.25c.01,6.45,5.24,11.68,11.69,11.69l114.58.26c6.47.01,11.72-5.22,11.73-11.69,0-.01,0-.03,0-.04v-67.27c-.01-5.69,2.99-10.97,7.88-13.87l1.23-.74c16.32-9.7,26.31-27.3,26.28-46.29l-.16-96.53c-.04-20.14-16.39-36.44-36.53-36.42h-21.94l-33.74.06c-5.54,0-10.24,4.05-11.09,9.52-.12.76-.17,1.53-.13,2.3.22,5.29.87,10.55,1.94,15.74.44,2,1,4.07,1.59,6.07v.08c1.41,4.56,5.38,7.85,10.12,8.38l44.55,5.1c3.83.37,6.89,3.35,7.37,7.17.42,4.4-2.8,8.31-7.2,8.73-.01,0-.03,0-.04,0-1.91.17-46.89,4.86-53,65.11-.42,4.05-3.82,7.14-7.9,7.17-.28.01-.55.01-.83,0-4.37-.46-7.55-4.36-7.12-8.73,2.93-29,13.94-47.22,25.36-58.57,2.32-2.36,2.29-6.16-.07-8.48-.94-.92-2.15-1.51-3.45-1.68l-20.86-2.38c-1.14-.13-3-.24-4.16-.24l-37.14.06c-25.14.04-45.49,20.46-45.45,45.6l.08,45.85c.05,12.98,7.02,24.95,18.29,31.39h0c5.02,2.87,8.12,8.21,8.12,14v68.65Z" fill="#fff"/>
    <path d="M.04,208.52v14.86c0,2.61,2.13,4.73,4.74,4.72.25,0,.5-.02.74-.06,13.61-2.25,32-4.16,46.9-1.56,0,0-30.41,18.81-49.9,61.67C.85,291.85,0,295.86.01,299.91v62c0,2.09,1.7,3.79,3.79,3.79,1.45,0,2.77-.83,3.41-2.14,6.15-12.16,13.64-23.59,22.31-34.1,3.26-4,9.14-4.61,13.14-1.35,1.29,1.05,2.28,2.43,2.86,3.99,7.87,20.43,4.42,43.09.07,58.68-1.52,5.41,5.54,8.9,9,4.48,27.83-35.61,6.39-85.83,6.39-85.83-7.75-30.1.41-49.31,7.91-59.68,4.36-6.03,11.34-9.59,18.78-9.59h8c5.14,0,9.31-4.17,9.31-9.31v-15.89c0-3.79-2.73-7.02-6.47-7.65-14.8-2.49-45.12-5.84-93.84-3.5-2.57.05-4.63,2.14-4.63,4.71Z" fill="#fff"/>
    <path d="M52.45,47.25s2.6,34.84,1,65c-.11,2.12-1.92,3.74-4.04,3.63-1.5-.08-2.82-1.03-3.37-2.43-2.36-6.24-4.91-15.33-6.75-28.2,0,0-4.9-19.62-33.81-36.48-1.73-1.01-3.95-.43-4.96,1.3-.32.55-.49,1.18-.5,1.82v11.42c0,1.12.52,2.18,1.41,2.86,9.63,7.25,21.75,19.84,25.27,38.9.71,4.12,2.09,8.11,4.07,11.79,7.52,13.68,28.65,43.39,74.07,53.36v-2.83c0-3.67-1.23-7.23-3.5-10.11l-5-6.4c-9.75-12.41-13.91-28.32-11.46-43.92l11.54-73.44c.64-4.03-.62-8.13-3.4-11.11l-17-18.2C73.51,1.53,70,0,66.32,0H20.98c-4.1,0-7.42,3.32-7.42,7.42,0,2.04.84,4,2.33,5.4l36.56,34.43Z" fill="#fff"/>
    <path d="M104.86,188.78h0c0-1.38-.72-2.66-1.91-3.37-8.91-5.27-27.25-14.65-55.48-22.3-12.36-3.34-23.58-9.96-32.47-19.16-2.86-2.95-5.86-5.75-9-8.4-1.54-1.3-3.84-1.1-5.14.44C.3,136.66,0,137.49,0,138.36v35c0,2.01,1.62,3.64,3.63,3.65.09,0,.18,0,.27,0,21-1.54,63.16-1.93,95.17,15.26,1.9,1.03,4.28.33,5.32-1.57.32-.58.48-1.24.47-1.91Z" fill="#fff"/>
    <path d="M417.21,178.35c-31.48,20.72-59.48,20.94-59.48,20.94h0c-1.09.16-1.85,1.17-1.69,2.27.11.78.67,1.41,1.42,1.63,12.85,2.34,26,2.43,38.88.25,1.32-.24,2.61-.63,3.85-1.15,20.12-8.41,36.79-8.55,47.58-7.05,2.51.35,4.83-1.39,5.19-3.91.03-.22.05-.44.04-.65v-16.88c0-2.55-2.08-4.62-4.63-4.61-.05,0-.09,0-.14,0-10.33.29-21.21,2.71-31.02,9.16Z" fill="#fff"/>
    <path d="M429.52,341.03l-.56-40.22c-.04-3.11-1.15-6.11-3.15-8.5l-31.11-37.34c-1.91-2.29-1.61-5.69.68-7.61.82-.68,1.81-1.11,2.87-1.22,21.47-2.08,38.83,5.33,49.69,12,1.56.94,3.59.43,4.53-1.13.31-.51.47-1.1.47-1.69v-33.64c0-2.9-2.07-5.39-4.92-5.91-17.5-3.15-37.75-4.27-53.56,2.06-19.76,7.9-34.88,6.92-44.34,4.54-2.68-.68-5.4.94-6.08,3.62-.1.38-.15.78-.15,1.17v14.32c0,3.82,1.66,7.46,4.56,9.95,6.71,5.78,19.56,17.46,29.82,30.38,5.66,7.19,9.6,15.58,11.51,24.53,3,13.84,7.79,37.49,10,57.91.56,5.2,3.44,9.87,7.83,12.71,9.88,6.4,28,20.07,40.2,40.83.76,1.33,2.46,1.78,3.78,1.02.86-.49,1.39-1.41,1.39-2.4v-44.32c0-2.43-.96-4.77-2.67-6.5-4.62-4.6-9.56-8.86-14.79-12.76-3.73-2.78-5.95-7.15-6-11.8Z" fill="#fff"/>
    <path d="M402.11,156.25c-12.71,2.07-20.77,1.39-20.77,1.39,10.25-9.51,13.91-37.33,13.91-37.33,11.5-25.06,32-37.9,47.76-44.34,6.06-2.51,10.01-8.44,10-15V5.97c0-3.26-2.64-5.9-5.9-5.9h-7.71c-5.25,0-10.29,2.09-14,5.81-9.3,9.3-28.21,27.77-44,40.29-3.29,2.6-5.06,6.67-4.74,10.85,1.5,19.46,2.94,76-27.73,101.25-3.13,2.5-4.96,6.28-5,10.28v1c0,3.86,3,7.07,6.85,7.34,22.67,1.63,41.36-5.46,54.05-12.62,2.1-1.08,2.94-3.66,1.86-5.76-.86-1.68-2.72-2.6-4.58-2.26Z" fill="#fff"/>
    <circle cx="428.83" cy="149.6" r="8.59" fill="#fff"/>
    <circle cx="24.17" cy="431.24" r="11.58" fill="#fff"/>
  </g>
</svg>