<?xml version="1.0" encoding="UTF-8"?>
<svg id="Capa_2" data-name="Capa 2" xmlns="http://www.w3.org/2000/svg" viewBox="0 0 420.38 472.66">
  <g id="Capa_1-2" data-name="Capa 1">
    <path d="M8.06,215.4c35.37,10.8,83.3,27.73,90.11,42,8.15,17,13.55,89.08,23.14,141.78,2.39,13.11,21.16,13.11,23.54,0,9.59-52.7,15-124.74,23.14-141.78,6.81-14.23,54.74-31.16,90.12-42,10.75-3.28,10.75-18.51,0-21.79-35.38-10.8-83.31-27.72-90.12-42-8.15-17-13.55-89.08-23.14-141.78-2.38-13.11-21.15-13.11-23.54,0-9.59,52.7-15,124.74-23.14,141.78-6.81,14.24-54.74,31.16-90.11,42-10.75,3.28-10.75,18.51,0,21.79Z" fill="#fff"/>
    <path d="M416.86,326.71c-24-7.31-56.46-18.79-61.07-28.44-5.52-11.54-9.18-60.36-15.68-96.08-1.62-8.88-14.34-8.88-16,0-6.49,35.72-10.15,84.54-15.67,96.08-4.62,9.65-37.1,21.13-61.08,28.44-4.08,1.24-6.38,5.56-5.14,9.63.75,2.46,2.68,4.39,5.14,5.14,24,7.31,56.46,18.79,61.08,28.44,5.52,11.54,9.18,60.36,15.67,96.08,1.62,8.88,14.34,8.88,16,0,6.5-35.72,10.16-84.54,15.68-96.08,4.61-9.65,37.1-21.13,61.07-28.44,3.68-2.16,4.49-7.61,2.33-11.29-.67-1.14-1.62-2.09-2.33-3.48Z" fill="#fff"/>
  </g>
</svg>